<svg width="139" height="100" viewBox="0 0 139 100" fill="none" xmlns="http://www.w3.org/2000/svg">
<g clip-path="url(#clip0_444_7291)">
<path d="M138.076 17.3244C135.262 16.7215 132.486 15.8763 129.653 15.3515C128.906 15.2134 127.735 14.9374 127.01 15.0181C126.933 15.0272 126.748 15.0546 126.75 15.1366C126.752 15.3072 129.126 16.9559 129.462 17.1564C130.89 18.0068 132.197 18.4639 133.858 18.6293C135.021 18.7452 137.084 18.5642 138.055 19.076C139.477 19.8261 138.273 21.4201 137.891 22.5478C137.149 24.7343 136.476 26.7581 138.381 28.4953C138.471 28.5773 139.095 28.955 138.99 29.0696C137.808 29.442 136.601 29.8002 135.369 29.9825C134.253 30.1479 133.225 30.1049 132.105 30.1414C116.522 30.661 100.729 29.9213 85.1164 30.2182C78.3804 30.6323 71.6213 32.3409 66.232 36.5616C65.5458 37.0994 64.915 37.8052 64.2494 38.3209C64.1733 38.3795 64.1526 38.4694 64.0211 38.4355C64.0133 33.7708 62.6589 29.136 59.5373 25.6537C54.9052 20.4876 47.7114 18.5681 41.0877 17.6448C27.7293 15.7825 14.2548 14.6574 0.886154 12.8655C0.673318 12.8368 0.437264 12.8042 0.228297 12.7613C0.145743 12.7443 -0.0167865 12.7561 0.00256221 12.6454L22.5232 9.01465C33.2875 7.26439 43.3231 3.30549 54.1119 1.5279C70.0127 -1.09357 85.0093 -0.878699 99.606 6.54163C102.169 7.84521 104.533 9.6788 107.476 9.95749C109.318 10.132 111.308 10.0135 113.176 10.1125C119.825 10.4654 127.569 11.657 133.618 14.4985C135.172 15.2278 136.839 16.142 138.078 17.327L138.076 17.3244Z" fill="#1F7FFA"/>
<path d="M96.03 36.0546C96.1009 36.2525 95.9139 36.1796 95.8803 36.263C88.4324 54.7903 81.3133 73.4766 73.8654 92.0118C72.0724 96.67 68.0736 99.7616 63.0739 100L42.1992 99.996C42.6055 98.8657 43.1344 97.7874 43.582 96.6727C48.6217 84.1188 53.7104 71.2797 58.8146 58.6255C60.6424 54.0936 62.2161 49.395 65.3493 45.5729C68.9688 41.1569 74.34 38.0992 79.897 36.9154C80.3498 36.819 81.0618 36.6719 81.4875 36.5976C86.286 35.7616 91.1773 36.1353 96.03 36.0559V36.0546Z" fill="#1E1E1E"/>
</g>
<defs>
<clipPath id="clip0_444_7291">
<rect width="139" height="100" fill="white"/>
</clipPath>
</defs>
</svg>
