<svg width="335" height="100" viewBox="0 0 335 100" fill="none" xmlns="http://www.w3.org/2000/svg">
<g clip-path="url(#clip0_291_9854)">
<path d="M136.756 34.5046H184.27C185.612 34.5046 190.161 36.6383 191.513 37.4589C208.693 47.8953 202.329 76.1729 181.508 77.6211C151.474 79.7161 119.045 75.9991 88.7597 77.6211C79.3246 76.9742 70.015 68.2756 69.0783 58.8337C67.5814 43.7728 70.2082 26.395 69.0493 11.0831C69.1652 9.27777 70.8456 8.28337 72.5356 8.08063C75.0175 7.791 83.3324 7.35655 84.1629 9.91496L84.3753 54.6533C84.7906 58.8337 87.089 62.1644 91.5314 62.3285H180.108C187.969 61.5755 188.49 50.1544 178.707 49.3145C163.024 47.9725 145.477 50.3861 129.591 49.2951C110.363 43.2998 123.458 18.4398 136.747 13.4291C141.063 11.7976 154.361 11.7396 159.219 12.261C165.95 12.985 168.248 21.0561 162.927 25.2364C155.907 30.7394 139.441 21.4712 136.737 34.5046H136.756Z" fill="#1F7FFA"/>
<path d="M280.466 59.9922C271.224 59.0075 273.725 63.5837 271.987 69.3666C268.114 82.2938 252.238 79.4168 241.731 79.4361C240.244 79.4361 238.901 79.9768 237.124 79.9189C228.626 79.6582 219.79 73.0836 218.863 64.3367C218.196 58.0614 218.042 51.8246 223.749 48.0208C225.912 46.5823 231.629 44.7383 233.397 47.0264C236.323 50.8109 229.949 63.6223 238.496 64.636C243.769 65.2635 250.229 64.1629 255.647 64.607C257.81 64.2015 257.405 60.2336 257.994 58.1482C262.716 41.3496 279.829 45.5976 293.204 45.1728C299.085 46.283 292.103 62.7823 299.22 63.7188C302.069 64.0953 312.663 64.105 315.445 63.6705C317.646 63.323 318.641 61.2473 318.912 59.2585C319.472 55.1361 317.994 42.9812 319.472 40.3552C320.775 38.0285 328.182 38.3954 330.771 38.685C333.359 38.9747 334.315 39.6505 334.672 42.1992C335.377 47.2871 334.894 59.0847 334.209 64.3657C332.47 77.8335 318.747 79.4458 308.037 79.4844C305.102 79.4941 300.592 79.6485 297.868 79.4554C287.921 78.7507 279.684 70.1197 280.485 60.0019L280.466 59.9922Z" fill="#1F7FFA"/>
<path d="M48.5568 30.8939C50.0537 30.556 57.5284 30.556 59.0156 30.8939C60.1938 31.1546 61.3044 32.2552 61.5651 33.4427C60.7153 43.9853 63.6608 58.6213 60.1648 68.4494C52.2942 90.5387 20.2804 79.6196 2.54009 82.2552C0.0388636 82.3324 -0.134967 80.9325 0.058178 78.8086C1.68059 60.9094 27.4847 68.3239 39.6529 66.9337C43.3709 66.5089 45.4955 63.8636 45.9108 60.2143C46.8185 52.1722 44.7229 41.5813 45.9397 33.8289C46.1522 32.4483 47.1662 31.2029 48.5568 30.8843V30.8939Z" fill="#1F7FFA"/>
<path d="M211.388 0.212366C212.75 1.07161 211.079 5.30988 210.538 6.54563C206.859 14.9836 196.158 23.4601 187.38 26.0282C180.398 28.0749 172.643 27.8142 165.487 27.0805C165.178 25.5454 166.627 25.0917 167.264 23.9911C169.437 20.2645 169.176 18.1695 167.264 14.4043C166.974 13.8443 164.637 11.7783 167.109 11.7783H175.453C179.393 11.7783 185.864 8.77579 188.684 6.00499C189.785 4.93335 192.421 0.193057 193.532 0.193057C195.936 0.193057 210.625 -0.289661 211.378 0.193057L211.388 0.212366Z" fill="#2F2F2F"/>
<path d="M300.263 17.9282C308.279 16.2966 311.543 21.0658 310.017 28.6059C309.138 32.9697 303.363 33.269 299.8 32.5449C293.503 31.2705 293.735 19.2508 300.263 17.9282Z" fill="#2F2F2F"/>
<path d="M317.424 17.9282C324.88 16.5669 328.839 20.7569 327.188 28.1522C325.71 34.7751 312.412 34.7268 312.412 26.3951C312.412 25.5358 312.818 22.1858 313.03 21.4134C313.465 19.7915 315.821 18.2275 317.424 17.9282Z" fill="#2F2F2F"/>
<path d="M234.449 85.5957C237.144 85.1902 242.03 86.0108 242.803 89.0712C243.112 90.2877 243.102 95.028 242.822 96.2734C241.586 101.757 230.403 100.637 229.109 96.2734C228.839 95.3466 228.868 91.8807 229.003 90.7994C229.37 87.7486 231.523 86.0398 234.459 85.5957H234.449Z" fill="#2F2F2F"/>
<path d="M250.2 85.586C253.155 84.9778 258.37 85.8467 259.394 89.1582C259.799 90.4712 259.799 94.8446 259.394 96.1576C257.81 101.303 247.071 101.226 245.806 96.2541C244.821 92.3827 245.535 86.5515 250.2 85.586Z" fill="#2F2F2F"/>
</g>
<defs>
<clipPath id="clip0_291_9854">
<rect width="335" height="100" fill="white"/>
</clipPath>
</defs>
</svg>
