<svg width="24" height="24" viewBox="0 0 24 24" fill="none" xmlns="http://www.w3.org/2000/svg">
<path d="M3 5.93359C3 2.62459 5.691 -0.0664062 9 -0.0664062C12.309 -0.0664062 15 2.62459 15 5.93359C15 9.24259 12.309 11.9336 9 11.9336C5.691 11.9336 3 9.24259 3 5.93359ZM21.724 18.5006L23.565 19.5606L22.567 21.2936L20.727 20.2336C20.0159 21.0481 19.059 21.609 18.001 21.8316V23.9326H16.001V21.8316C14.9428 21.6092 13.9859 21.0483 13.275 20.2336L11.435 21.2936L10.437 19.5606L12.278 18.5006C12.113 18.0046 12.002 17.4846 12.002 16.9336C12.002 16.3826 12.113 15.8626 12.278 15.3666L10.437 14.3066L11.435 12.5736L13.275 13.6336C13.9861 12.8191 14.943 12.2582 16.001 12.0356V9.93459H18.001V12.0356C19.081 12.2556 20.022 12.8376 20.727 13.6336L22.567 12.5736L23.565 14.3066L21.724 15.3666C21.889 15.8626 22 16.3826 22 16.9336C22 17.4846 21.889 18.0046 21.724 18.5006ZM18.5 16.9336C18.5 16.1066 17.827 15.4336 17 15.4336C16.173 15.4336 15.5 16.1066 15.5 16.9336C15.5 17.7606 16.173 18.4336 17 18.4336C17.827 18.4336 18.5 17.7606 18.5 16.9336ZM8 16.9336C8 15.8796 8.19 14.8736 8.523 13.9336H5C2.243 13.9336 0 16.1766 0 18.9336V23.9336H11.349C10.3029 23.0915 9.45895 22.0255 8.87936 20.814C8.29977 19.6026 7.99928 18.2765 8 16.9336Z" fill="#1F7FFA"/>
</svg>
