<svg width="22" height="19" viewBox="0 0 22 19" fill="none" xmlns="http://www.w3.org/2000/svg">
<g clip-path="url(#clip0_701_36577)">
<path d="M13.2695 13.883C13.2166 13.7336 13.1752 13.5457 13.1436 13.3896C12.9391 12.3798 13.0763 11.4532 13.5175 10.5315C14.0556 9.42442 15.0103 8.57351 16.1743 8.16334C17.253 7.79292 18.4343 7.85767 19.4655 8.34375C20.5235 8.85636 21.3366 9.76316 21.7289 10.8681C22.1596 12.0847 22.0288 13.3527 21.4744 14.5075C20.9244 15.653 20.0974 16.5909 19.2837 17.5554C19.0775 17.7997 18.6983 18.2554 18.4651 18.4492C18.3121 18.5782 18.1364 18.6775 17.9468 18.7421C17.5307 18.889 17.0728 18.862 16.6771 18.6672C16.2971 18.4798 16.0973 18.2187 15.8419 17.894C15.7999 17.8601 15.4981 17.4811 15.4392 17.4087C14.6903 16.488 13.9141 15.5153 13.4553 14.4134C13.3988 14.2777 13.2953 14.023 13.2695 13.883ZM20.497 11.8389C20.4589 11.6916 20.4277 11.5532 20.378 11.4088C20.2119 10.932 19.927 10.505 19.55 10.1678C18.2698 9.02866 16.3534 9.22267 15.245 10.4842C15.1945 10.5416 15.1547 10.6123 15.0997 10.6726L15.0903 10.6827C14.6676 11.3006 14.4742 11.9079 14.511 12.6714C14.5787 14.076 15.5775 15.2095 16.4173 16.2559C16.6135 16.5003 16.8316 16.7584 17.0736 16.9563C17.2078 17.0595 17.4293 17.1091 17.6033 17.0734C17.7043 17.0526 17.7996 17.0096 17.8819 16.9474C18.0478 16.82 18.2366 16.5879 18.3786 16.4249C18.917 15.8074 19.4092 15.2039 19.8569 14.5133C20.3287 13.7855 20.6401 12.9124 20.528 12.0338C20.5198 11.969 20.5004 11.9031 20.497 11.8389Z" fill="#1F7FFA"/>
<path d="M13.2695 13.8828L13.2895 13.8892C13.3508 14.0525 13.3779 14.2896 13.5316 14.3668C13.5437 14.3728 13.546 14.376 13.5574 14.3854L13.5628 14.4137L13.5725 14.4109L13.5793 14.3881C13.6052 14.3923 13.6732 14.4186 13.682 14.4181C13.6803 14.2489 13.543 14.1006 13.5317 13.932L13.8141 14.6234C13.8507 14.7138 13.9171 14.8611 13.9412 14.9499L13.934 14.9558C13.9087 14.8975 13.8831 14.8439 13.8551 14.7866C13.7755 14.9164 13.7688 15.0427 13.852 15.1705C13.9297 15.29 14.0008 15.4207 14.083 15.538C14.1156 15.5842 14.1249 15.6268 14.1562 15.6723C14.4734 16.1287 14.8065 16.58 15.153 17.0144C15.2954 17.1919 15.4392 17.3684 15.5843 17.5438C15.6485 17.622 15.7252 17.71 15.7847 17.7914C15.8234 17.8444 15.842 17.8323 15.8419 17.8938C15.7999 17.8598 15.4981 17.4809 15.4392 17.4085C14.6903 16.4878 13.9141 15.5151 13.4553 14.4132C13.3988 14.2775 13.2953 14.0228 13.2695 13.8828Z" fill="#1F7FFA"/>
<path d="M16.2813 13.5944C15.858 13.0881 15.7864 12.3763 16.1004 11.7964C16.4142 11.2166 17.0506 10.8853 17.7077 10.9595C18.3648 11.0338 18.9105 11.4988 19.086 12.1341C19.2616 12.7693 19.0316 13.4469 18.5053 13.8458C17.8158 14.3684 16.8357 14.2575 16.2813 13.5944ZM18.0711 12.8752C18.1878 12.6663 18.1757 12.4097 18.0401 12.2125C17.9043 12.0154 17.6683 11.9119 17.4307 11.9451C17.1932 11.9784 16.9949 12.1427 16.9189 12.3694C16.8155 12.678 16.9649 13.0142 17.2637 13.1453C17.5625 13.2766 17.9125 13.1595 18.0711 12.8752Z" fill="#1F7FFA"/>
<path d="M16.2812 13.5938C16.35 13.617 16.4638 13.751 16.5249 13.8033C16.7695 14.0128 17.0914 14.135 17.4118 14.1591C17.4786 14.1637 17.5539 14.1232 17.6394 14.1388C17.674 14.145 17.8137 14.1484 17.8487 14.1375C17.9798 14.097 18.1609 14.043 18.2791 13.9745C18.353 13.9316 18.43 13.8662 18.5053 13.8451C17.8158 14.3677 16.8357 14.2569 16.2812 13.5938Z" fill="#1F7FFA"/>
<path d="M17.7266 11.1152C17.7302 11.1146 17.7339 11.1139 17.7375 11.1133C18.0953 11.1201 18.474 11.3375 18.6829 11.6169C18.8137 11.792 18.9018 11.9369 18.9258 12.1331C18.8963 12.1088 18.8852 12.0038 18.8504 11.9429C18.8388 11.9518 18.8302 11.9594 18.8193 11.9689L18.7811 11.9533L18.7879 11.9686C18.7962 12.0069 18.8139 12.0814 18.7814 12.1069C18.7101 12.0676 18.6162 11.8171 18.5314 11.7264C18.3716 11.556 18.1877 11.4162 17.9817 11.3096C17.9776 11.2801 17.9764 11.2951 17.9932 11.2642C18.0281 11.2467 18.0726 11.2573 18.1098 11.2656L18.1139 11.2399L18.1021 11.2653L18.1074 11.2326C18.0364 11.1522 17.8339 11.1312 17.7266 11.1152Z" fill="#5195F4"/>
<path d="M16.9184 12.3723C16.9137 12.3168 16.9491 12.2091 16.9837 12.1749C17.088 12.0676 17.1462 12.0121 17.2078 11.876C17.2386 11.8077 17.4557 11.7452 17.5408 11.7392C17.7415 11.7251 18.0984 11.8682 18.1143 12.103C18.1209 12.2001 18.1028 12.2063 18.1546 12.306C18.1811 12.4255 18.1931 12.8102 18.0706 12.8781C18.1873 12.6691 18.1752 12.4125 18.0396 12.2154C17.9038 12.0182 17.6678 11.9148 17.4302 11.9479C17.1926 11.9812 16.9943 12.1455 16.9184 12.3723Z" fill="#1F7FFA"/>
<path d="M16.7113 12.7969C16.729 12.8104 16.8302 12.9861 16.8577 13.0261C16.8971 13.0837 16.9427 13.1369 16.9937 13.1847C17.1301 13.3114 17.209 13.307 17.3129 13.3733C17.2498 13.3779 17.1257 13.2716 17.0425 13.3438C17.0579 13.3626 17.0621 13.3713 17.086 13.3784L17.0914 13.3888L17.0804 13.4133L17.1003 13.4563L17.0868 13.4612C16.9419 13.4221 16.6293 13.2166 16.6369 13.0492C16.6949 12.9997 16.7515 13.0705 16.7957 12.9772C16.7688 12.9166 16.7406 12.8565 16.7113 12.7969Z" fill="#5195F4"/>
<path d="M15.09 10.6824C15.0857 10.6267 15.1966 10.5024 15.2344 10.459C15.6245 10.0125 16.1272 9.70734 16.6865 9.51871C16.7392 9.50091 16.8058 9.45273 16.8604 9.43214C17.0395 9.35318 17.221 9.30678 17.4154 9.28483C17.4327 9.28287 17.4542 9.28539 17.4695 9.28117L17.48 9.26761C17.4633 9.25277 17.4369 9.25827 17.4092 9.25968C17.1445 9.27211 16.8831 9.32258 16.6329 9.40953C16.3065 9.52112 16.0244 9.63944 15.7465 9.8485C15.65 9.92095 15.5562 9.99711 15.4655 10.0768C15.4247 10.1128 15.3386 10.21 15.2905 10.2138L15.2957 10.2158L15.2885 10.2008C15.3635 10.0834 15.774 9.77466 15.906 9.6872C16.067 9.58068 16.3945 9.46927 16.5744 9.39071C16.7822 9.30001 16.9849 9.21361 17.2103 9.17432C17.4045 9.14409 17.6004 9.13371 17.7961 9.13745C17.9514 9.1404 17.988 9.1968 18.1062 9.23067C18.3831 9.31001 18.7012 9.24095 18.8162 9.5726C18.8573 9.59425 18.9058 9.59393 18.9306 9.6153L18.9273 9.64005C18.9922 9.70933 19.1949 9.7443 19.2508 9.88218C19.2624 9.91096 19.3784 9.97979 19.404 10.0088C19.9072 10.4028 20.2965 10.9669 20.4531 11.5871C20.4763 11.6795 20.5133 11.7394 20.4966 11.8386C20.4585 11.6912 20.4273 11.5529 20.3776 11.4085C20.2115 10.9317 19.9266 10.5046 19.5496 10.1675C18.2694 9.02833 16.353 9.22234 15.2447 10.4838C15.1942 10.5413 15.1543 10.6119 15.0993 10.6723L15.09 10.6824Z" fill="#1F7FFA"/>
<path d="M19.6244 8.84677C19.5894 8.84089 19.5628 8.8303 19.5349 8.80791C19.4797 8.76365 19.4146 8.77838 19.386 8.71096L19.3941 8.70308C19.4273 8.71297 19.4448 8.71923 19.4767 8.73265C19.4523 8.70791 19.4202 8.67154 19.3887 8.66055C19.395 8.63592 19.3902 8.64389 19.4074 8.62577C19.4332 8.65042 19.5301 8.67292 19.5598 8.66359C19.4362 8.58245 19.0203 8.39266 18.8762 8.37556L18.875 8.36633C19.0788 8.33054 19.7227 8.61953 19.9072 8.74364C20.1169 8.88465 20.4737 9.20817 20.655 9.38762C20.7811 9.51236 21.1955 10.0642 21.2048 10.2059C21.1444 10.1035 21.105 10.0123 21.0362 9.91613C20.963 9.81357 20.8838 9.72355 20.8084 9.62378C20.7729 9.57683 20.7177 9.541 20.6738 9.49073L20.6651 9.49006C20.6726 9.58806 20.7822 9.67868 20.7498 9.7491C20.6978 9.74791 20.6392 9.66628 20.6036 9.65415C20.5154 9.60923 20.3471 9.38057 20.272 9.31861C20.053 9.13796 19.8738 8.98309 19.6244 8.84677Z" fill="#5195F4"/>
<path d="M20.6016 9.65302C20.661 9.74061 20.9661 10.1715 20.9834 10.2543C20.8975 10.2167 20.8235 10.0062 20.7466 9.93964L20.7377 9.96585C20.6958 9.94287 20.7583 9.87534 20.6565 9.84382L20.6576 9.81937C20.6396 9.79886 20.6507 9.80372 20.6261 9.79955L20.6158 9.8341C20.6411 9.8564 20.6971 9.88536 20.7066 9.90338L20.6718 9.90772L20.6658 9.917C20.6991 9.95131 20.7828 10.0291 20.7782 10.075L20.7632 10.0813L20.7527 10.0575L20.7444 10.1292L20.734 10.1241C20.7255 10.0823 20.5767 9.91634 20.5428 9.87737C20.1712 9.44993 19.7583 9.10792 19.255 8.84385C19.2069 8.81861 19.0881 8.78653 19.0625 8.74153C19.1277 8.70648 19.3065 8.80981 19.3712 8.84431L19.3786 8.81684L19.3969 8.82101C19.4142 8.84791 19.4184 8.85733 19.4435 8.8784C19.4804 8.86329 19.4828 8.85625 19.5149 8.87477C19.5337 8.94305 19.55 8.92596 19.6158 8.92951C19.6215 8.9469 19.6197 8.94028 19.6239 8.9569L19.6267 8.96825L19.6324 8.96294C19.663 8.96965 19.7012 9.01574 19.7257 9.04035L19.7289 9.02778C19.7136 9.00743 19.7013 8.99453 19.6994 8.96899C19.6913 8.86142 19.6432 8.9144 19.6133 8.86758L19.6224 8.84564C19.8718 8.98196 20.051 9.13683 20.27 9.31748C20.3451 9.37944 20.5134 9.6081 20.6016 9.65302Z" fill="#5195F4"/>
<path d="M14.6797 14.1211C14.6926 14.1325 15.0137 14.7054 15.0527 14.7684C15.3693 15.2786 15.7425 15.7105 16.1171 16.1737C16.2419 16.3302 16.3698 16.4844 16.5005 16.6361C16.6798 16.8466 16.8652 17.0402 17.1031 17.1899C17.1562 17.2233 17.2302 17.2448 17.2913 17.2806C17.2602 17.28 17.2488 17.2705 17.2186 17.2574C17.1317 17.2338 17.0959 17.1981 17.0129 17.1654C16.9331 17.1945 16.8074 17.2037 16.8031 17.0873C16.8182 17.0542 16.8266 17.052 16.8569 17.0359C16.8005 16.9737 16.7131 16.9142 16.6516 16.8542C16.5763 16.7807 16.5081 16.7084 16.4316 16.635L16.4473 16.6182C16.4273 16.5725 16.0361 16.1045 15.9773 16.0338C15.5532 15.5235 15.1267 14.9792 14.8192 14.3898C14.7744 14.3039 14.7036 14.2222 14.6797 14.1211Z" fill="#5195F4"/>
<path d="M16.2578 17.957C16.2932 17.9765 16.4059 18.1253 16.4458 18.1664C16.6324 18.3586 16.8987 18.5493 17.1777 18.5469C17.1947 18.5467 17.1993 18.5737 17.2047 18.5874C17.4431 18.6618 17.847 18.5712 18.0616 18.457C18.1542 18.4077 18.229 18.3522 18.3148 18.2949L18.3226 18.299L18.3271 18.3165C18.2335 18.4068 18.1498 18.4578 18.0324 18.5131C17.3761 18.8228 16.6624 18.5481 16.2578 17.957Z" fill="#1F7FFA"/>
<path d="M6.93992 0.0234375C7.58878 0.0587944 7.78207 0.13953 8.34857 0.43138L9.03986 0.786602L11.1375 1.86564C11.3996 2.0017 11.6763 2.14169 11.9356 2.28086C12.3871 2.52314 12.7142 2.22736 13.1283 2.02915L15.0871 1.07157C15.314 0.958671 15.5423 0.848531 15.7718 0.741175C15.991 0.636039 16.1367 0.547215 16.428 0.458874C17.1136 0.25089 17.9495 0.335262 18.5636 0.717399C18.5651 0.719115 18.5666 0.720832 18.5681 0.722549C18.6812 0.780251 18.7987 0.870684 18.8957 0.953274C19.2599 1.25749 19.5297 1.65883 19.6733 2.11029C19.6839 2.14337 19.7046 2.20746 19.7084 2.24057C19.7241 2.29511 19.7682 2.52106 19.7733 2.5788C19.8057 3.06865 19.7848 3.4129 19.6031 3.87618C19.566 3.9711 19.5028 4.1281 19.4489 4.20828C19.3696 4.41901 19.0705 4.76138 18.9062 4.91575C18.58 5.22206 18.1393 5.42468 17.7443 5.62866L16.6781 6.18741C15.6521 6.722 14.617 7.28515 13.5976 7.83428L9.30505 10.1616L7.9792 10.8917C7.7408 11.0224 7.50287 11.1587 7.25591 11.2767C6.65675 11.5632 5.96955 11.4761 5.32667 11.4934C5.14458 11.4983 4.95628 11.4879 4.77696 11.4942C4.03716 11.52 3.3102 11.4405 2.72527 10.942C2.55874 10.8002 2.40939 10.6377 2.25545 10.4766C2.00146 10.2118 1.75013 9.94454 1.50152 9.67475C1.27573 9.43329 0.543374 8.73102 0.450546 8.48779C0.304599 8.22658 0.255479 7.92257 0.311779 7.62893C0.315004 7.56654 0.338871 7.46859 0.360986 7.41045C0.503806 7.03494 0.726661 6.85131 1.07393 6.68297C1.09819 6.66175 1.2203 6.60352 1.25495 6.58553L1.69302 6.36307C2.07645 6.16821 2.35546 5.98518 2.79813 5.91928C3.21512 5.85721 3.47904 5.91182 3.87448 6.0309C4.13055 6.10802 4.94258 6.57617 5.16688 6.48107C5.64041 6.28029 6.14496 5.97377 6.60009 5.72605C6.75169 5.6427 6.77243 5.42466 6.65667 5.30337C6.50202 5.13906 6.30704 4.98085 6.13849 4.83228L4.90471 3.73342C4.66547 3.51978 4.25833 3.18956 4.08349 2.94463C3.88393 2.66507 3.79979 2.2364 3.8679 1.89396C3.86977 1.82713 3.89896 1.72518 3.92306 1.66271C4.0717 1.2776 4.3311 1.0615 4.69472 0.892153C4.73135 0.867038 4.86802 0.806974 4.91921 0.781201C5.05056 0.715062 5.1829 0.646837 5.31548 0.583391C5.95263 0.302448 6.17696 0.0636029 6.93992 0.0234375ZM1.89301 7.91896C1.96107 8.0128 2.25634 8.27659 2.36086 8.38384L3.18833 9.24671C3.40339 9.47061 3.71998 9.84969 4.0684 9.87207C4.78809 9.91828 5.72086 9.91455 6.43117 9.86257C6.65749 9.84602 7.39323 9.3972 7.62316 9.26984L8.95515 8.53648C9.21415 8.39318 9.51079 8.21891 9.77196 8.0874C11.5687 7.10557 13.3728 6.13682 15.1838 5.18125L16.9139 4.27728C17.1829 4.1374 17.5238 3.9984 17.7668 3.82272C18.5684 3.24301 18.3366 1.96498 17.2692 1.92501C16.7615 1.906 16.4155 2.15194 15.9767 2.36823L13.9288 3.37852L13.3396 3.67068C12.9709 3.85445 12.6646 4.01446 12.2356 4.01038C12.0258 4.00793 11.8177 3.97042 11.6204 3.8994C11.4845 3.8513 11.3295 3.76858 11.1986 3.70207L10.6435 3.41888L8.56816 2.35531C8.29756 2.21298 8.02591 2.07264 7.75325 1.93428C7.51731 1.81318 7.19594 1.61081 6.92126 1.64336C6.59718 1.66435 6.3634 1.82539 6.07127 1.95228C5.92766 2.01466 5.69416 2.08268 5.56962 2.15823L5.56389 2.1766C5.62375 2.26207 5.99827 2.56839 6.09893 2.65727L7.28278 3.72093L7.9357 4.30527C8.11123 4.46469 8.35666 4.6681 8.47515 4.86726C8.64515 5.15622 8.70452 5.49669 8.6423 5.82583C8.58748 6.12688 8.4007 6.4628 8.14092 6.62701C7.84042 6.81695 7.4858 6.99286 7.17054 7.16537L6.23144 7.67667C5.7361 7.94444 5.32391 8.19512 4.73388 8.06675C4.47868 8.01122 4.3084 7.93002 4.07562 7.82307L3.66899 7.63606C3.39361 7.50955 3.16261 7.39472 2.85033 7.48001C2.72749 7.51356 2.53964 7.60962 2.42139 7.67017C2.24715 7.7594 2.06312 7.82999 1.89301 7.91896Z" fill="#1F7FFA"/>
<path d="M18.9906 2.12428C18.949 2.07494 18.9257 1.98529 18.8985 1.92157L18.8885 1.94557C18.7879 1.7565 18.7482 1.74373 18.6375 1.59613C18.312 1.16195 17.9904 1.12443 17.5349 0.917472C17.4301 0.869896 17.3283 0.836402 17.2435 0.752103C17.1866 0.695547 17.242 0.657886 17.2048 0.615818L17.1507 0.642265L17.1406 0.633669C17.1654 0.42505 17.3616 0.508675 17.4444 0.449219C17.5685 0.598792 17.9829 0.592064 18.1575 0.629509C18.2504 0.649434 18.3102 0.680941 18.3968 0.71784C18.4904 0.745408 18.6686 0.856667 18.735 0.870271L18.7405 0.864407C18.693 0.825036 18.5762 0.75627 18.5678 0.721225C18.6809 0.778928 18.7984 0.869361 18.8954 0.95195C19.2596 1.25616 19.5294 1.6575 19.673 2.10896C19.6836 2.14204 19.7044 2.20614 19.7081 2.23925L19.6947 2.25092C19.6655 2.20562 19.6669 2.12309 19.6304 2.1138C19.6251 2.15433 19.6315 2.15597 19.6101 2.18342C19.4229 2.2093 19.5505 2.50823 19.4797 2.59902C19.4533 2.71142 19.413 3.03795 19.2669 3.06433C19.1507 3.07629 19.1506 2.9493 19.1527 2.875C19.1598 2.62737 19.0563 2.36287 18.9906 2.12428Z" fill="#5195F4"/>
<path d="M19.0262 1.71358C19.0605 1.75286 19.0505 1.75338 19.0927 1.7667C19.1722 1.72114 19.0918 1.55535 19.0507 1.49755C18.8978 1.2823 18.7031 1.09967 18.4766 0.963404L18.4815 0.945925C18.6518 0.924908 19.1569 1.45059 19.2051 1.6199C19.215 1.65474 19.2732 1.76929 19.2973 1.78646C19.4029 2.00839 19.4132 2.13179 19.442 2.37254C19.4483 2.42565 19.4614 2.55142 19.4785 2.59778C19.4521 2.71017 19.4118 3.03671 19.2657 3.06309C19.1495 3.07504 19.1493 2.94806 19.1515 2.87376C19.1586 2.62613 19.055 2.36163 18.9894 2.12303L19.0094 2.10754C19.0126 2.08728 19.0166 2.07042 19.0211 2.05047L19.0262 2.06718C19.0308 2.02998 19.0277 1.98622 19.0048 1.95697C18.9489 1.88618 18.9955 1.85602 18.9592 1.78383C18.8785 1.6235 18.7458 1.50729 18.6455 1.36774L18.6395 1.3592C18.8826 1.45956 19.0193 1.81204 19.0645 1.83363C19.0573 1.79339 19.046 1.78048 19.0244 1.74449L19.0262 1.71358Z" fill="#5195F4"/>
<path d="M19.2975 1.78605C19.2977 1.67345 19.1891 1.45318 19.0955 1.3863L19.1031 1.36449C19.0497 1.29899 18.9627 1.17891 18.9059 1.12207C18.7668 0.982572 18.5242 0.875491 18.3473 0.788567C18.2598 0.745498 17.9572 0.689373 17.9297 0.649737C18.0164 0.622631 18.1793 0.710329 18.2805 0.707855C18.3099 0.707137 18.3563 0.715353 18.3958 0.716186C18.4894 0.743754 18.6676 0.855013 18.734 0.868618L18.7394 0.862753C18.692 0.823382 18.5752 0.754617 18.5668 0.719571C18.6799 0.777274 18.7973 0.867707 18.8943 0.950296C19.2586 1.25451 19.5283 1.65585 19.672 2.10731C19.6826 2.14039 19.7033 2.20448 19.7071 2.2376L19.6937 2.24926C19.6644 2.20397 19.6658 2.12144 19.6294 2.11215C19.6241 2.15268 19.6305 2.15431 19.6091 2.18176C19.4219 2.20764 19.5495 2.50657 19.4787 2.59737C19.4616 2.55101 19.4485 2.42524 19.4422 2.37213C19.4134 2.13138 19.4031 2.00798 19.2975 1.78605Z" fill="#CFE3FE"/>
<path d="M18.641 1.35989C18.6 1.32307 18.5548 1.2914 18.5477 1.2369C18.5659 1.24106 18.5823 1.24506 18.6007 1.24825L18.5984 1.23471C18.5498 1.21245 18.3662 1.07988 18.3633 1.02734C18.3716 1.03037 18.5338 1.12364 18.552 1.1349C18.5989 1.16371 18.6835 1.24575 18.7323 1.27532C18.7824 1.30578 19.0209 1.71042 19.0277 1.71427L19.0259 1.74518C19.0475 1.78117 19.0587 1.79408 19.0659 1.83432C19.0207 1.81273 18.8841 1.46025 18.641 1.35989Z" fill="#5195F4"/>
<path d="M0.311779 7.62955C0.315004 7.56716 0.338871 7.46922 0.360986 7.41107C0.503806 7.03557 0.726661 6.85193 1.07393 6.68359L1.07475 6.70234C1.00217 6.74801 0.8689 6.81121 0.813657 6.85903L0.814004 6.87339C0.919001 6.89033 0.955358 6.8858 0.943254 7.01132C0.935544 7.09131 0.932187 7.11679 0.863343 7.16555C0.768686 7.2326 0.780345 7.24596 0.749782 7.33987C0.732886 7.39179 0.645527 7.47946 0.629154 7.53962C0.605673 7.59517 0.585401 7.69202 0.559184 7.74305C0.520781 7.66117 0.607795 7.5537 0.60865 7.49064C0.582686 7.534 0.551994 7.58278 0.526945 7.62571C0.472529 7.71896 0.466153 7.71346 0.367299 7.74587C0.335251 7.72577 0.33884 7.67278 0.336049 7.63513C0.318614 7.65671 0.323617 7.67474 0.323051 7.70758L0.315999 7.71506C0.302058 7.83708 0.29688 7.9347 0.327584 8.05609C0.332584 8.02346 0.32998 7.99861 0.348155 7.97857C0.44001 8.05585 0.344789 8.26558 0.409243 8.37579C0.421123 8.38278 0.431909 8.38907 0.444049 8.39569C0.440198 8.46234 0.44773 8.4181 0.463464 8.46931L0.450546 8.48841C0.304599 8.2272 0.255479 7.92319 0.311779 7.62955Z" fill="#CFE3FE"/>
<path d="M4.694 0.890625L4.70968 0.905576C4.72373 0.893082 4.51835 1.01082 4.52948 1.00604C4.32345 1.09455 4.21331 1.24854 4.07005 1.41176C4.0366 1.44941 4.02285 1.51208 3.98773 1.5629L3.98929 1.58191L4.00386 1.57619C4.1003 1.30865 4.41311 1.29929 4.27031 1.60437C4.29247 1.62767 4.28626 1.61448 4.29201 1.64399L4.30822 1.64372C4.30311 1.68405 4.22288 1.82823 4.20033 1.88031L4.18992 1.86505L4.15538 1.88637C4.14274 1.87112 4.14869 1.87588 4.13787 1.86969C4.11688 1.91648 4.09224 1.98054 4.06126 2.01918C3.95601 2.00601 3.97349 1.67439 3.97582 1.59677C3.93167 1.6412 3.8697 1.98518 3.87146 1.98293C3.87058 1.95274 3.86915 1.92257 3.86719 1.89244C3.86906 1.8256 3.89824 1.72365 3.92235 1.66119C4.07099 1.27607 4.33038 1.05997 4.694 0.890625Z" fill="#CFE3FE"/>
<path d="M19.4497 4.2076C19.4385 4.12647 19.6116 3.86748 19.5966 3.80338C19.5671 3.77461 19.5466 3.76546 19.5666 3.72642C19.5865 3.73667 19.5938 3.74061 19.6149 3.74773C19.6198 3.69929 19.5806 3.70314 19.5857 3.64521C19.6021 3.64076 19.6661 3.62263 19.6717 3.60563C19.7765 3.28316 19.7706 2.94159 19.7546 2.60748C19.7612 2.5977 19.7676 2.58791 19.7742 2.57812C19.8066 3.06797 19.7857 3.41222 19.604 3.8755C19.5668 3.97042 19.5037 4.12742 19.4497 4.2076Z" fill="#CFE3FE"/>
<path d="M12.1592 2.60279C12.2876 2.71563 12.0318 2.8518 11.9559 2.85654C11.9008 2.82299 11.787 2.83398 11.7381 2.81217C11.542 2.72055 11.3348 2.63401 11.1433 2.53313C10.8049 2.35482 10.4674 2.17485 10.1261 2.00189C9.9477 1.91147 9.77079 1.79123 9.59083 1.70609C9.36333 1.59846 9.14055 1.50195 8.92466 1.3705C8.81965 1.3122 8.68529 1.27252 8.58333 1.21194C8.2934 1.03969 7.99665 0.896989 7.69764 0.741963C7.45525 0.616297 7.23436 0.459839 7.03329 0.275134C7.03243 0.274342 6.96669 0.286969 6.91113 0.245797C6.89923 0.249297 6.88892 0.252154 6.87702 0.255261C6.84573 0.242904 6.84733 0.244703 6.82812 0.217332L6.83597 0.196623C6.88189 0.15585 7.03244 0.103748 7.08462 0.120357C7.22693 0.165665 7.64067 0.252097 7.73922 0.327515C7.90322 0.361025 8.23777 0.495058 8.35986 0.60854C8.52712 0.763978 8.88407 0.795174 9.01014 0.946033C9.08615 1.037 9.39143 1.14067 9.50814 1.20055C9.60121 1.24829 9.68343 1.31606 9.77604 1.3658C9.84822 1.40456 9.92255 1.4509 9.99794 1.48173C10.1114 1.52815 10.2205 1.56778 10.3313 1.623C10.4763 1.69532 10.609 1.78854 10.7536 1.86094C11.0878 2.02832 11.4147 2.20206 11.7439 2.37834C11.8764 2.44924 12.0382 2.51537 12.1592 2.60279Z" fill="#5195F4"/>
<path d="M12.1592 2.60361L12.141 2.62363C12.0683 2.62039 11.3542 2.23794 11.2365 2.17772C10.2169 1.66432 9.20399 1.13791 8.19793 0.598644C8.07675 0.532267 7.76904 0.416043 7.67578 0.342944L7.67596 0.326451L7.69168 0.316406C7.71219 0.328389 7.71541 0.330208 7.73918 0.328336C7.90318 0.361845 8.23773 0.495879 8.35982 0.609361C8.52708 0.764799 8.88403 0.795995 9.0101 0.946853C9.08611 1.03782 9.39138 1.14149 9.5081 1.20137C9.60117 1.24911 9.68339 1.31688 9.776 1.36662C9.84817 1.40538 9.92251 1.45172 9.9979 1.48255C10.1114 1.52897 10.2205 1.5686 10.3312 1.62382C10.4763 1.69614 10.609 1.78936 10.7536 1.86176C11.0877 2.02914 11.4146 2.20288 11.7439 2.37916C11.8763 2.45006 12.0381 2.51619 12.1592 2.60361Z" fill="#CFE3FE"/>
<path d="M6.71557 3.96411C6.67265 3.9377 6.5433 3.78997 6.48286 3.73956C6.18848 3.49106 5.90516 3.23061 5.61268 2.97969C5.42761 2.8209 5.28086 2.63655 5.07717 2.4871C4.9443 2.38962 4.98393 2.06792 5.26387 2.14448L5.2605 2.14449L5.27211 2.14845C5.39228 2.19084 5.4065 2.21521 5.42858 2.33517C5.56014 2.48052 5.89627 2.76226 6.05888 2.91003L7.50507 4.21194C7.75029 4.43076 8.0119 4.6446 8.22438 4.89332C8.3281 5.01474 8.47913 5.31403 8.33873 5.4484C8.24146 5.5415 8.09304 5.39506 8.04363 5.31362C8.02414 5.28151 7.94433 5.13357 7.92704 5.12645L7.91152 5.14118C7.87961 5.10152 7.92971 5.04162 7.82381 5.04546L7.81624 5.03647C7.83646 5.02828 7.83429 5.02984 7.85614 5.02614L7.85803 5.0156C7.71972 5.01152 7.7308 4.9017 7.65881 4.84353C7.48108 4.69993 7.31411 4.4904 7.13994 4.34944L7.11883 4.3325C7.02162 4.26667 6.9738 4.18786 6.88429 4.10861C6.82843 4.05916 6.77295 4.01166 6.71557 3.96411Z" fill="#5195F4"/>
<path d="M7.14179 4.35069C7.13401 4.30924 7.12961 4.29847 7.1356 4.25781C7.22504 4.29633 7.81807 4.90333 7.83519 4.97129L7.86116 4.98587C7.8668 5.00821 7.86802 4.99795 7.85987 5.01684C7.72156 5.01276 7.73264 4.90294 7.66065 4.84477C7.48293 4.70117 7.31595 4.49164 7.14179 4.35069Z" fill="#CFE3FE"/>
<path d="M6.71668 3.9628L6.71484 3.91409C6.77794 3.91067 7.12615 4.2137 7.1192 4.30783C7.11945 4.31561 7.1197 4.3234 7.11994 4.33119C7.02273 4.26536 6.97491 4.18655 6.8854 4.1073C6.82954 4.05784 6.77405 4.01035 6.71668 3.9628Z" fill="#CFE3FE"/>
<path d="M1.47699 7.92606C1.54254 7.92283 1.59473 7.94833 1.65721 7.95893C1.767 7.97754 1.7656 8.1066 1.8223 8.15974C1.93902 8.26915 2.04108 8.38712 2.15129 8.50235L2.9171 9.29541C3.14321 9.52917 3.3654 9.7879 3.64409 9.96051C3.70392 9.99758 3.82586 10.0407 3.8562 10.1002C3.84081 10.1494 3.80409 10.161 3.75722 10.1858C3.71068 10.1966 3.6801 10.2115 3.6277 10.2214C3.52238 10.2412 3.19982 10.0977 3.1296 10.0316C2.85622 9.77972 2.6231 9.48481 2.3643 9.21953C2.11757 8.96663 1.86691 8.72446 1.63919 8.45208C1.56039 8.35783 1.40109 8.23311 1.36883 8.10903C1.35441 8.0536 1.4387 7.96342 1.47699 7.92606Z" fill="#5195F4"/>
<path d="M3.38672 6.16797C3.82918 6.22364 4.25719 6.5065 4.67438 6.65348C4.7098 6.66596 4.79502 6.69133 4.82139 6.71149C4.7751 6.70313 4.74948 6.69914 4.70431 6.6827L4.69546 6.67938L4.68824 6.69856C4.59009 6.82805 4.47564 6.82069 4.33966 6.75949C4.16857 6.68248 3.63636 6.4999 3.56596 6.33783C3.58068 6.30036 3.60447 6.27977 3.63201 6.24985L3.63162 6.2414C3.5831 6.23001 3.40762 6.19608 3.38672 6.16797Z" fill="#CFE3FE"/>
<path d="M6.93413 5.46875C6.9721 5.47769 6.96779 5.47892 6.98661 5.51004C6.99155 5.55361 6.97813 5.58353 6.96526 5.62595C6.89539 5.59234 6.91954 5.53079 6.93413 5.46875Z" fill="#CFE3FE"/>
<path d="M0.445444 14.7867C0.794492 14.6546 1.0456 14.6926 1.41243 14.6926L2.48293 14.693L5.72164 14.694L9.44955 14.6938L10.6779 14.6935C10.9315 14.6934 11.2666 14.6732 11.5111 14.7081C12.0541 14.7857 12.2865 15.3091 12.1012 15.7857C12.004 15.9781 11.8585 16.1095 11.6519 16.1787C11.433 16.2521 10.7561 16.2308 10.4897 16.2218C10.3754 16.231 10.1544 16.2238 10.0316 16.2237L9.16053 16.2232L6.31307 16.2229L2.42776 16.2226L1.42144 16.2244C1.1637 16.2246 0.83045 16.246 0.584894 16.1859C0.171723 16.0849 -0.049688 15.6549 0.0585471 15.2504C0.143057 15.0086 0.223401 14.9157 0.445444 14.7867Z" fill="#1F7FFA"/>
<path d="M10.4883 16.2213C10.7127 16.1562 10.8429 16.2227 11.0542 16.2015C11.189 16.188 11.3733 16.0834 11.5356 16.0949C11.6093 16.1001 11.8277 15.7909 11.9706 15.8166C11.9946 15.8209 12.0559 15.7874 12.0997 15.7852C12.0025 15.9776 11.8571 16.109 11.6505 16.1781C11.4316 16.2516 10.7547 16.2303 10.4883 16.2213Z" fill="#1F7FFA"/>
<path d="M8.49093 15.8817C8.84937 15.8251 9.13201 15.9171 9.48023 15.9173C9.9648 15.9175 10.4712 15.9126 10.9547 15.8761C11.0854 15.8663 11.2431 15.8692 11.3535 15.9557C11.3536 15.9559 11.5616 15.9566 11.5765 15.9566C11.4777 15.9857 10.8155 15.9702 10.6669 15.9689L9.7359 15.9678L5.73683 15.9684C4.93398 15.9676 4.10621 15.9747 3.30503 15.958C2.98514 15.9562 0.775461 15.9961 0.636719 15.9251L0.640933 15.9197C0.835875 15.9591 0.896067 15.928 1.08863 15.9259C1.19274 15.9281 1.29696 15.9389 1.40087 15.9443C1.74953 15.962 2.09089 15.9343 2.43811 15.9176C2.55014 15.914 2.67002 15.9501 2.78105 15.9462C3.13542 15.934 3.488 15.9455 3.84229 15.9462C3.9178 15.9463 3.99921 15.9323 4.07211 15.9349C4.29209 15.9412 4.517 15.9678 4.73719 15.9586C4.98498 15.9481 5.22303 15.9187 5.47209 15.9349C5.70717 15.9424 5.95092 15.9485 6.1854 15.9318C6.79637 15.8885 7.41409 15.9149 8.02682 15.91C8.0906 15.9095 8.45487 15.9032 8.49093 15.8817Z" fill="#1F7FFA"/>
<path d="M11.5232 15.0086C11.5305 15.0081 11.5378 15.0079 11.5451 15.0078C11.6233 15.007 11.688 15.0447 11.7418 15.0984C11.9078 15.2636 11.6189 15.4125 11.5119 15.2864L11.5492 15.2722L11.5682 15.2739C11.5582 15.2727 11.5483 15.2713 11.5385 15.2699C11.511 15.2655 11.4761 15.2624 11.4617 15.2431C11.5037 15.2384 11.5501 15.2446 11.5739 15.2248C11.5302 15.1993 11.5387 15.1776 11.5117 15.1395C11.5187 15.1494 11.5302 15.1062 11.5305 15.1038C11.4936 15.097 11.4551 15.0943 11.4258 15.0724L11.4286 15.0545C11.4665 15.0275 11.4788 15.0242 11.5232 15.0086Z" fill="#5195F4"/>
</g>
<defs>
<clipPath id="clip0_701_36577">
<rect width="22" height="18.8571" fill="white"/>
</clipPath>
</defs>
</svg>
