<svg width="24" height="18" viewBox="0 0 24 18" fill="none" xmlns="http://www.w3.org/2000/svg">
<path d="M11 9V7H15.792C15.828 7.02 15.867 7.056 15.885 7.096L16.731 9H11.001H11ZM21 9C21 10.103 21.897 11 23 11H24V15C24 16.654 22.654 18 21 18H3C1.346 18 0 16.654 0 15V3C0 1.346 1.346 0 3 0H21C22.654 0 24 1.346 24 3V7H23C21.897 7 21 7.897 21 9ZM6 14H4V16H6V14ZM6 10H4V12H6V10ZM6 6H4V8H6V6ZM6 2H4V4H6V2ZM19 9.783C19 9.383 18.918 8.994 18.756 8.632L17.712 6.283C17.419 5.626 16.802 5.14 16.102 5.015L11 4.999C9.897 4.999 9 5.896 9 6.999V11.999H10C10 12.551 10.448 12.999 11 12.999C11.552 12.999 12 12.551 12 11.999H16C16 12.551 16.448 12.999 17 12.999C17.552 12.999 18 12.551 18 11.999H19V9.782V9.783Z" fill="#1F7FFA"/>
</svg>
