<svg width="24" height="24" viewBox="0 0 24 24" fill="none" xmlns="http://www.w3.org/2000/svg">
<path d="M17.7967 2.00254L6.1508 2.03002C4.41264 1.94542 3.96697 3.2116 3.96697 3.83056C3.96697 4.38414 3.89152 5.19117 2.82621 6.70798C1.7609 8.22478 1.84095 8.67537 2.44168 9.72544C2.94025 10.5969 4.20838 10.9374 4.86959 10.9946C6.9698 11.0398 7.99163 9.32381 7.99163 8.1178C9.03349 11.1481 11.9966 11.1481 13.3168 10.8016C14.6396 10.4545 15.7727 9.2118 16.0401 8.1178C16.196 9.47735 16.6692 10.2707 18.0673 10.8158C19.5155 11.3805 20.7609 10.5174 21.3858 9.9642C22.0107 9.41096 22.4117 8.18278 21.2978 6.83288C20.5296 5.90195 20.2094 5.02494 20.1043 4.11599C20.0433 3.58931 19.9898 3.02336 19.5981 2.66323C19.0258 2.13691 18.2046 1.97722 17.7967 2.00254Z" stroke="#1F7FFA" stroke-width="1.5" stroke-linecap="round" stroke-linejoin="round"/>
<path d="M3 10.5V15C3 17.8284 3 19.2426 3.87868 20.1213C4.75736 21 6.17157 21 9 21H13" stroke="#1F7FFA" stroke-width="1.5" stroke-linecap="round"/>
<path d="M7 17H11" stroke="#1F7FFA" stroke-width="1.5" stroke-linecap="round"/>
<path d="M18.5 13.5C20.433 13.5 22 15.0376 22 16.9343C22 19.0798 19.8843 20.1346 18.875 21.7429C18.6599 22.0857 18.3556 22.0857 18.125 21.7429C17.0842 20.1957 15 19.0351 15 16.9343C15 15.0376 16.567 13.5 18.5 13.5Z" stroke="#1F7FFA" stroke-width="1.5" stroke-linejoin="round"/>
<path d="M18.6289 17H18.5039M18.7539 17C18.7539 17.1381 18.642 17.25 18.5039 17.25C18.3659 17.25 18.2539 17.1381 18.2539 17C18.2539 16.8619 18.3659 16.75 18.5039 16.75C18.642 16.75 18.7539 16.8619 18.7539 17Z" stroke="#1F7FFA" stroke-width="1.5" stroke-linecap="round" stroke-linejoin="round"/>
</svg>
