<svg width="24" height="24" viewBox="0 0 24 24" fill="none" xmlns="http://www.w3.org/2000/svg">
<g clip-path="url(#clip0_701_36568)">
<path d="M4.20286 7.55748C4.28714 7.28276 4.36117 6.98713 4.43964 6.70857L4.79432 5.475C4.94164 4.95316 5.10042 4.27101 5.3759 3.81615C5.57761 3.47806 5.8686 3.20075 6.21763 3.01403C6.96921 2.61568 7.92925 2.64783 8.76019 2.64655L10.2817 2.6426L12.4677 2.64351C13.8589 2.64449 15.6347 2.46243 16.39 3.92042C16.6038 4.33296 16.7108 4.78851 16.8382 5.2326C17.0248 5.86849 17.2079 6.50535 17.3877 7.14316L17.5702 7.80589C17.5924 7.88646 17.6287 8.03969 17.654 8.11215C17.6969 8.2697 17.7587 8.46972 17.8309 8.61482C17.8926 8.73866 18.1515 8.82293 18.2703 8.88442C18.2946 8.881 18.2894 8.88045 18.3126 8.86845C18.3684 8.89029 18.488 8.94585 18.4972 9.00972C18.5232 9.03412 18.6052 9.09519 18.6377 9.10286C19.725 9.8727 19.9747 11.0017 19.9443 12.2574C19.9393 12.4617 19.9528 12.6762 19.9433 12.8805C20.2652 12.9864 20.5564 13.1107 20.8485 13.2831C20.8864 13.3054 20.9711 13.3475 20.9932 13.3772C21.6015 13.7494 22.2046 14.4465 22.5134 15.0827C22.5668 15.1688 22.6481 15.3785 22.6859 15.476C22.9932 16.2682 23.0543 17.2163 22.8589 18.0414C22.5976 19.1448 21.8755 20.1635 20.8946 20.7581C19.8757 21.3746 18.6518 21.567 17.49 21.2937C16.3522 21.0258 15.3692 20.3203 14.7584 19.3333C14.3402 18.6512 14.0943 17.8322 14.107 17.0319C13.4534 17.0854 12.8865 16.9558 12.8821 16.1955C12.8786 15.9508 12.94 15.5417 12.7464 15.3584C12.539 15.1623 12.0904 15.2203 11.8087 15.2205L10.5357 15.2211L8.34025 15.2207C7.94504 15.2204 7.54801 15.2183 7.15275 15.2213C6.96756 15.2228 6.8625 15.2686 6.7364 15.4015C6.58001 15.6511 6.66289 15.7867 6.63709 16.0372C6.64009 16.2333 6.64107 16.4295 6.64002 16.6257C6.64207 16.7887 6.64401 16.9523 6.6135 17.1136C6.52971 17.5567 6.20589 17.842 5.75422 17.89C5.38123 17.9262 4.99135 17.924 4.61529 17.9176C4.10807 17.9087 3.56176 17.9517 3.0636 17.8674C2.32436 17.7423 1.8969 17.1153 1.7989 16.4181C1.75464 16.1033 1.76339 15.791 1.76326 15.4729L1.76341 14.3118L1.76285 12.6793C1.76286 12.0969 1.74461 11.646 1.85431 11.068C1.99709 10.3156 2.40073 9.57469 3.0532 9.13909C3.08345 9.13134 3.16419 9.06335 3.19458 9.03986C3.28495 8.97601 3.38907 8.92159 3.48651 8.86817C3.55744 8.82809 3.70851 8.77078 3.78674 8.74013C3.90325 8.61237 3.98915 8.3135 4.03481 8.14318C4.07384 8.07096 4.18109 7.65611 4.20286 7.55748Z" fill="#5195F4"/>
<path d="M3.38325 16.6743C3.36213 16.6147 3.26808 16.5191 3.23103 16.4569C3.13508 16.2961 3.12122 16.1637 3.11948 15.9799C3.11738 15.76 3.11729 15.5381 3.11719 15.3172L3.12234 13.3122C3.12296 12.9033 3.11681 12.4947 3.12436 12.0858C3.1264 11.975 3.11824 11.8613 3.12562 11.7509C3.12901 11.7003 3.15832 11.513 3.16905 11.462C3.17313 11.4426 3.27003 11.1355 3.27467 11.1277C3.31265 11.0637 3.33629 10.9923 3.37024 10.9261C3.63902 10.4025 4.10876 10.1405 4.6575 9.97898C4.72796 9.95824 4.80976 9.97112 4.87818 9.94636C5.00676 9.89981 5.74877 9.90251 5.94056 9.90036C6.92862 9.89316 7.91673 9.89263 8.90481 9.89876L13.9288 9.90002C14.7642 9.90021 15.6011 9.88968 16.436 9.90973C16.583 9.91325 16.719 9.93097 16.8658 9.94132L16.8607 9.95025C16.8158 9.9631 16.7662 9.95195 16.7318 9.97253C16.7008 9.991 16.691 9.98413 16.6572 9.98058L16.6703 10.0091C16.6435 10.014 16.629 10.0137 16.6019 10.0148C16.7876 10.025 17.0957 10.0455 17.2633 10.1352C17.3843 10.1821 17.4371 10.1937 17.535 10.2811C17.562 10.2935 17.632 10.3318 17.6464 10.3568C17.8211 10.4656 17.9476 10.5743 18.072 10.7386C18.2478 10.8797 18.2511 11.0287 18.3449 11.1832C18.4943 11.6088 18.3949 11.9556 18.3939 12.3878C18.3937 12.4724 18.3889 12.5638 18.3868 12.6482C18.4309 12.6512 18.4109 12.6442 18.4476 12.673C18.3311 12.647 18.2521 12.7006 18.154 12.7011C17.8595 12.7025 17.6086 12.79 17.3337 12.8608C16.9495 12.9597 16.6197 13.0982 16.2832 13.3086C16.1471 13.3939 16.0122 13.4928 15.8761 13.5788C15.8435 13.599 15.8289 13.6681 15.7785 13.7042L15.768 13.6856C15.7338 13.6944 15.637 13.7839 15.6044 13.8116C15.5299 13.8869 15.4809 13.9318 15.4004 13.9996C15.3891 14.0452 15.2757 14.1254 15.2403 14.1669C14.6005 14.9156 14.1732 15.8581 14.1241 16.8436C14.121 16.9059 14.1191 16.9678 14.1088 17.0307C13.4552 17.0842 12.8883 16.9546 12.8839 16.1944C12.8804 15.9497 12.9418 15.5406 12.7481 15.3573C12.5408 15.1612 12.0922 15.2191 11.8105 15.2193L10.5375 15.22L8.34204 15.2195C7.94683 15.2192 7.5498 15.2172 7.15454 15.2202C6.96935 15.2217 6.86429 15.2675 6.73819 15.4004C6.5818 15.6499 6.66468 15.7856 6.63887 16.036C6.64188 16.2321 6.64286 16.4284 6.64181 16.6246C6.59093 16.7001 6.62927 16.925 6.60409 17.0228C6.57651 17.1298 6.59979 17.0749 6.5337 17.0952C6.50007 17.0247 6.5837 16.217 6.52 16.0895C6.5153 16.1568 6.5107 16.2969 6.50027 16.3582L6.49059 16.3524C6.48955 16.2593 6.48856 16.0597 6.5077 15.973C6.50656 15.8798 6.48716 15.7416 6.48773 15.6425C6.48801 15.5938 6.40663 15.4393 6.44526 15.3734C6.45605 15.355 6.45511 15.3458 6.45325 15.3289C6.36415 15.4183 6.32139 15.5305 6.30142 15.6527C6.38656 15.8108 6.31036 16.2594 6.28296 16.439L6.25833 16.365L6.24731 16.3682C6.23799 16.3914 6.22817 16.4077 6.22761 16.4314C6.21618 16.4549 6.21173 16.4695 6.1947 16.489C6.13066 16.66 6.14256 16.7716 5.98846 16.9064L5.96849 16.8947L5.97183 16.869C5.94741 16.8583 5.84462 16.8832 5.77921 16.8794L5.78618 16.8744L5.77952 16.8642C5.75487 16.8619 5.75258 16.8612 5.72882 16.8539L5.72258 16.8343L5.69787 16.8278C5.45821 16.8866 4.9787 16.8457 4.71591 16.8544C4.39224 16.8651 4.02714 16.8578 3.7055 16.8248C3.60179 16.8142 3.4626 16.7429 3.38325 16.6743Z" fill="#5195F4"/>
<g opacity="0.35" filter="url(#filter0_f_701_36568)">
<path d="M18.3845 12.6478C18.3484 12.6482 18.3409 12.6489 18.3061 12.6414C18.2869 12.6167 18.2936 12.5893 18.2928 12.5521L18.2952 12.5567C18.2961 12.5131 18.301 12.3715 18.2966 12.3313C18.2591 12.0259 18.261 11.5677 18.0276 11.3402C17.9748 11.2888 17.7519 11.1315 17.6906 11.0833C17.5739 10.9918 17.2582 11.0593 17.134 11.1075C17.0831 11.1273 16.9495 11.1556 16.8832 11.1433C16.7134 11.0379 16.5659 10.9592 16.3752 10.8964C16.1635 10.8266 16.0619 10.9278 15.8686 10.9225C15.7019 10.9179 15.5155 10.8843 15.3462 10.8785C15.3042 10.8771 15.262 10.8589 15.2216 10.8511C15.1785 10.8521 15.1074 10.8557 15.0621 10.8578C15.0208 10.8308 15.0632 10.8308 15.0214 10.7825C15.0071 10.8079 15.0111 10.8033 15.0098 10.8347C14.9756 10.8617 14.9733 10.8624 14.9316 10.8773C14.8895 10.8682 14.8726 10.8356 14.8423 10.8126C14.7972 10.7784 14.7168 10.8327 14.648 10.8439L14.6119 10.7962C14.5062 10.7966 14.3797 10.8474 14.2871 10.8584C13.9808 10.8945 13.7848 10.8708 13.5088 11.0397C13.4776 11.0588 13.3735 11.1096 13.3512 11.1356C13.2712 11.2287 13.1015 11.4675 13.0042 11.5277C12.9082 11.587 12.6122 11.5133 12.5188 11.5276C12.473 11.5346 12.2527 11.617 12.2165 11.6602C12.1739 11.711 12.1387 11.8009 12.0718 11.8308C11.8956 11.9086 11.6642 11.9106 11.499 12.0074C11.2949 12.1269 11.1264 12.0026 10.9428 11.9348C10.911 11.9231 10.7488 11.9128 10.6864 11.895C10.5963 11.8694 10.3308 11.9738 10.2105 11.9556C10.1119 11.946 10.0221 11.8737 9.96348 11.864C9.86037 11.8469 9.66572 11.8614 9.56068 11.8295C9.44675 11.792 9.37298 11.648 9.26566 11.6063C9.21218 11.5855 9.0442 11.5041 8.99412 11.5347C8.97337 11.5416 8.95262 11.5486 8.93188 11.5555C8.8087 11.4891 8.71253 11.3275 8.61204 11.2394C8.5452 11.1808 8.34996 11.2051 8.33914 11.0769C8.33899 11.0362 8.27275 11.0737 8.26746 11.0571C8.23735 10.9622 8.13848 10.8653 8.02882 10.9048C7.92569 10.9419 7.75755 10.8404 7.6542 10.8117C7.65409 10.8117 7.63972 10.776 7.6383 10.7727C7.60981 10.7412 7.57281 10.7366 7.53622 10.7179C7.52378 10.719 7.50857 10.7207 7.49788 10.7265C7.37484 10.784 7.20939 10.6824 7.07806 10.6819C6.92446 10.6813 6.77991 10.6566 6.62848 10.6459C6.58345 10.6428 6.52064 10.6635 6.46305 10.6617L6.44938 10.6389C6.44284 10.6356 6.43629 10.6324 6.42975 10.6291C6.33724 10.6464 5.65817 10.7637 5.6096 10.7169C5.60932 10.688 5.60956 10.6811 5.60432 10.6516C5.5759 10.6488 5.58973 10.6468 5.56213 10.6611L5.55281 10.7075L5.53787 10.7123C5.52162 10.6903 5.52035 10.688 5.49983 10.6701C5.47542 10.6956 5.46262 10.7188 5.43337 10.7232L5.40256 10.684C5.36289 10.6725 5.33595 10.7022 5.30445 10.7048C5.26818 10.7079 5.18167 10.6728 5.14561 10.6778C5.11371 10.6823 5.07715 10.6985 5.03678 10.7016C4.82217 10.7179 4.59876 10.7531 4.38411 10.7426C4.35362 10.7412 4.30006 10.6858 4.28125 10.6597C4.28359 10.6227 4.35039 10.4243 4.37669 10.3952C4.42938 10.337 4.5358 10.3188 4.61091 10.289C4.93815 10.1595 5.26562 10.1926 5.60331 10.1788C5.70747 10.1746 6.38762 10.184 6.42895 10.1636C6.51893 10.1867 6.58154 10.1636 6.66595 10.1703C6.87942 10.187 7.10655 10.1446 7.31296 10.1453C7.77191 10.1469 8.2304 10.1519 8.68923 10.1352C8.91147 10.1271 9.13305 10.1461 9.35192 10.1418C10.4527 10.1167 11.5539 10.1103 12.6549 10.1226C12.9503 10.1235 13.2677 10.1481 13.5604 10.1382C14.1145 10.1194 14.6591 10.1059 15.2139 10.1226C15.3587 10.127 15.5251 10.0927 15.6703 10.0938C16.0714 10.0969 16.4719 10.1032 16.8728 10.1055C17.045 10.1075 17.3806 10.21 17.5327 10.2806C17.5598 10.2931 17.6297 10.3313 17.6441 10.3563C17.8189 10.4651 17.9453 10.5739 18.0697 10.7382C18.2455 10.8792 18.2488 11.0283 18.3426 11.1828C18.492 11.6084 18.3926 11.9552 18.3916 12.3874C18.3914 12.4719 18.3866 12.5634 18.3845 12.6478Z" fill="#CFE3FE"/>
</g>
<path d="M17.6454 10.3555C17.8202 10.4643 17.9466 10.573 18.071 10.7373C18.0977 10.7868 18.1467 10.846 18.1732 10.8993C18.2747 11.1044 18.3718 11.2944 18.3321 11.5242L18.3257 11.5243C18.3131 11.3766 18.3154 11.3066 18.2239 11.1786L18.2141 11.1886L18.2122 11.1788C18.2106 11.2325 18.3067 11.5096 18.2908 11.5481C18.2682 11.5011 18.2262 11.3655 18.21 11.309C18.1524 11.1094 18.0577 10.9252 17.9254 10.7623C17.8706 10.6954 17.8103 10.6331 17.7452 10.576C17.7132 10.5477 17.6471 10.4986 17.625 10.4716C17.7419 10.5257 17.8265 10.6301 17.9236 10.7188L17.9063 10.657C17.9233 10.6512 17.9403 10.6454 17.9571 10.6395C17.9451 10.5609 17.6731 10.4232 17.6454 10.3555Z" fill="#F3F8FF"/>
<path d="M6.30078 15.6518C6.3055 15.4576 6.40195 15.3442 6.53744 15.2129L6.52177 15.2044L6.50016 15.2222C6.49715 15.1939 6.51697 15.1637 6.5353 15.1416C6.59809 15.066 7.40215 15.0175 7.55936 15.0093C7.72127 15.0009 7.88175 15.0096 8.04348 15.0061C8.13813 15.004 8.23252 14.9941 8.32714 14.9927C8.83947 14.9847 9.35353 14.9911 9.86608 14.9913L11.119 14.9908C11.3388 14.9908 11.5614 14.984 11.7809 14.9929C11.9835 15.0013 12.4795 15.016 12.6506 15.0934L12.6625 15.0901L12.6223 15.0385L12.6286 15.0289C12.7166 15.0443 12.9584 15.2702 13.0254 15.3353C13.0312 15.2555 12.9767 15.1905 12.9256 15.132C12.9185 15.1238 12.9113 15.1158 12.904 15.1077L12.9061 15.1015C13.0639 15.1918 13.0435 15.3437 13.0534 15.4964C13.0568 15.546 13.0738 15.6152 13.085 15.6644L13.0725 15.6686C13.0483 15.576 13.0343 15.5385 12.9813 15.4579C12.9682 15.438 12.9539 15.4241 12.9603 15.4093L13.0027 15.4391C13.0067 15.4191 12.9935 15.3966 12.9806 15.3806C12.8519 15.2217 12.7175 15.1233 12.5141 15.0954C12.1151 15.0406 11.7589 15.0322 11.3607 15.0318L10.365 15.0332C9.19879 15.0334 7.99949 14.9976 6.838 15.1102C6.78525 15.1153 6.64787 15.2202 6.60143 15.2553C6.5969 15.302 6.61498 15.4625 6.61063 15.4735C6.56926 15.5776 6.54609 15.6265 6.54478 15.7454C6.54431 15.7883 6.54709 15.985 6.53776 16.0091C6.52804 15.9839 6.52771 15.9801 6.52327 15.9531L6.51188 15.9572L6.50706 15.9721C6.50592 15.8789 6.48652 15.7407 6.48709 15.6416C6.48737 15.5929 6.40599 15.4384 6.44462 15.3725C6.45542 15.3541 6.45447 15.3449 6.45261 15.328C6.36352 15.4174 6.32075 15.5296 6.30078 15.6518Z" fill="#1F7FFA"/>
<path d="M6.72656 15.3795C6.80669 15.2675 7.02661 15.1818 7.15592 15.1738C7.49351 15.1529 7.8805 15.1724 8.21864 15.1708L11.538 15.1713L11.5474 15.1804C11.5125 15.2006 11.421 15.1747 11.4055 15.1882C11.7494 15.2133 12.1459 15.1714 12.4929 15.2024C12.5643 15.2088 12.7396 15.3012 12.7845 15.3577C12.9811 15.5986 12.8652 15.8648 12.9205 16.1474L12.9117 16.1533L12.8975 16.1338L12.8826 16.1928C12.879 15.9481 12.9405 15.539 12.7468 15.3557C12.5395 15.1596 12.0909 15.2175 11.8091 15.2177L10.5361 15.2184L8.34069 15.218C7.94549 15.2176 7.54846 15.2156 7.1532 15.2186C6.968 15.2201 6.86294 15.2659 6.73684 15.3988L6.72656 15.3795Z" fill="#1F7FFA"/>
<path d="M13.0703 15.6683L13.0829 15.6641C13.1061 15.7934 13.0777 16.3747 13.1628 16.4412C13.256 16.514 13.4928 16.6891 13.6099 16.7304C13.6248 16.7358 13.7763 16.691 13.828 16.709L13.8334 16.7258C13.818 16.7464 13.81 16.7544 13.781 16.7569C12.9288 16.8342 13.1357 16.2071 13.0703 15.6683Z" fill="#1F7FFA"/>
<path d="M5.69531 16.8271C5.76765 16.7997 5.84208 16.7769 5.9116 16.7428C5.93615 16.7307 5.94093 16.697 5.94645 16.6735C5.97984 16.6497 6.18209 16.4898 6.19214 16.4883C6.1281 16.6592 6.14001 16.7708 5.9859 16.9056L5.96593 16.8939L5.96927 16.8682C5.94485 16.8576 5.84206 16.8824 5.77665 16.8786L5.78362 16.8736L5.77696 16.8634C5.75231 16.8612 5.75002 16.8604 5.72626 16.8531L5.72002 16.8335L5.69531 16.8271Z" fill="#5195F4"/>
<path d="M6.63701 16.0339L6.62716 16.0195C6.60348 15.7892 6.61013 15.7196 6.65396 15.4944C6.6396 15.4884 6.63357 15.4855 6.62005 15.4786C6.60709 15.4484 6.61298 15.3952 6.63565 15.3711C6.66208 15.3787 6.67721 15.3915 6.69978 15.4069L6.72605 15.379L6.73633 15.3982C6.57994 15.6478 6.66282 15.7834 6.63701 16.0339Z" fill="#5195F4"/>
<path d="M15.3988 13.9978C15.3741 14.0105 15.3225 14.0686 15.2916 14.0942L15.2751 14.092L15.2695 14.0734C15.3223 14.0116 15.4988 13.828 15.5633 13.7891L15.6028 13.8099C15.5283 13.8852 15.4792 13.93 15.3988 13.9978Z" fill="#1F7FFA"/>
<path d="M13.4368 12.0669C13.4387 11.8699 13.4628 11.7048 13.6149 11.5598C13.6986 11.4811 13.8042 11.429 13.9182 11.4102C14.0039 11.396 14.1657 11.3992 14.2574 11.3991L14.7961 11.3988C15.3213 11.3986 15.8465 11.3975 16.3719 11.4002C16.5683 11.4013 16.7148 11.4468 16.8525 11.5892C17.0008 11.7425 17.0475 12.0076 16.9695 12.2041C16.942 12.2902 16.9143 12.3062 16.8727 12.3802C16.8641 12.454 16.7979 12.4947 16.7382 12.5446C16.6907 12.6139 16.5165 12.8068 16.4395 12.8245C16.1592 12.8891 15.8611 12.8741 15.5742 12.8743C15.2769 12.8772 14.9797 12.8759 14.6826 12.8702C14.4311 12.8657 14.1696 12.8738 13.9204 12.854C13.7026 12.8266 13.3833 12.7977 13.2905 12.5604C13.2303 12.4068 13.2419 12.0228 13.4219 11.9592C13.4259 11.9963 13.4309 12.03 13.4368 12.0669Z" fill="#F3F8FF"/>
<path d="M16.7382 12.5464C16.6907 12.6156 16.5165 12.8086 16.4395 12.8263C16.1592 12.8908 15.8611 12.8759 15.5742 12.876C15.2769 12.879 14.9797 12.8776 14.6826 12.8719C14.4311 12.8674 14.1696 12.8756 13.9204 12.8558C13.7026 12.8284 13.3833 12.7995 13.2905 12.5622C13.2303 12.4085 13.2419 12.0246 13.4219 11.9609C13.4259 11.9981 13.4309 12.0317 13.4368 12.0686C13.4515 12.1485 13.4724 12.253 13.5277 12.3178C13.6986 12.6521 14.1645 12.5758 14.4736 12.5826C14.5791 12.5849 14.688 12.5772 14.793 12.5841C14.902 12.5764 15.1012 12.5819 15.2171 12.5814L16.056 12.5795C16.4141 12.5797 16.5926 12.6318 16.8727 12.382C16.8641 12.4557 16.7979 12.4965 16.7382 12.5464Z" fill="#5195F4"/>
<path d="M14.7947 12.585C14.9038 12.5772 15.1029 12.5827 15.2188 12.5823L16.0577 12.5803C16.4158 12.5805 16.5944 12.6326 16.8744 12.3828C16.8658 12.4566 16.7997 12.4973 16.7399 12.5472C16.6264 12.5896 16.2216 12.7794 16.1417 12.6702L16.2433 12.6434L16.1579 12.6425L16.1512 12.6354L16.1599 12.617C16.0603 12.5654 15.481 12.6318 15.3323 12.6108C15.2092 12.5934 14.7961 12.637 14.6914 12.5979C14.7299 12.5913 14.7559 12.5877 14.7947 12.585Z" fill="#1F7FFA"/>
<path d="M16.9691 12.207C16.9416 12.2931 16.9139 12.3092 16.8724 12.3832C16.5923 12.633 16.4138 12.5809 16.0556 12.5807L15.2168 12.5826C15.1009 12.583 14.9017 12.5776 14.7927 12.5853C14.6877 12.5784 14.5788 12.5861 14.4733 12.5838C14.1641 12.577 13.6983 12.6533 13.5273 12.319C13.582 12.3409 13.7385 12.5331 13.7968 12.5117C14.0725 12.4105 14.2357 12.4177 14.5229 12.455C14.6344 12.4695 14.8574 12.4277 14.9781 12.4232C15.0467 12.4206 15.1252 12.431 15.1968 12.4297L15.812 12.4133C16.2225 12.4045 16.4877 12.5233 16.8451 12.2595C16.9041 12.26 16.8394 12.2736 16.8996 12.2983C16.9236 12.2588 16.9356 12.2388 16.9691 12.207Z" fill="#E6F0FE"/>
<path d="M4.62656 12.2865C4.49577 11.9772 4.57332 11.5902 4.90774 11.4509C4.97023 11.4244 5.0369 11.4087 5.10479 11.4046C5.24877 11.3947 5.43602 11.3997 5.5828 11.3998L6.37122 11.4006L7.13015 11.3999C7.27784 11.3997 7.45502 11.3954 7.60026 11.4052C7.66085 11.4092 7.72037 11.4231 7.77639 11.4463C8.09539 11.5751 8.21097 11.9296 8.0873 12.2412C8.05716 12.3171 7.97185 12.431 7.89636 12.4665C7.76721 12.6131 7.32847 12.5801 7.14509 12.5801L6.36003 12.5807L5.56927 12.5823C5.19352 12.5831 4.85052 12.6467 4.62656 12.2865Z" fill="#F3F8FF"/>
<path d="M4.62891 12.2852C4.73051 12.353 4.87283 12.5569 5.01507 12.5288C5.15493 12.5011 5.36539 12.5408 5.4872 12.5179C5.7115 12.4757 5.98354 12.5502 6.18505 12.5421C6.50813 12.5291 7.26519 12.5875 7.53065 12.4835L7.54102 12.4701L7.52549 12.4625C7.50551 12.4715 7.51105 12.4681 7.49322 12.4819L7.48262 12.4686L7.48937 12.4543C7.54236 12.4401 7.66451 12.4523 7.7192 12.4651L7.71538 12.4765C7.66635 12.4835 7.62922 12.488 7.57928 12.4914C7.65758 12.4979 7.73249 12.5464 7.79628 12.5001C7.81079 12.4896 7.88189 12.4665 7.89871 12.4652C7.76956 12.6118 7.33081 12.5788 7.14743 12.5788L6.36237 12.5793L5.57162 12.5809C5.19587 12.5818 4.85287 12.6453 4.62891 12.2852Z" fill="#E6F0FE"/>
<path d="M3.66313 10.6797L3.67579 10.6951C3.66939 10.7031 3.66299 10.711 3.65658 10.719C3.68372 10.7194 3.68041 10.7173 3.7054 10.7058L3.71841 10.7178C3.71688 10.7611 3.70979 10.7749 3.69561 10.8169L3.69966 10.8119C3.68386 10.9082 3.48834 11.1375 3.4108 11.2086C3.38808 11.2444 3.37607 11.2745 3.33857 11.2833L3.33203 11.2655C3.36565 11.1008 3.55032 10.8067 3.66313 10.6797Z" fill="#CFE3FE"/>
<path d="M5.92626 15.7305L5.95594 15.7397C6.00385 15.8433 6.01386 16.1405 5.94757 16.2353C5.93626 16.2282 5.92031 16.2152 5.9092 16.2067C5.87708 16.138 5.90461 15.808 5.92626 15.7305Z" fill="#CFE3FE"/>
<path d="M3.32812 16.4453C3.37628 16.455 3.58533 16.6295 3.61194 16.6668C3.52172 16.6515 3.34474 16.5379 3.32812 16.4453Z" fill="#5195F4"/>
<path d="M3.25386 16.7014C2.90994 16.5087 2.97799 15.4534 2.97837 15.1045L2.98067 13.4827L2.99367 12.3929C2.99437 12.1914 2.99222 11.9894 2.9969 11.7897C3.01374 11.0712 3.33885 10.4394 3.96715 10.0612C4.62895 9.66283 5.27579 9.71836 6.01273 9.72151L7.40056 9.72283L13.7108 9.72109L15.8026 9.71285C16.0702 9.71257 16.3429 9.70973 16.6103 9.71154C16.951 9.71384 17.4061 9.83745 17.6983 10.0139C18.3461 10.4139 18.7525 11.1048 18.7839 11.8598C18.7933 12.066 18.7678 12.3304 18.7867 12.5388C18.7898 12.5733 18.794 12.5809 18.795 12.6261C18.8234 12.6495 18.9265 12.658 18.9653 12.6572C18.9768 12.6267 18.9703 12.5224 18.9756 12.4712C18.9917 12.5298 18.9866 12.6091 18.9858 12.6716C18.9108 12.6667 18.8358 12.6625 18.7608 12.6592C18.6849 12.682 18.5345 12.6726 18.4459 12.6734C18.4091 12.6446 18.4291 12.6515 18.3851 12.6486C18.3871 12.5641 18.392 12.4727 18.3922 12.3881C18.3931 11.9559 18.4925 11.6091 18.3432 11.1836C18.2493 11.0291 18.2461 10.88 18.0702 10.7389C17.9458 10.5747 17.8194 10.4659 17.6446 10.3571C17.6302 10.3321 17.5603 10.2939 17.5332 10.2814C17.4354 10.194 17.3825 10.1824 17.2616 10.1355C17.094 10.0458 16.7859 10.0253 16.6002 10.0152C16.6272 10.014 16.6417 10.0143 16.6686 10.0095L16.6555 9.98091C16.6892 9.98446 16.6991 9.99133 16.73 9.97286C16.7644 9.95228 16.814 9.96343 16.8589 9.95058L16.8641 9.94165C16.7172 9.93131 16.5813 9.91359 16.4343 9.91006C15.5993 9.89001 14.7625 9.90054 13.9271 9.90035L8.90306 9.89909C7.91498 9.89296 6.92687 9.89349 5.93881 9.90069C5.74701 9.90284 5.00501 9.90014 4.87642 9.94669C4.80801 9.97145 4.72621 9.95857 4.65575 9.97931C4.107 10.1408 3.63727 10.4028 3.36849 10.9265C3.33453 10.9926 3.3109 11.0641 3.27292 11.128C3.26828 11.1358 3.17138 11.4429 3.1673 11.4623C3.15657 11.5133 3.12726 11.7006 3.12387 11.7513C3.11649 11.8617 3.12465 11.9753 3.12261 12.0862C3.11506 12.495 3.1212 12.9037 3.12059 13.3126L3.11544 15.3176C3.11554 15.5384 3.11563 15.7603 3.11772 15.9802C3.11946 16.164 3.13333 16.2965 3.22928 16.4573C3.26633 16.5195 3.36038 16.615 3.3815 16.6747C3.46085 16.7432 3.60004 16.8145 3.70375 16.8252C4.02538 16.8581 4.39049 16.8655 4.71416 16.8547C4.97695 16.846 5.45646 16.8869 5.69612 16.8282L5.72082 16.8346L5.72707 16.8542C5.45714 16.9085 5.24086 16.8848 4.97181 16.8925C4.60744 16.8746 4.19834 16.9012 3.81966 16.8828C3.64026 16.8688 3.52497 16.8173 3.37366 16.7266C3.32567 16.7116 3.3054 16.7036 3.25386 16.7014Z" fill="#1F7FFA"/>
<path d="M3.38193 16.6738C3.01699 16.4169 3.09233 15.7573 3.09244 15.3635L3.09301 14.0705L3.09245 12.6675C3.09214 12.3775 3.08299 12.074 3.10254 11.7852C3.15028 11.0798 3.5065 10.4589 4.15802 10.1351C4.7086 9.86144 5.24528 9.88192 5.84018 9.88084L6.98587 9.88042L10.5152 9.87991L14.488 9.87987L15.7264 9.88088C16.2404 9.88073 16.7545 9.85264 17.2492 10.0133C17.7388 10.1804 18.1338 10.4794 18.3655 10.9462C18.4754 11.1663 18.5472 11.403 18.5779 11.6466C18.5969 11.7898 18.5991 12.6303 18.6073 12.644L18.644 12.6535C18.6907 12.6521 18.7147 12.6498 18.7613 12.6584C18.6853 12.6812 18.5349 12.6717 18.4463 12.6725C18.4096 12.6437 18.4296 12.6507 18.3855 12.6477C18.3876 12.5633 18.3924 12.4719 18.3926 12.3873C18.3936 11.9551 18.4929 11.6083 18.3436 11.1827C18.2497 11.0282 18.2465 10.8792 18.0707 10.7381C17.9463 10.5738 17.8198 10.4651 17.6451 10.3563C17.6307 10.3313 17.5607 10.293 17.5337 10.2806C17.4358 10.1932 17.3829 10.1816 17.262 10.1347C17.0944 10.045 16.7863 10.0245 16.6006 10.0143C16.6277 10.0132 16.6422 10.0135 16.669 10.0086L16.6559 9.98009C16.6896 9.98364 16.6995 9.99051 16.7305 9.97203C16.7648 9.95145 16.8145 9.9626 16.8594 9.94975L16.8645 9.94082C16.7177 9.93048 16.5817 9.91276 16.4347 9.90923C15.5997 9.88918 14.7629 9.89972 13.9275 9.89953L8.90349 9.89826C7.91542 9.89214 6.92731 9.89267 5.93924 9.89987C5.74745 9.90201 5.00544 9.89931 4.87686 9.94586C4.80844 9.97063 4.72664 9.95775 4.65618 9.97848C4.10744 10.14 3.6377 10.402 3.36892 10.9256C3.33497 10.9918 3.31134 11.0632 3.27335 11.1272C3.26871 11.135 3.17182 11.4421 3.16773 11.4615C3.157 11.5125 3.1277 11.6998 3.1243 11.7504C3.11692 11.8608 3.12509 11.9745 3.12305 12.0853C3.11549 12.4942 3.12164 12.9028 3.12103 13.3118L3.11587 15.3167C3.11598 15.5376 3.11606 15.7595 3.11816 15.9794C3.1199 16.1632 3.13377 16.2956 3.22972 16.4565C3.26677 16.5186 3.36081 16.6142 3.38193 16.6738Z" fill="#1F7FFA"/>
<path d="M17.2617 10.1338C17.2789 10.1332 17.3632 10.1298 17.3754 10.129C17.4589 10.1237 17.6938 10.278 17.7562 10.3325C18.0083 10.5523 18.2777 10.8194 18.3436 11.159C18.3443 11.1627 18.3435 11.177 18.3434 11.1818C18.2495 11.0273 18.2462 10.8783 18.0704 10.7372C17.946 10.5729 17.8196 10.4642 17.6448 10.3554C17.6304 10.3304 17.5605 10.2922 17.5334 10.2797C17.4355 10.1923 17.3827 10.1807 17.2617 10.1338Z" fill="#5195F4"/>
<path d="M3.37352 16.7242C3.0268 16.4294 3.05372 16.1293 3.05113 15.7036C3.0504 15.5842 3.05131 15.4622 3.05137 15.3426L3.05214 14.024L3.05296 12.6282C3.05301 12.3758 3.04434 12.0581 3.06125 11.8126C3.07421 11.6184 3.11043 11.4263 3.16912 11.2405C3.32816 10.7426 3.68475 10.3299 4.15716 10.0971C4.70494 9.82098 5.27546 9.83888 5.86978 9.83798L6.96066 9.83693L10.3804 9.8377L14.4731 9.83594L15.726 9.83683C15.9985 9.83704 16.2936 9.83233 16.5641 9.84599C16.8029 9.85653 17.0393 9.89931 17.2664 9.97316L17.2486 10.0117C16.754 9.85107 16.2398 9.87917 15.7258 9.87932L14.4875 9.87831L10.5146 9.87835L6.98531 9.87886L5.83961 9.87928C5.24472 9.88036 4.70804 9.85988 4.15746 10.1335C3.50593 10.4573 3.14971 11.0782 3.10197 11.7836C3.08242 12.0725 3.09157 12.3759 3.09189 12.6659L3.09244 14.0689L3.09187 15.3619C3.09177 15.7558 3.01642 16.4153 3.38137 16.6723C3.46072 16.7408 3.59991 16.8122 3.70362 16.8228C4.02525 16.8557 4.39036 16.8631 4.71403 16.8523C4.97682 16.8436 5.45633 16.8845 5.69599 16.8258L5.72069 16.8322L5.72693 16.8518C5.457 16.9061 5.24073 16.8824 4.97168 16.8901C4.60731 16.8722 4.19821 16.8988 3.81953 16.8804C3.64012 16.8664 3.52484 16.8149 3.37352 16.7242Z" fill="#1F7FFA"/>
<path d="M17.2677 9.97656C17.8101 10.1763 18.1823 10.4672 18.4389 10.9966C18.6972 11.5291 18.6276 12.0828 18.6448 12.6553L18.6081 12.6458C18.5999 12.6322 18.5977 11.7916 18.5787 11.6484C18.548 11.4049 18.4762 11.1681 18.3663 10.9481C18.1346 10.4813 17.7396 10.1822 17.25 10.0151L17.2677 9.97656Z" fill="#2D8B2F"/>
<path d="M3.25391 16.6992C3.30545 16.7013 3.32572 16.7094 3.3737 16.7244C3.52502 16.8151 3.6403 16.8665 3.81971 16.8806C4.19839 16.899 4.60749 16.8724 4.97186 16.8902C5.24091 16.8826 5.45718 16.9063 5.72711 16.852C5.75087 16.8593 5.75316 16.86 5.77782 16.8623L5.78448 16.8725L5.7775 16.8775C5.84291 16.8813 5.9457 16.8564 5.97012 16.8671L5.96678 16.8928L5.98675 16.9045C5.9448 16.9524 5.82041 17.0276 5.80348 17.0605C5.85457 17.1003 6.04707 17.0446 6.10025 17.0045C6.1844 16.9909 6.18505 16.9927 6.22824 16.9193C6.23588 17.0242 6.10892 17.1103 6.03509 17.1185C5.7343 17.152 3.67463 17.2347 3.52132 17.0753C3.53099 17.0717 3.54335 17.0651 3.55294 17.0604L3.52007 17.0468L3.52986 17.035L3.57172 17.0403C3.56487 17.0182 3.57161 17.0268 3.55518 17.0118L3.55912 16.9875C3.53552 16.9352 3.32156 16.7663 3.26162 16.707L3.25391 16.6992Z" fill="#CFE3FE"/>
<path d="M3.81828 16.8828C4.19696 16.9012 4.60606 16.8746 4.97043 16.8925C4.96959 16.8991 4.96504 16.9084 4.96231 16.9152C4.84519 16.9166 4.73228 16.9114 4.61669 16.9262L4.72938 16.9248C4.69782 16.9357 4.46646 16.9509 4.41638 16.9561L4.46074 16.9582C4.19794 16.9953 3.93816 16.9644 3.67597 16.9306L3.66777 16.9086L3.66754 16.9287L3.66153 16.9113L3.6573 16.925L3.65234 16.919C3.67 16.9034 3.78794 16.8878 3.81828 16.8828Z" fill="#5195F4"/>
<path d="M4.20518 7.5561C4.27187 7.59293 4.30338 7.57582 4.34476 7.51953C4.40351 7.71063 4.17079 8.50412 4.00084 8.62293L3.96686 8.64698C4.08457 8.6119 4.5966 8.43996 4.68504 8.49692C4.63924 8.50878 4.61706 8.49697 4.56907 8.50299C4.50499 8.51104 4.44328 8.54111 4.38042 8.5331L4.37744 8.54299C4.44602 8.5657 4.67958 8.49788 4.72678 8.51498L4.72383 8.53106C4.64158 8.5805 4.4809 8.53553 4.36959 8.58637C4.28202 8.62637 3.86822 8.75178 3.78906 8.73875C3.90557 8.61099 3.99147 8.31212 4.03713 8.1418C4.07616 8.06958 4.18341 7.65473 4.20518 7.5561Z" fill="#CFE3FE"/>
<path d="M22.5124 15.0805L22.5062 15.0929L22.4967 15.0951C22.456 15.0322 22.4435 14.9843 22.4163 14.938C22.2591 14.6702 21.9746 14.222 21.7297 14.0353C21.7514 14.0977 21.8338 14.1508 21.8639 14.2096C21.9181 14.3159 22.09 14.4672 22.1361 14.5668L22.1277 14.5799C22.12 14.5785 22.1071 14.5769 22.1027 14.5714C21.8429 14.2469 21.5701 13.9204 21.2366 13.6649C21.1634 13.6089 20.9358 13.487 20.9062 13.3989C20.9516 13.4048 21.1245 13.5201 21.1877 13.5524C21.1748 13.5142 21.0438 13.4431 20.9872 13.3935L20.9923 13.375C21.6005 13.7473 22.2037 14.4444 22.5124 15.0805Z" fill="#CFE3FE"/>
<path d="M3.52132 17.0752C3.24415 16.9738 3.12013 16.9 2.93637 16.6547C2.8448 16.5325 2.74212 16.2116 2.7704 16.0703C2.77404 16.1413 2.79239 16.2405 2.81479 16.3084L2.82598 16.3136L2.84111 16.294C2.84833 16.2356 2.83448 16.1859 2.8235 16.1276L2.82861 16.1258C3.08733 16.6753 3.05483 16.6498 3.55518 17.0118C3.57161 17.0268 3.56487 17.0182 3.57173 17.0403L3.52986 17.035L3.52007 17.0468L3.55294 17.0604C3.54336 17.065 3.53099 17.0716 3.52132 17.0752Z" fill="#F3F8FF"/>
<path d="M6.22711 16.4297C6.2828 16.5293 6.16359 16.9136 6.10146 17.0047C6.04828 17.0447 5.85578 17.1004 5.80469 17.0607C5.82162 17.0277 5.94601 16.9526 5.98796 16.9046C6.14207 16.7698 6.13017 16.6582 6.1942 16.4873C6.21124 16.4677 6.21568 16.4532 6.22711 16.4297Z" fill="#5195F4"/>
<path d="M18.3119 8.86719C18.3676 8.88902 18.4872 8.94458 18.4964 9.00846C18.4277 8.96614 18.3416 8.92222 18.2695 8.88315C18.2938 8.87973 18.2887 8.87918 18.3119 8.86719Z" fill="#1F7FFA"/>
<path d="M4.8926 8.4154C4.94537 8.35841 5.03733 7.85222 5.07905 7.82361C5.08074 7.91063 4.95215 8.25936 4.93404 8.38174C4.97079 8.40804 4.99326 8.40782 5.03874 8.39392L5.03945 8.37971C5.04588 8.26353 5.09635 8.11 5.12497 7.99302C5.22926 7.56635 5.34873 7.14344 5.48315 6.7251C5.52294 6.59868 5.57573 6.47332 5.61713 6.34864C5.63877 6.28347 5.65127 6.17702 5.6734 6.10654L5.99583 5.09641C6.05444 4.90676 6.11436 4.63402 6.20031 4.46107C6.6782 3.4994 7.95964 3.57785 8.88476 3.58078L10.5294 3.58962L12.7485 3.58205C13.1085 3.58274 13.4709 3.57291 13.8302 3.59525C14.4004 3.63072 15.0104 3.75109 15.4064 4.19494C15.5427 4.34763 15.6394 4.52277 15.7152 4.71082C15.8562 5.06082 16.8152 8.2994 16.8013 8.3848C16.7983 8.40292 16.7899 8.42105 16.7824 8.43772L16.7905 8.4561C16.8159 8.45768 16.8565 8.45672 16.8759 8.46798C16.8164 8.47703 16.759 8.46815 16.6985 8.47456C16.5743 8.4877 16.4485 8.50578 16.3254 8.5271C16.2465 8.54076 16.1961 8.51671 16.1181 8.50941C16.0756 8.49848 15.9748 8.50386 15.9302 8.50891C15.9374 8.5152 16.0204 8.51341 16.0399 8.51415L16.0338 8.52635C15.7365 8.68783 13.1608 8.65891 12.6563 8.65884L9.32094 8.65965L7.37973 8.66008C7.14752 8.65969 5.76433 8.66599 5.66753 8.52464C5.6968 8.50522 5.70004 8.51131 5.74077 8.50778C5.7173 8.51084 5.65323 8.50346 5.62627 8.5012C5.6128 8.5001 5.58403 8.50152 5.56923 8.50177C5.47493 8.52867 5.20653 8.50605 5.11018 8.48716L5.10628 8.47894L5.14287 8.47589C5.08073 8.46262 4.89742 8.45785 4.87109 8.43516L4.8926 8.4154Z" fill="#F3F8FF"/>
<path d="M4.8926 8.4154C4.94537 8.35841 5.03733 7.85222 5.07905 7.82361C5.08074 7.91063 4.95215 8.25936 4.93404 8.38174C4.97079 8.40804 4.99326 8.40782 5.03874 8.39393L5.03945 8.37971C5.04588 8.26353 5.09635 8.11 5.12497 7.99302C5.22926 7.56635 5.34873 7.14344 5.48315 6.7251C5.52294 6.59868 5.57573 6.47332 5.61713 6.34864C5.63877 6.28347 5.65127 6.17702 5.6734 6.10654L5.99583 5.09641C6.05444 4.90676 6.11436 4.63402 6.20031 4.46107C6.6782 3.4994 7.95964 3.57785 8.88476 3.58078L10.5294 3.58962L12.7485 3.58205C13.1085 3.58274 13.4709 3.57291 13.8302 3.59525C14.4004 3.63072 15.0104 3.75109 15.4064 4.19494C15.5427 4.34763 15.6394 4.52277 15.7152 4.71082C15.8562 5.06082 16.8152 8.29941 16.8013 8.3848C16.7983 8.40292 16.7899 8.42105 16.7824 8.43772L16.7905 8.4561C16.8159 8.45768 16.8565 8.45673 16.8759 8.46798C16.8164 8.47703 16.759 8.46815 16.6985 8.47456C16.5743 8.4877 16.4485 8.50578 16.3254 8.5271C16.2465 8.54076 16.1961 8.51671 16.1181 8.50941L16.1938 8.49252C16.2221 8.49048 16.2228 8.49275 16.2463 8.47826C16.2112 8.27645 16.1391 8.04879 16.1025 7.84217C16.08 7.7146 16.0125 7.55955 15.9822 7.42923C15.897 7.06326 15.8229 6.70647 15.6849 6.35514C15.6619 6.29431 15.6644 6.20897 15.6436 6.14952C15.4971 5.72986 15.3926 5.29435 15.1906 4.89529C15.1421 4.79931 14.9803 4.62238 14.8904 4.55992C14.7316 4.44961 14.5057 4.33942 14.3146 4.29939C13.8919 4.22258 13.4844 4.21455 13.0576 4.20773C12.7017 4.1998 12.3457 4.19858 11.9898 4.20408C11.5545 4.2085 11.105 4.20186 10.6667 4.20097C9.92694 4.1959 9.18712 4.201 8.44749 4.21625C7.84721 4.23076 7.04902 4.18362 6.57284 4.64287C6.49808 4.71496 6.43163 4.8656 6.36126 4.95254C6.24321 5.22035 6.08856 5.76222 6.00242 6.06349C5.84655 6.60867 5.66206 7.1984 5.52477 7.74504C5.48013 8.03196 5.45766 8.20769 5.36775 8.48644C5.42768 8.49036 5.51179 8.4935 5.56923 8.50177C5.47493 8.52867 5.20653 8.50605 5.11018 8.48716L5.10628 8.47894L5.14287 8.47589C5.08073 8.46263 4.89742 8.45785 4.87109 8.43516L4.8926 8.4154Z" fill="#5195F4"/>
<path d="M6.62891 4.48936C6.73068 4.3013 6.95864 4.14947 7.16293 4.10532C7.22006 4.09296 7.25842 4.05976 7.32932 4.06615C7.39683 4.06161 7.39967 3.99766 7.51138 4.01736L7.52016 4.02858L7.50898 4.05405L7.51972 4.0676C7.56783 4.07277 7.58558 4.08293 7.62131 4.04297C7.60685 4.0375 7.5896 4.03029 7.57502 4.02614C7.70511 3.92117 10.4849 3.97398 10.8925 3.96881L12.9611 3.95972L13.6155 3.95703C13.807 3.95713 13.9479 3.95703 14.1381 3.98725C14.3051 4.01379 14.4441 4.05835 14.6071 4.09556C14.6632 4.10531 14.6578 4.11059 14.7029 4.13726C14.9116 4.26077 15.1206 4.37658 15.2292 4.60449C15.2609 4.671 15.2993 4.71278 15.314 4.79276C15.1375 4.5647 15.0775 4.42892 14.7972 4.28848C14.2161 3.9972 13.4688 4.05386 12.8318 4.05038L10.8397 4.04759L8.93055 4.05328C8.47525 4.05518 8.01104 4.0418 7.55876 4.09856C7.37026 4.12222 7.2156 4.17633 7.03676 4.22859C6.88184 4.29714 6.75923 4.3829 6.62891 4.48936Z" fill="#1F7FFA"/>
<path d="M7.03516 4.22788C7.214 4.17562 7.36866 4.12151 7.55716 4.09784C8.00944 4.04109 8.47365 4.05446 8.92895 4.05257L10.8381 4.04688L12.8302 4.04967C13.4672 4.05315 14.2145 3.99649 14.7956 4.28777C15.0759 4.42821 15.1359 4.56399 15.3124 4.79205C15.3441 4.88197 15.3926 4.97903 15.4283 5.07763C15.4204 5.09636 15.4125 5.11112 15.4086 5.1309C15.4029 5.09571 15.34 4.93765 15.324 4.90135C15.1856 4.58816 14.9507 4.37587 14.6285 4.2542C14.413 4.17283 14.1759 4.13377 13.9449 4.11834C13.523 4.09013 13.0868 4.09309 12.6632 4.09222L10.8127 4.09163L8.95338 4.0946C8.41473 4.09739 7.51841 4.06399 7.03597 4.27554L7.03516 4.22788Z" fill="#2D8B2F"/>
<path d="M6.62988 4.48733C6.7602 4.38087 6.88281 4.29511 7.03773 4.22656L7.03854 4.27423C6.75385 4.40523 6.45004 4.63402 6.36435 4.94976C6.24631 5.21757 6.09165 5.75943 6.00551 6.06071C5.84964 6.60589 5.66515 7.19562 5.52786 7.74226C5.48322 8.02918 5.46075 8.20491 5.37084 8.48365C5.43077 8.48758 5.51488 8.49072 5.57232 8.49899C5.47803 8.52588 5.20962 8.50326 5.11327 8.48438L5.10938 8.47616L5.14596 8.47311C5.16854 8.47511 5.17963 8.47482 5.20237 8.47485L5.20067 8.46455C5.28611 8.3177 5.30193 8.04854 5.43757 7.93313C5.45874 7.86793 5.47783 7.79566 5.4953 7.72925C5.57786 7.41546 5.67823 7.10304 5.75474 6.78813C5.77659 6.74658 5.87715 6.36295 5.90186 6.28191C6.03935 5.83101 6.16385 5.38615 6.32683 4.94238C6.43587 4.71999 6.46471 4.66898 6.62988 4.48733Z" fill="#1F7FFA"/>
<path d="M5.43757 7.93305C5.41514 8.01393 5.28342 8.41976 5.31648 8.47512C5.37635 8.38658 5.45921 7.89191 5.52786 7.74219C5.48322 8.02911 5.46075 8.20484 5.37084 8.48358C5.43077 8.4875 5.51488 8.49065 5.57232 8.49892C5.47803 8.52581 5.20962 8.50319 5.11327 8.4843L5.10938 8.47609L5.14596 8.47303C5.16854 8.47503 5.17963 8.47475 5.20237 8.47478L5.20067 8.46448C5.28611 8.31763 5.30193 8.04846 5.43757 7.93305Z" fill="#5195F4"/>
<path d="M5.7515 6.78997C5.70733 6.84045 5.54306 7.36955 5.51293 7.46632L5.50782 7.46292C5.50666 7.42672 5.60784 6.92006 5.6354 6.87951C5.71602 6.76092 5.81733 6.12322 5.89721 6.0824C5.90435 6.10976 5.87613 6.18496 5.87705 6.24818C5.94046 6.17579 5.93015 5.91219 5.94896 5.84322C5.98204 5.72192 6.03099 5.50608 6.09045 5.40549L6.1046 5.40623C6.10464 5.49884 6.04401 5.58327 6.04138 5.68772C6.10354 5.59644 6.18065 5.20749 6.24393 5.08857C6.24919 5.07868 6.24369 5.06021 6.23988 5.04969L6.21223 5.07049C6.20937 4.9936 6.2683 4.90713 6.28905 4.83711C6.30713 4.77607 6.32788 4.76856 6.35394 4.71536L6.35794 4.70703C6.35931 4.75431 6.32929 4.8554 6.32445 4.92982L6.32358 4.94422C6.1606 5.38799 6.0361 5.83286 5.89861 6.28375C5.87391 6.36479 5.77335 6.74843 5.7515 6.78997Z" fill="#CFE3FE"/>
<path d="M15.4102 5.13139C15.4141 5.11162 15.422 5.09685 15.4299 5.07812C15.5154 5.30577 15.5931 5.58335 15.664 5.81809C15.794 6.24298 15.9194 6.66922 16.0403 7.09672C16.1001 7.30516 16.1654 7.5131 16.2198 7.72292C16.2349 7.78137 16.2755 7.91724 16.2818 7.97011L16.2585 7.96885L16.2461 7.98936C16.2205 7.91506 16.1894 7.78303 16.1668 7.70181L15.9935 7.08442C15.8097 6.43036 15.6151 5.77927 15.4102 5.13139Z" fill="#1F7FFA"/>
<path d="M16.2461 7.98927L16.2584 7.96875L16.2818 7.97002C16.3195 8.09418 16.4077 8.35835 16.4259 8.47395C16.4059 8.49554 16.4184 8.4867 16.3766 8.48848C16.3517 8.46396 16.3605 8.4095 16.3503 8.3687C16.3187 8.24296 16.285 8.11293 16.2461 7.98927Z" fill="#2D8B2F"/>
<path d="M4.8926 8.41458C4.9598 8.40978 5.14961 8.43915 5.19758 8.46652L5.19928 8.47682C5.17654 8.47679 5.16545 8.47707 5.14287 8.47508C5.08073 8.46181 4.89742 8.45704 4.87109 8.43434L4.8926 8.41458Z" fill="#F3F8FF"/>
<path d="M16.6319 8.41967C16.6668 8.41729 16.6977 8.41455 16.725 8.43318C16.6954 8.45858 16.6797 8.45447 16.637 8.46243C16.5965 8.46585 16.5774 8.47049 16.5391 8.46012C16.5555 8.4383 16.6031 8.42868 16.6319 8.41967Z" fill="#5195F4"/>
<path d="M5.62891 8.49844C5.71915 8.48539 5.91531 8.48887 6.0113 8.48894L6.64148 8.4898L8.76583 8.48828L16.1965 8.48976L16.1207 8.50665C16.0782 8.49572 15.9774 8.5011 15.9329 8.50615C15.9401 8.51244 16.023 8.51066 16.0425 8.51139L16.0364 8.52359C15.7392 8.68507 13.1634 8.65616 12.659 8.65608L9.32357 8.65689L7.38236 8.65733C7.15016 8.65693 5.76696 8.66324 5.67017 8.52188C5.69944 8.50246 5.70267 8.50855 5.74341 8.50502C5.71994 8.50808 5.65587 8.50071 5.62891 8.49844Z" fill="#5195F4"/>
<path d="M18.3435 13.8187C20.147 13.709 21.6986 15.0672 21.8087 16.8518C21.9188 18.6364 20.5457 20.1712 18.742 20.2795C16.9396 20.3876 15.3896 19.0297 15.2796 17.2462C15.1696 15.4626 16.5412 13.9283 18.3435 13.8187Z" fill="#1F7FFA"/>
<path d="M16.51 19.5386C16.4316 19.4954 16.3001 19.3697 16.2356 19.3039C15.8561 18.9203 15.5782 18.4498 15.4269 17.9341C15.1914 17.1036 15.299 16.2146 15.7263 15.4627C16.1337 14.7435 16.8141 14.2149 17.6167 13.994C18.4706 13.753 19.3864 13.8582 20.1619 14.2861C20.9015 14.6996 21.4424 15.3896 21.6636 16.2012C21.8909 17.0207 21.7798 17.8961 21.3546 18.6345C20.9791 19.2873 20.331 19.8402 19.5951 20.0728C19.5924 20.0735 19.5898 20.0742 19.5872 20.0749C19.4804 20.112 19.1479 20.209 19.0472 20.204C18.6298 20.3033 17.9125 20.2302 17.5085 20.0846C17.2395 20.017 16.7134 19.7277 16.51 19.5386Z" fill="#E6F0FE"/>
<path d="M16.5078 19.5391C16.6052 19.5375 16.9882 19.8013 17.1017 19.8551C17.3828 19.9885 17.6146 20.0506 17.9203 20.1146C18.2803 20.1898 18.6216 20.1706 18.9878 20.1607C19.03 20.1595 19.111 20.1207 19.1559 20.1149C19.3154 20.0716 19.4224 20.0665 19.585 20.0753C19.4782 20.1124 19.1458 20.2095 19.045 20.2045C18.6277 20.3038 17.9103 20.2306 17.5064 20.0851C17.2373 20.0175 16.7113 19.7282 16.5078 19.5391Z" fill="#F3F8FF"/>
<path d="M18.3417 13.9604C18.601 13.9239 19.3014 14.0308 19.5607 14.1382C19.666 14.1686 19.7787 14.255 19.8767 14.2907C20.1596 14.3808 20.328 14.5443 20.5492 14.7166C20.7883 14.9027 20.8761 15.0067 21.0564 15.2437C21.3261 15.5982 21.4639 15.8663 21.5715 16.2998C21.7455 17.0001 21.6632 17.7262 21.424 18.4008C21.4194 18.4136 21.3258 18.5194 21.3051 18.5514C21.2952 18.7157 21.2734 18.7444 21.1621 18.8504L21.165 18.8455C21.0387 18.9569 20.9101 19.0742 20.8022 19.2036C20.7289 19.2915 20.5725 19.3821 20.515 19.4443C20.3543 19.6179 20.2355 19.6089 20.0547 19.713L20.0531 19.7228L20.0725 19.718L20.0685 19.7354C19.9311 19.8248 19.7352 19.8542 19.5749 19.9258C19.3958 20.0061 19.1342 20.0182 18.9403 20.0769C18.9189 20.0833 18.7487 20.0736 18.7152 20.0731L18.2178 20.0652C18.2151 20.0653 18.2123 20.0654 18.2097 20.0655C18.0543 20.0548 17.683 19.97 17.5185 19.9354L17.5384 19.9274L17.5337 19.9147C17.471 19.8903 17.4137 19.865 17.3534 19.8375C17.2217 19.7777 17.0751 19.738 16.963 19.6432C16.9169 19.6043 16.9394 19.5894 16.8708 19.5832C16.8339 19.5742 16.7887 19.5333 16.7591 19.516C16.5664 19.404 16.4426 19.2407 16.2884 19.0867C16.2499 19.0442 16.1362 18.9851 16.1061 18.9434C15.9412 18.7152 15.7918 18.4791 15.6765 18.2221C15.6421 18.1451 15.5908 18.0568 15.5742 17.974C15.5316 17.7618 15.4791 17.5491 15.4454 17.336C15.4314 17.2371 15.4593 17.0913 15.4527 16.9868C15.4421 16.8209 15.4445 16.6479 15.4801 16.4857C15.4834 16.4718 15.5049 16.4569 15.5157 16.4538C15.5486 16.4444 15.5231 16.2982 15.5273 16.2516C15.5427 16.0821 15.6294 15.9049 15.6916 15.7478C15.7007 15.7246 15.7246 15.6437 15.7317 15.6323C15.7719 15.5671 15.7993 15.5194 15.8333 15.4503L15.8515 15.445L15.8654 15.4594C15.9153 15.4319 15.9402 15.294 15.9776 15.2412C15.9828 15.2233 16.054 15.1537 16.0555 15.1457C16.0665 15.0888 16.1284 15.0547 16.178 15.0075L16.1742 14.9985C16.1571 15.0048 16.1401 15.0112 16.1234 15.0185C16.1547 14.9728 16.1978 14.9413 16.2405 14.9051L16.226 14.9107C16.2587 14.8869 16.359 14.8196 16.3744 14.7912C16.3669 14.7693 16.3648 14.7675 16.365 14.7449C16.4188 14.7562 16.4279 14.7613 16.4665 14.7211C16.5586 14.6254 16.6431 14.5421 16.7402 14.4534C16.7078 14.4468 16.7178 14.449 16.6815 14.4635L16.7269 14.4353L16.7456 14.4355L16.7572 14.4216L16.733 14.4311L16.7531 14.4213L16.7437 14.4372C16.7789 14.4615 16.9277 14.3593 16.9766 14.3387C17.0793 14.2955 17.1846 14.2095 17.2862 14.1669C17.6189 14.0275 17.981 13.9598 18.3417 13.9604Z" fill="#F3F8FF"/>
<path d="M18.484 14.8363C18.8529 14.8257 18.9193 15.0693 18.9189 15.3699L18.9168 16.0421C18.9228 16.3322 18.9152 16.6224 18.9189 16.9119C19.3584 17.2467 19.8297 17.5515 20.2627 17.8949C20.2983 17.9231 20.3281 17.971 20.3473 18.0115C20.4163 18.2306 20.3684 18.3623 20.2076 18.5179C20.1619 18.7237 19.8266 18.7886 19.6558 18.7147C19.5197 18.656 19.3861 18.5422 19.2623 18.4569L18.4784 17.9116C18.3642 17.8304 18.0685 17.6791 18.0272 17.5455C17.9466 17.2564 17.9688 16.9078 17.9815 16.6075C17.9992 16.1866 17.9115 15.5063 18.0997 15.1352C18.1817 14.9562 18.2791 14.8591 18.484 14.8363Z" fill="#5195F4"/>
<path d="M20.2076 18.5194C20.1619 18.7252 19.8266 18.7902 19.6558 18.7163C19.5197 18.6575 19.3861 18.5438 19.2623 18.4584L18.4784 17.9131C18.3642 17.832 18.0685 17.6806 18.0272 17.547C17.9466 17.258 17.9688 16.9093 17.9815 16.609C17.9992 16.1881 17.9115 15.5078 18.0997 15.1367C18.0847 15.278 18.091 15.4384 18.0914 15.5823L18.0921 16.2928L18.0918 16.8795C18.0917 17.0099 18.0674 17.3246 18.1745 17.4102C18.6669 17.8032 19.2092 18.1576 19.7248 18.5244C19.8883 18.6408 20.0434 18.6136 20.2076 18.5194Z" fill="#E6F0FE"/>
<path d="M18.4841 14.8363C18.853 14.8257 18.9194 15.0693 18.9191 15.3699L18.9169 16.0421C18.8667 16.2426 18.9704 16.8183 18.8539 16.9467C18.8238 16.9577 18.7426 16.9328 18.6699 16.9394L18.6452 16.9488L18.6312 16.9842C18.608 16.9141 18.6122 16.7298 18.6097 16.6492C18.5993 16.3207 18.6176 15.9916 18.6133 15.6639C18.6118 15.5486 18.6151 15.345 18.5916 15.2383C18.3328 14.9473 18.5822 14.9506 18.5479 14.8554L18.4841 14.8363Z" fill="#CFE3FE"/>
<path d="M18.5625 14.9774C18.7311 14.9691 18.8277 15.0232 18.7472 15.2064C18.6245 15.2099 18.5257 15.0988 18.5625 14.9774Z" fill="#F3F8FF"/>
<path d="M18.6676 16.9402C18.7403 16.9336 18.8215 16.9586 18.8516 16.9476C18.9681 16.8192 18.8644 16.2434 18.9146 16.043C18.9207 16.3331 18.913 16.6232 18.9168 16.9128C19.3563 17.2475 19.8275 17.5524 20.2605 17.8957C20.2962 17.924 20.326 17.9718 20.3452 18.0123C20.2111 18.074 20.2719 18.1792 20.1856 18.1758C20.1751 18.1677 20.1557 18.1545 20.1489 18.1448C19.9526 17.9751 19.7025 17.8124 19.4898 17.6612C19.2473 17.489 19.0103 17.3027 18.7547 17.1525C18.6708 17.1033 18.6627 17.0716 18.6289 16.9851L18.6429 16.9497L18.6676 16.9402Z" fill="#F3F8FF"/>
<path d="M18.668 16.9402C18.7407 16.9336 18.8219 16.9586 18.852 16.9476C18.9685 16.8192 18.8648 16.2434 18.915 16.043C18.9211 16.3331 18.9134 16.6232 18.9172 16.9128C19.3567 17.2475 19.8279 17.5524 20.2609 17.8957C20.2966 17.924 20.3263 17.9718 20.3456 18.0123C20.2115 18.074 20.2723 18.1792 20.1859 18.1758C20.1755 18.1677 20.1561 18.1545 20.1493 18.1448C20.1594 18.1355 20.1671 18.1269 20.1733 18.1145C20.1891 18.0826 20.2007 18.0411 20.1868 18.0066C20.1593 17.938 18.8122 16.997 18.668 16.9402Z" fill="#5195F4"/>
<path d="M15.4515 3.48896C15.605 3.48254 15.6819 3.52246 15.8186 3.57047C16.0119 3.63836 15.9394 3.75461 16.011 3.9101C16.0526 4.00239 16.156 4.07332 16.193 4.16547C16.3285 4.49862 16.4264 4.84398 16.5243 5.18922C16.7741 6.07074 17.0365 6.94964 17.2892 7.83043C17.3655 8.09625 17.4052 8.3003 17.5199 8.56242C17.2727 8.49557 17.162 8.48375 16.9115 8.4483C16.9475 8.43232 17.0306 8.45104 17.0756 8.45778C17.109 8.41274 17.1933 8.36715 17.2089 8.31922C17.2292 8.25692 17.1898 8.1037 17.1718 8.04366C17.1431 7.94738 16.9503 7.60712 17.0479 7.54427C17.1489 7.55336 17.1496 7.63682 17.1817 7.71863C17.2297 7.80534 17.2121 7.95473 17.2175 8.05345C17.2225 8.14466 17.3171 8.3406 17.4098 8.3689C17.4147 8.27987 16.9226 6.58936 16.8649 6.43412C16.8353 6.53195 16.8386 6.58873 16.8433 6.69079C16.925 6.78996 17.0213 7.0995 16.952 7.21019C16.9295 7.21588 16.9386 7.21306 16.91 7.20361C16.8951 7.13803 16.8335 7.09675 16.8245 7.03047C16.782 6.73662 16.6743 6.45446 16.5682 6.17655C16.3688 5.66546 16.3164 5.10176 16.0507 4.61628C16.0349 4.57465 16.0123 4.52585 15.9995 4.48399C15.9125 4.19801 15.7077 3.98643 15.5426 3.74564C15.484 3.66027 15.4052 3.59037 15.4515 3.48896Z" fill="#F3F8FF"/>
<path d="M22.3415 15.3177C22.3419 15.3593 22.347 15.3819 22.3259 15.4153L22.3093 15.414C22.2745 15.3755 22.1528 15.1412 22.1128 15.0729C22.1169 15.0972 22.1146 15.0982 22.1269 15.1182C22.188 15.2169 22.3342 15.5386 22.3208 15.6409C22.3072 15.6219 22.2596 15.4964 22.2468 15.4662C22.1803 15.3087 22.1093 15.1175 22.0137 14.9757C21.8274 14.6993 21.5165 14.3042 21.2652 14.0829C20.7795 13.6555 20.0188 13.2771 19.3849 13.1434C19.462 13.0993 19.9654 13.3063 20.0525 13.2923C19.9387 13.2405 19.8107 13.2021 19.7017 13.1442C19.6603 13.1222 19.6851 13.0687 19.6633 13.0336C19.559 13.0155 19.455 12.9952 19.3516 12.9729C19.4268 12.9706 19.4576 12.9871 19.5247 12.9953C19.8212 13.0315 20.0507 13.1509 20.3253 13.2484C20.5766 13.3095 20.8263 13.5322 21.0457 13.6714C21.3734 13.8793 21.7267 14.0045 21.8545 14.405C21.904 14.5574 22.0331 14.6973 22.1183 14.8315C22.3249 15.1559 22.479 15.4885 22.5717 15.8629C22.5875 15.9269 22.6447 16.129 22.6339 16.1845C22.6171 16.1593 22.6119 16.0787 22.6046 16.0449C22.5494 15.7908 22.463 15.5481 22.3415 15.3177Z" fill="#F3F8FF"/>
<path d="M20.3242 13.25C20.5755 13.3111 20.8251 13.5338 21.0446 13.6731C21.3722 13.8809 21.7255 14.0061 21.8534 14.4066C21.9029 14.5591 22.032 14.6989 22.1172 14.8331C22.3238 15.1575 22.4779 15.4901 22.5706 15.8645C22.5864 15.9285 22.6436 16.1307 22.6328 16.1861C22.616 16.161 22.6108 16.0803 22.6035 16.0465C22.5483 15.7924 22.4619 15.5497 22.3404 15.3193C22.2454 15.1079 22.115 14.8997 21.9958 14.7009C21.7224 14.2448 21.2875 13.8548 20.8442 13.5589C20.7422 13.4907 20.6372 13.4267 20.5298 13.3668C20.4612 13.3283 20.3883 13.2956 20.3242 13.25Z" fill="#5195F4"/>
<path d="M15.1576 17.7578C15.2102 17.856 15.2308 18.062 15.2776 18.1753C15.7973 19.4378 17.0062 20.3999 18.4157 20.4781C18.2867 20.5159 17.9096 20.371 17.868 20.4763C17.9081 20.5037 18.2454 20.5565 18.3048 20.5543C18.3445 20.5547 18.3492 20.5556 18.3879 20.5652C17.6969 20.5581 16.7693 20.1789 16.2554 19.7275C15.7923 19.3207 15.4012 18.7832 15.1931 18.2017C15.169 18.1341 15.1105 17.9809 15.1055 17.9165L15.1157 17.9105C15.1599 17.9855 15.1571 18.1299 15.2097 18.2077C15.2221 18.2262 15.2242 18.2308 15.2302 18.2535L15.24 18.2578L15.2534 18.2449C15.2758 18.1195 15.1652 17.9018 15.1576 17.7578Z" fill="#F3F8FF"/>
<path d="M17.7461 9.08594C17.7972 9.09336 17.8744 9.13158 17.9237 9.1541C18.3757 9.36048 18.7952 9.74059 19.111 10.115C19.1964 10.2163 19.471 10.7688 19.4492 10.8814C19.427 10.8446 19.3297 10.4954 19.2894 10.4612L19.2858 10.5519L19.2025 10.6343C19.0577 10.4984 19.0499 10.4228 18.9402 10.2668C18.9262 10.247 18.9157 10.2446 18.8958 10.2419C18.9026 10.2493 18.9788 10.429 18.9795 10.4328L18.9648 10.4511C18.9022 10.4147 18.8851 10.278 18.8638 10.255C18.744 10.1258 18.5774 9.909 18.4629 9.78389L18.4662 9.7754L18.4985 9.7893C18.4377 9.67717 18.0969 9.52155 18.0534 9.37945C18.0403 9.337 18.0491 9.27563 18.1041 9.2672C18.091 9.23807 17.7987 9.11284 17.7461 9.08594Z" fill="#F3F8FF"/>
<path d="M2.27682 8.76115C2.2341 8.74613 2.04636 8.64634 2.00067 8.62216C1.79536 8.51648 1.59377 8.41437 1.39571 8.29551C1.09489 8.11732 0.994653 7.79238 1.01403 7.46178C1.0409 7.00337 1.39049 6.67002 1.86549 6.71976C1.98365 6.73237 2.09953 6.76085 2.20991 6.80444C2.43955 6.89656 2.75202 7.07144 2.9708 7.19056C3.16065 7.29392 3.70219 7.54174 3.81841 7.68282C3.93917 7.79538 3.9705 7.86974 4.01397 8.0273C4.01722 8.06723 4.01586 8.10677 4.03517 8.14047C3.98951 8.31079 3.90361 8.60966 3.7871 8.73742C3.70887 8.76807 3.5578 8.82538 3.48687 8.86546C3.38943 8.91888 3.28531 8.97329 3.19494 9.03715C3.16455 9.06064 3.08381 9.12863 3.05356 9.13638C3.02918 9.12173 2.98169 9.10437 2.95392 9.09283C2.71948 8.99539 2.49725 8.88619 2.27682 8.76115Z" fill="#5195F4"/>
<path d="M3.81893 7.68359C3.9397 7.79615 3.97103 7.87051 4.01449 8.02807C4.01775 8.068 4.01639 8.10754 4.0357 8.14124C3.99003 8.31156 3.90414 8.61043 3.78763 8.73819C3.7094 8.76884 3.55833 8.82615 3.4874 8.86623C3.38996 8.91965 3.28584 8.97406 3.19547 9.03792C3.16508 9.06141 3.08434 9.1294 3.05409 9.13715C3.02971 9.1225 2.98221 9.10514 2.95445 9.0936C2.72001 8.99616 2.49777 8.88696 2.27734 8.76192C2.37936 8.74852 2.87496 9.09419 2.97053 9.0622C2.96478 8.98159 2.87934 8.97622 2.82234 8.90466L2.83091 8.89894L2.90458 8.92485C2.87293 8.77678 3.3548 8.84786 3.45913 8.75401C3.56452 8.6592 3.7085 8.63003 3.73669 8.45904C3.74759 8.3929 3.76527 8.14256 3.82124 8.11435L3.84125 8.1218C3.93138 8.04188 3.95554 7.88973 3.89232 7.78697C3.84105 7.76415 3.88797 7.79286 3.8346 7.79211C3.82982 7.75557 3.82536 7.71998 3.81893 7.68359Z" fill="#5195F4"/>
<path d="M4.01554 8.02734C4.0188 8.06727 4.01744 8.10681 4.03675 8.14051C3.99108 8.31083 3.90519 8.6097 3.78868 8.73746C3.71045 8.76811 3.55938 8.82542 3.48845 8.8655L3.47266 8.8405C3.55556 8.80751 3.69382 8.73166 3.77232 8.68784C3.8831 8.48984 3.97774 8.2518 4.01554 8.02734Z" fill="#2D8B2F"/>
<path d="M3.1933 9.03654C3.1646 9.03864 3.16329 9.04332 3.14062 9.0327L3.14252 9.01274C3.20578 8.94445 3.37858 8.8811 3.46944 8.83984L3.48523 8.86484C3.38779 8.91827 3.28368 8.97268 3.1933 9.03654Z" fill="#1F7FFA"/>
<path d="M3.4804 7.79297C3.67673 7.79511 3.85613 8.23709 3.51446 8.17259C3.45517 8.14242 3.35455 8.06027 3.35548 7.9891L3.37229 7.97429C3.40537 7.98855 3.40238 7.99581 3.42771 8.02927C3.42975 7.93819 3.44978 7.87766 3.4804 7.79297Z" fill="#F3F8FF"/>
<path d="M17.9853 7.5838C18.1297 7.46526 18.5136 7.28555 18.6916 7.19163C18.9752 7.05539 19.2502 6.87326 19.5467 6.767C20.2142 6.52768 20.7398 6.94553 20.6704 7.65137C20.6047 8.32035 19.9175 8.43707 19.4287 8.74031C19.3972 8.75978 19.3093 8.80347 19.275 8.8164C19.131 8.89965 18.9493 8.97468 18.7966 9.04553C18.754 9.06534 18.6682 9.08726 18.6399 9.10217C18.6074 9.0945 18.5254 9.03343 18.4994 9.00904C18.4902 8.94516 18.3706 8.8896 18.3149 8.86777C18.2916 8.87976 18.2968 8.88031 18.2725 8.88373C18.1537 8.82224 17.8948 8.73797 17.8331 8.61413C17.7609 8.46904 17.6991 8.26902 17.6562 8.11146C17.6801 8.07043 17.6872 8.01567 17.6961 7.9687C17.702 7.94992 17.7086 7.93131 17.7155 7.91291C17.7597 7.79873 17.8696 7.63509 17.9853 7.5838Z" fill="#5195F4"/>
<path d="M17.6961 7.96693C17.702 7.94815 17.7086 7.92954 17.7155 7.91114C17.7597 7.79696 17.8696 7.63332 17.9853 7.58203L17.9844 7.60169L17.9759 7.60891C17.927 7.65124 17.8342 7.7427 17.7998 7.79513C17.8714 8.0833 17.8251 8.06547 17.8293 8.33622C17.8555 8.36178 17.9041 8.40253 17.9146 8.43411C18.0214 8.54055 18.0566 8.57317 18.1882 8.65141C18.4975 8.86823 18.5335 8.75537 18.8062 8.85946C18.8487 8.92077 18.8791 8.9818 18.9688 8.94831C19.07 8.91051 19.1616 8.81865 19.275 8.81463C19.131 8.89788 18.9493 8.97291 18.7966 9.04376C18.754 9.06357 18.6682 9.08549 18.6399 9.1004C18.6074 9.09273 18.5254 9.03166 18.4994 9.00727C18.4902 8.94339 18.3706 8.88783 18.3149 8.866C18.2916 8.87799 18.2968 8.87854 18.2725 8.88196C18.1537 8.82047 17.8948 8.7362 17.8331 8.61236C17.7609 8.46726 17.6991 8.26725 17.6562 8.10969C17.6801 8.06866 17.6872 8.0139 17.6961 7.96693Z" fill="#5195F4"/>
<path d="M17.6562 8.11151C17.6801 8.07048 17.6872 8.01571 17.6961 7.96875L17.6989 7.98009C17.7479 8.18399 17.7558 8.53738 17.9691 8.69374C18.0305 8.73887 18.2261 8.81717 18.3149 8.86781C18.2916 8.8798 18.2968 8.88036 18.2725 8.88378C18.1537 8.82229 17.8948 8.73801 17.8331 8.61418C17.7609 8.46908 17.6991 8.26906 17.6562 8.11151Z" fill="#1F7FFA"/>
<path d="M17.9129 8.43359C18.0196 8.54003 18.0549 8.57265 18.1865 8.6509L18.1818 8.6805C18.0799 8.64136 17.9414 8.54849 17.8906 8.45097L17.9129 8.43359Z" fill="#5195F4"/>
<path d="M19.9818 7.20363L19.9561 7.2069L19.9585 7.20348L19.9359 7.18999C19.9115 7.24378 19.9469 7.2628 19.9156 7.28966C19.8935 7.27268 19.8905 7.23018 19.8698 7.20029C19.8006 7.1003 19.9447 6.99429 20.0274 6.95535C20.2994 6.82726 20.5368 6.86007 20.4139 7.21204C20.387 7.2892 20.3792 7.49414 20.3285 7.54117C20.2565 7.56433 19.9871 7.48705 19.9359 7.43773L19.9349 7.39744L19.9494 7.38734L19.9716 7.39499L19.9726 7.38829C20.0346 7.41282 20.2585 7.50993 20.3124 7.49555C20.3478 7.41781 20.3109 7.39411 20.3181 7.34793L20.3059 7.34653C20.1694 7.47791 20.0384 7.33455 19.9818 7.20363Z" fill="#5195F4"/>
<path d="M19.9805 7.20138C20.0082 7.12773 20.0792 7.01737 20.1743 7.06717C20.2883 7.1269 20.2963 7.23269 20.3046 7.34429C20.1681 7.47566 20.0371 7.33231 19.9805 7.20138Z" fill="#F3F8FF"/>
</g>
<defs>
<filter id="filter0_f_701_36568" x="-3.71875" y="2.09375" width="30.1445" height="18.5547" filterUnits="userSpaceOnUse" color-interpolation-filters="sRGB">
<feFlood flood-opacity="0" result="BackgroundImageFix"/>
<feBlend mode="normal" in="SourceGraphic" in2="BackgroundImageFix" result="shape"/>
<feGaussianBlur stdDeviation="4" result="effect1_foregroundBlur_701_36568"/>
</filter>
<clipPath id="clip0_701_36568">
<rect width="22" height="18.8571" fill="white" transform="translate(1 2.57031)"/>
</clipPath>
</defs>
</svg>
