<svg width="24" height="20" viewBox="0 0 24 20" fill="none" xmlns="http://www.w3.org/2000/svg">
<path d="M3.02622 9.9841C3.02304 7.95976 3.77615 5.82579 4.92618 4.17873C5.20578 3.78434 5.51118 3.40917 5.84036 3.05573C7.56853 1.20412 9.94875 0.109495 12.4694 0.0071011C15.1334 -0.0902009 17.6858 0.812555 19.5985 2.70889C19.9183 3.02397 20.2181 3.35899 20.4962 3.71196C20.6154 3.86473 20.7305 4.01552 20.8372 4.17756C20.8701 4.22767 20.9053 4.27549 20.9491 4.31655C21.001 4.31548 21.3104 4.20745 21.3922 4.18758C22.5201 3.91359 23.6268 4.60489 23.8965 5.73971C23.9877 6.12358 23.9663 6.81009 23.7547 7.14639C23.7239 7.2388 23.6538 7.35149 23.5982 7.43276C23.3254 7.83172 22.9856 8.03885 22.583 8.27299C22.5874 8.30656 22.6006 8.3901 22.5989 8.41951C22.6371 8.5449 22.6693 8.91957 22.6832 9.05959C22.8166 10.391 22.7012 11.7351 22.2954 13.0126C22.2569 13.1338 22.1585 13.4564 22.1052 13.5625C21.9877 13.9252 21.7275 14.4725 21.5513 14.8022C20.6203 16.5507 19.1743 17.9658 17.4125 18.8527C15.0658 20.0627 12.3362 20.2765 9.83205 19.4463C8.24128 18.913 6.80905 17.9855 5.66691 16.749C5.48506 16.5523 5.21488 16.2468 5.05832 16.0272C4.75837 16.0531 4.4328 16.1259 4.11161 16.1566C3.01529 16.2612 1.6225 16.2163 0.738069 15.4657C0.464144 15.2374 0.25381 14.9412 0.127691 14.6064C0.111163 14.5632 0.0634449 14.431 0.0658017 14.3876C-0.0535161 13.9918 0.00235325 13.5012 0.130187 13.1102C0.480755 12.0376 1.41416 11.1265 2.29831 10.4705C2.5053 10.3169 2.80448 10.0987 3.02622 9.9841ZM5.74242 14.1618C5.87532 14.1059 6.1172 14.0619 6.26553 14.0183C6.62788 13.9121 6.99942 13.8069 7.35626 13.6828C7.80551 13.5259 8.24953 13.3542 8.68762 13.168L9.22365 12.9335C9.28109 12.9082 9.38457 12.8558 9.43659 12.8364C9.48286 12.8 9.77858 12.6677 9.8502 12.635C9.74751 12.5932 9.64704 12.546 9.54915 12.4938C9.02748 12.219 8.67719 11.8394 8.274 11.4127C7.93652 11.0557 7.58893 10.7059 7.27936 10.3235C7.0404 10.0284 6.92806 9.54103 7.11234 9.19344C7.11525 9.18577 7.11835 9.17816 7.12162 9.17064C7.26754 8.83708 7.62792 8.63921 7.93292 8.48326C8.09225 8.4018 8.20574 8.33699 8.37396 8.27051C8.55901 8.2047 8.73629 8.16659 8.9339 8.18561C9.0525 8.19812 9.16932 8.22403 9.28217 8.26285C9.75083 8.42191 10.2376 8.72507 10.7041 8.90773C10.8116 8.94983 10.9824 9.05488 11.1089 9.03754C11.4001 8.95134 11.7895 8.72239 12.0654 8.59638C12.3474 8.46137 12.6376 8.30758 12.9165 8.17829C12.4926 7.71011 12.0618 7.24833 11.6242 6.79311C11.3647 6.52388 10.8341 6.00799 10.6533 5.71958C10.5453 5.55073 10.4846 5.35565 10.4775 5.15493C10.4711 4.98115 10.5196 4.69624 10.6406 4.56585C10.8781 4.17136 11.3732 4.03333 11.758 3.82802C11.9263 3.73829 12.1125 3.66377 12.2812 3.57346C12.8389 3.27508 13.4913 3.26129 14.0309 3.60947C14.375 3.83141 14.7148 4.06646 15.0552 4.29736L16.515 5.28127C16.7387 5.43378 16.9624 5.58815 17.1915 5.73225C17.2865 5.79196 17.4495 5.91565 17.5498 5.95684C17.7363 5.90951 17.9686 5.78206 18.1438 5.69474C18.3051 5.61559 18.4672 5.53766 18.6297 5.46094C18.6855 5.4343 18.8083 5.37024 18.8598 5.35226C18.9133 5.301 19.3041 5.16062 19.4284 5.04299C19.4088 5.00039 19.1469 4.68985 19.1042 4.63762C18.4933 3.89296 17.7542 3.26519 16.9224 2.78435C16.7323 2.67205 16.5453 2.57848 16.352 2.47463C15.9388 2.28758 15.5689 2.12989 15.129 2.0032C13.4039 1.5063 11.6347 1.61787 9.96541 2.25795C8.36348 2.87626 6.99584 3.9877 6.05701 5.4342C5.83994 5.76923 5.63994 6.10637 5.47286 6.4694C5.45076 6.51743 5.42369 6.58014 5.39691 6.62416C5.24272 7.01784 5.11366 7.3123 4.9934 7.72565C4.43357 9.64986 4.55836 11.6013 5.37732 13.4293C5.46841 13.6327 5.63002 13.9735 5.74242 14.1618ZM4.05321 14.4592C3.59473 13.5015 3.35061 12.775 3.15494 11.731C2.77356 12.0213 2.3913 12.328 2.09918 12.7152C2.07066 12.7529 1.89513 13.0052 1.88674 13.0111C1.7387 13.2756 1.63953 13.5373 1.65504 13.8458C1.66474 14.1176 1.81482 14.2019 2.04112 14.2933C2.30769 14.4009 2.54874 14.4442 2.83477 14.4658C3.23629 14.4961 3.65233 14.4937 4.05321 14.4592ZM11.8861 5.18793C11.9239 5.22583 11.996 5.29413 12.0276 5.33277C12.1357 5.4344 12.2318 5.55855 12.3337 5.66705C12.5451 5.89227 12.7529 6.12671 12.9634 6.35211L13.7674 7.20422C14.0684 7.52331 14.4505 7.84362 14.4663 8.32377C14.4695 8.42025 14.4607 8.48332 14.4249 8.57277C14.3838 8.74881 14.1897 8.94875 14.0391 9.03409C13.7032 9.22448 13.3331 9.38862 12.9864 9.56139L12.0673 10.0167C11.8382 10.1306 11.579 10.2687 11.3382 10.3469C10.9386 10.471 10.5492 10.2575 10.1951 10.0951C9.82155 9.92365 9.45855 9.7424 9.08383 9.57499C8.78965 9.44355 8.75386 9.43859 8.47377 9.60931C8.44435 9.62721 8.416 9.64683 8.38888 9.66807C8.48608 9.84885 8.58106 9.87978 8.68415 10.0099C8.96627 10.3163 9.25881 10.6127 9.56125 10.8987C9.69594 11.0249 9.82949 11.155 9.97977 11.2623C10.0911 11.3418 10.2096 11.4063 10.3388 11.4509C10.7621 11.597 12.0369 11.8244 12.4624 11.7387C12.7834 11.6742 13.0688 11.4946 13.3617 11.3545C13.9255 11.0835 14.487 10.8075 15.0461 10.5267L21.3384 7.41359L21.7939 7.18684C22.167 6.99992 22.4154 6.86462 22.5552 6.45191C22.5648 6.37899 22.5834 6.26263 22.5765 6.19251C22.5561 5.98191 22.4796 5.76274 22.3087 5.62626C21.8309 5.24456 21.2355 5.62799 20.7932 5.83769L18.8149 6.79081C18.2275 7.07247 17.6224 7.50653 16.9752 7.172C16.7962 7.07957 16.6759 6.98965 16.5123 6.87585L16.0016 6.52366L14.1652 5.26145C13.9047 5.0813 13.6313 4.87747 13.3562 4.72534C13.0501 4.56696 12.7098 4.77353 12.4339 4.90304C12.2914 4.96996 11.9735 5.07959 11.8861 5.18793ZM18.5192 16.0822C18.5789 16.0003 18.764 15.8377 18.8425 15.7548C19.0556 15.5305 19.2554 15.2938 19.4409 15.046C20.3725 13.8003 21.0105 12.1338 21.086 10.5754C21.1033 10.2436 21.1033 9.91115 21.0861 9.57936C21.0781 9.41725 21.0518 9.22642 21.0526 9.07194C20.4519 9.35289 19.8914 9.63775 19.2971 9.92836L14.9844 12.0415L13.8343 12.6045C13.4715 12.7829 13.1551 12.9663 12.7573 13.0593C12.2079 13.1879 11.6573 13.0481 11.1119 13.0121C10.9901 13.5011 10.7911 13.9018 10.3348 14.1554C9.57076 14.58 8.73797 14.9154 7.92275 15.2274C7.55965 15.3665 7.17991 15.4682 6.81873 15.6096C7.09748 15.9168 7.39787 16.2035 7.71753 16.4671C7.75872 16.5017 7.87329 16.5809 7.89488 16.6154C8.20323 16.8371 8.50061 17.0434 8.83047 17.2326C9.90293 17.8475 11.099 18.211 12.33 18.2964C14.3159 18.4299 16.283 17.8384 17.8715 16.6301C18.0959 16.4607 18.31 16.2702 18.5192 16.0822Z" fill="#1F7FFA"/>
</svg>
