<svg width="54" height="64" viewBox="0 0 54 64" fill="none" xmlns="http://www.w3.org/2000/svg">
<path d="M53.8308 0.0154075C53.9017 0.213353 53.7147 0.140426 53.6811 0.223771C46.2332 18.7512 39.1141 37.4374 31.6661 55.9726C29.8732 60.6309 25.8744 63.7225 20.8747 63.9608L0 63.9569C0.406323 62.8265 0.935189 61.7482 1.38279 60.6335C6.42249 48.0796 11.5112 35.2405 16.6154 22.5863C18.4432 18.0545 20.0169 13.3559 23.1501 9.5337C26.7696 5.1177 32.1408 2.05997 37.6978 0.87621C38.1506 0.779842 38.8626 0.632685 39.2882 0.558456C44.0867 -0.277601 48.9781 0.0961495 53.8308 0.0167111V0.0154075Z" fill="#1E1E1E"/>
</svg>
