<svg width="139" height="39" viewBox="0 0 139 39" fill="none" xmlns="http://www.w3.org/2000/svg">
<path d="M138.075 17.3211C135.261 16.7182 132.485 15.873 129.652 15.3482C128.905 15.2102 127.734 14.9341 127.009 15.0148C126.932 15.0239 126.747 15.0513 126.749 15.1333C126.751 15.3039 129.125 16.9526 129.461 17.1531C130.889 18.0035 132.196 18.4606 133.857 18.626C135.02 18.7419 137.084 18.5609 138.054 19.0727C139.476 19.8228 138.272 21.4168 137.89 22.5445C137.148 24.731 136.475 26.7548 138.38 28.492C138.47 28.574 139.094 28.9517 138.989 29.0663C137.807 29.4388 136.6 29.7969 135.368 29.9792C134.252 30.1446 133.224 30.1016 132.104 30.1381C116.521 30.6577 100.729 29.918 85.1154 30.2149C78.3794 30.629 71.6203 32.3376 66.231 36.5583C65.5448 37.0961 64.914 37.8019 64.2484 38.3176C64.1723 38.3762 64.1517 38.4661 64.0201 38.4322C64.0124 33.7675 62.658 29.1327 59.5364 25.6505C54.9043 20.4843 47.7104 18.5648 41.0867 17.6415C27.7283 15.7792 14.2539 14.6541 0.885178 12.8622C0.672342 12.8335 0.436287 12.801 0.227321 12.758C0.144766 12.741 -0.0177631 12.7528 0.00158564 12.6421L22.5222 9.01135C33.2866 7.2611 43.3221 3.3022 54.111 1.5246C70.0118 -1.09687 85.0083 -0.881995 99.605 6.53834C102.168 7.84191 104.532 9.67551 107.475 9.95419C109.317 10.1287 111.307 10.0102 113.175 10.1092C119.824 10.4621 127.568 11.6537 133.618 14.4952C135.171 15.2245 136.838 16.1387 138.077 17.3237L138.075 17.3211Z" fill="#1F7FFA"/>
</svg>
