<svg width="24" height="24" viewBox="0 0 24 24" fill="none" xmlns="http://www.w3.org/2000/svg">
<g clip-path="url(#clip0_701_38694)">
<path d="M3.17773 23.2508C1.69191 21.7178 0.827437 19.6882 0.751549 17.5547C0.675661 15.4211 1.39375 13.3352 2.7669 11.7005C4.14005 10.0658 6.07068 8.99849 8.1853 8.70497C10.2999 8.41146 12.4483 8.91264 14.2147 10.1116L16.0646 11.8077C16.4888 12.3281 16.8508 12.8964 17.1431 13.5008L16.4989 22.1127C16.222 22.5177 15.9113 22.8984 15.57 23.2508H3.17773Z" fill="#2D9739"/>
<path d="M17.143 13.5009C16.8507 12.8965 16.4887 12.3283 16.0645 11.8078L14.2147 10.1113L14.182 10.0892C13.0921 9.36243 11.8114 8.97461 10.5014 8.97461C9.19141 8.97461 7.91072 9.36243 6.82079 10.0892C5.77251 10.7922 4.89132 11.7168 4.23942 12.7977C3.58751 13.8785 3.18077 15.0892 3.04791 16.3444C2.91506 17.5996 3.05931 18.8687 3.47051 20.0621C3.8817 21.2554 4.5498 22.344 5.42767 23.2509H15.5699C15.9112 22.8986 16.222 22.5178 16.4988 22.1128L17.143 13.5009Z" fill="#44BC59"/>
<path d="M16.6775 12.6613C16.4911 12.3647 16.2868 12.0797 16.0658 11.8078L15.2382 11.0488C14.8399 11.3209 14.4079 11.5401 13.9531 11.701L12.3136 12.2597C12.2214 12.2919 12.1416 12.3522 12.0853 12.4321C12.0291 12.512 11.9993 12.6075 12.0001 12.7052V15.2815C11.9984 15.3637 12.0189 15.4448 12.0594 15.5164C12.0999 15.588 12.1589 15.6474 12.2302 15.6883C12.3016 15.7292 12.3826 15.7502 12.4648 15.749C12.5471 15.7478 12.6275 15.7245 12.6976 15.6816L14.345 14.6518C15.2129 14.1023 15.9983 13.4321 16.6775 12.6613Z" fill="#2D9739"/>
<path d="M11.25 7.125H7.5C7.08579 7.125 6.75 7.46079 6.75 7.875C6.75 8.28921 7.08579 8.625 7.5 8.625H11.25C11.6642 8.625 12 8.28921 12 7.875C12 7.46079 11.6642 7.125 11.25 7.125Z" fill="#FFC239"/>
<path d="M9.375 20.625C11.8603 20.625 13.875 18.6103 13.875 16.125C13.875 13.6397 11.8603 11.625 9.375 11.625C6.88972 11.625 4.875 13.6397 4.875 16.125C4.875 18.6103 6.88972 20.625 9.375 20.625Z" fill="#ABE4A3"/>
<path d="M9.37349 11.625C8.50111 11.6243 7.64758 11.8788 6.91799 12.357C6.35221 13.2213 6.10128 14.2541 6.20739 15.2816C6.31349 16.3092 6.77017 17.2689 7.50063 17.9994C8.23109 18.7298 9.19078 19.1865 10.2183 19.2926C11.2459 19.3987 12.2787 19.1478 13.143 18.582C13.5867 17.9032 13.8386 17.1171 13.872 16.3069C13.9054 15.4966 13.7191 14.6925 13.3328 13.9795C12.9464 13.2665 12.3745 12.6712 11.6775 12.2567C10.9805 11.8423 10.1844 11.624 9.37349 11.625Z" fill="#CDF8C8"/>
<path d="M7.49916 7.125L6.45666 5.25C6.19978 4.62675 6.55003 3.75 7.12416 3.75H11.6242C12.1983 3.75 12.5485 4.62675 12.2917 5.25L11.2492 7.125H7.49916ZM9.37416 15.75C9.22582 15.75 9.08082 15.706 8.95748 15.6236C8.83414 15.5412 8.73801 15.4241 8.68125 15.287C8.62448 15.15 8.60963 14.9992 8.63857 14.8537C8.66751 14.7082 8.73894 14.5746 8.84383 14.4697C8.94872 14.3648 9.08235 14.2934 9.22784 14.2644C9.37332 14.2355 9.52412 14.2503 9.66117 14.3071C9.79821 14.3639 9.91535 14.46 9.99776 14.5833C10.0802 14.7067 10.1242 14.8517 10.1242 15H10.8742C10.8729 14.6684 10.7618 14.3466 10.5583 14.0848C10.3548 13.8231 10.0702 13.6361 9.74916 13.5532V13.125H8.99916V13.5532C8.64605 13.6441 8.33824 13.8608 8.13352 14.1625C7.9288 14.4642 7.84124 14.8303 7.88727 15.192C7.9333 15.5537 8.10976 15.8862 8.38352 16.127C8.65729 16.3678 9.00954 16.5005 9.37416 16.5C9.52249 16.5 9.6675 16.544 9.79083 16.6264C9.91417 16.7088 10.0103 16.8259 10.0671 16.963C10.1238 17.1 10.1387 17.2508 10.1097 17.3963C10.0808 17.5418 10.0094 17.6754 9.90449 17.7803C9.7996 17.8852 9.66596 17.9566 9.52047 17.9856C9.37499 18.0145 9.22419 17.9997 9.08714 17.9429C8.9501 17.8861 8.83297 17.79 8.75055 17.6667C8.66814 17.5433 8.62416 17.3983 8.62416 17.25H7.87416C7.8754 17.5816 7.98647 17.9034 8.19002 18.1652C8.39356 18.4269 8.6781 18.6139 8.99916 18.6968V19.125H9.74916V18.6968C10.1023 18.6059 10.4101 18.3892 10.6148 18.0875C10.8195 17.7858 10.9071 17.4197 10.861 17.058C10.815 16.6963 10.6386 16.3638 10.3648 16.123C10.091 15.8822 9.73878 15.7495 9.37416 15.75Z" fill="#2D9739"/>
<path d="M0.75 22.875H23.25V23.625H0.75V22.875ZM13.875 16.125H15.375V22.125H13.875V16.125ZM16.5 13.5H18V22.125H16.5V13.5ZM19.125 10.875H20.625V22.125H19.125V10.875Z" fill="#FFC239"/>
<path d="M13.7345 15.0313C13.4811 14.0206 12.8846 13.1294 12.047 12.5098C12.0175 12.5704 12.0015 12.6366 12.0001 12.704V15.2803C11.9984 15.3625 12.0189 15.4436 12.0594 15.5152C12.0999 15.5868 12.1589 15.6462 12.2302 15.6871C12.3016 15.728 12.3826 15.749 12.4648 15.7478C12.5471 15.7466 12.6275 15.7233 12.6976 15.6804L13.7345 15.0313Z" fill="#ABE4A3"/>
<path d="M21.75 8.625H23.25V22.125H21.75V8.625ZM11.25 17.625H12.75V22.125H11.25V17.625Z" fill="#FFC239"/>
<path d="M7.49806 7.125C7.36984 7.12577 7.244 7.15975 7.13281 7.22363C7.15665 7.40332 7.24476 7.56831 7.38085 7.68806C7.51694 7.80781 7.69179 7.87422 7.87306 7.875H11.6231C11.7513 7.87423 11.8771 7.84025 11.9883 7.77637C11.9645 7.59668 11.8764 7.43169 11.7403 7.31194C11.6042 7.19219 11.4293 7.12578 11.2481 7.125H7.49806Z" fill="#FFD55D"/>
<path d="M12.2917 5.25012C12.5486 4.62687 12.1983 3.75012 11.6242 3.75012H7.73809C7.64794 3.74828 7.55868 3.76829 7.47794 3.80844C7.3972 3.84858 7.32738 3.90768 7.27443 3.98067C7.22149 4.05366 7.18699 4.13837 7.17389 4.22759C7.1608 4.3168 7.16949 4.40786 7.19922 4.49299L7.20222 4.50012L7.75759 5.49912C7.90538 5.76486 8.12157 5.98622 8.38374 6.14026C8.64591 6.29429 8.94452 6.37538 9.24859 6.37512H11.6662L12.2917 5.25012Z" fill="#44BC59"/>
<path d="M12 17.625V21C12 21.1989 12.079 21.3897 12.2197 21.5303C12.3603 21.671 12.5511 21.75 12.75 21.75V17.625H12ZM14.625 16.125V21C14.625 21.1989 14.704 21.3897 14.8447 21.5303C14.9853 21.671 15.1761 21.75 15.375 21.75V16.125H14.625ZM17.25 13.5V21C17.25 21.1989 17.329 21.3897 17.4697 21.5303C17.6103 21.671 17.8011 21.75 18 21.75V13.5H17.25ZM19.875 10.875V21C19.875 21.1989 19.954 21.3897 20.0947 21.5303C20.2353 21.671 20.4261 21.75 20.625 21.75V10.875H19.875ZM22.5 8.625V21C22.5 21.1989 22.579 21.3897 22.7197 21.5303C22.8603 21.671 23.0511 21.75 23.25 21.75V8.625H22.5Z" fill="#FFD55D"/>
<path d="M22.3145 5.35148C22.3328 5.41577 22.3336 5.48379 22.3169 5.54851C22.3001 5.61322 22.2663 5.67227 22.219 5.71954C22.1718 5.76681 22.1127 5.80059 22.048 5.81737C21.9833 5.83415 21.9153 5.83333 21.851 5.81498L19.8751 5.25061C18.9301 8.39198 17.0873 11.4464 14.345 13.1601L12.6976 14.1899C12.6275 14.2328 12.5471 14.2561 12.4648 14.2573C12.3826 14.2585 12.3016 14.2375 12.2302 14.1966C12.1589 14.1557 12.0999 14.0963 12.0594 14.0247C12.0189 13.9531 11.9984 13.872 12.0001 13.7897V11.2131C11.9995 11.1155 12.0294 11.0202 12.0856 10.9405C12.1418 10.8607 12.2215 10.8006 12.3136 10.7684L13.9531 10.2096C16.1468 9.46223 18.2967 7.19461 18.7501 4.87561L17.078 4.03973C17.0192 4.01036 16.9692 3.96605 16.9329 3.91125C16.8966 3.85644 16.8754 3.79307 16.8713 3.72748C16.8673 3.66189 16.8805 3.59639 16.9097 3.53753C16.939 3.47867 16.9831 3.42852 17.0378 3.39211L20.5722 1.03561C20.6213 1.00288 20.6775 0.9822 20.7361 0.975259C20.7947 0.968317 20.8541 0.975308 20.9095 0.995663C20.9649 1.01602 21.0147 1.04916 21.0549 1.0924C21.0951 1.13563 21.1245 1.18774 21.1407 1.24449L22.3145 5.35148Z" fill="#F3A606"/>
<path d="M12.6976 13.2179L14.345 12.1881C16.8923 10.5962 18.6635 7.84711 19.6602 4.94611C19.7232 4.76628 19.8528 4.61745 20.0223 4.53025C20.1917 4.44306 20.3881 4.42413 20.5711 4.47736L21.851 4.84298C21.9022 4.85779 21.956 4.8613 22.0087 4.85327C22.0614 4.84524 22.1117 4.82587 22.1562 4.79648L21.1407 1.24449C21.1245 1.18774 21.0951 1.13563 21.0549 1.0924C21.0147 1.04916 20.9649 1.01602 20.9095 0.995663C20.8541 0.975308 20.7947 0.968317 20.7361 0.975259C20.6775 0.9822 20.6213 1.00288 20.5722 1.03561L17.0378 3.39211C16.9831 3.42852 16.939 3.47867 16.9097 3.53753C16.8805 3.59639 16.8673 3.66189 16.8713 3.72748C16.8754 3.79307 16.8966 3.85644 16.9329 3.91125C16.9691 3.96605 17.0192 4.01036 17.078 4.03973L18.7501 4.87561C18.2967 7.19461 16.1468 9.46223 13.9531 10.21L12.3136 10.7687C12.2216 10.8009 12.1419 10.861 12.0857 10.9407C12.0295 11.0204 11.9995 11.1156 12.0001 11.2131V12.8181C11.9985 12.9003 12.019 12.9814 12.0595 13.0529C12.1 13.1245 12.1591 13.1838 12.2304 13.2247C12.3017 13.2655 12.3827 13.2865 12.4649 13.2853C12.5471 13.2841 12.6275 13.2608 12.6976 13.2179Z" fill="#FFC239"/>
</g>
<defs>
<clipPath id="clip0_701_38694">
<rect width="24" height="24" fill="white"/>
</clipPath>
</defs>
</svg>
