<svg width="33" height="20" viewBox="0 0 33 20" fill="none" xmlns="http://www.w3.org/2000/svg">
<g clip-path="url(#clip0_737_27782)">
<path d="M11.375 2.14844H20.9889V17.8507H11.375V2.14844Z" fill="#FF5F00"/>
<path d="M12.3652 9.99981C12.364 8.48782 12.7068 6.99537 13.3675 5.6354C14.0283 4.27543 14.9898 3.08358 16.1791 2.15005C14.706 0.992338 12.9369 0.272426 11.074 0.0725909C9.21112 -0.127244 7.32957 0.201062 5.64443 1.01999C3.95928 1.83891 2.53853 3.11541 1.54454 4.7036C0.550553 6.29179 0.0234375 8.12758 0.0234375 10.0012C0.0234375 11.8748 0.550553 13.7106 1.54454 15.2988C2.53853 16.8869 3.95928 18.1634 5.64443 18.9824C7.32957 19.8013 9.21112 20.1296 11.074 19.9298C12.9369 19.7299 14.706 19.01 16.1791 17.8523C14.9894 16.9185 14.0277 15.7262 13.3669 14.3657C12.7062 13.0052 12.3636 11.5122 12.3652 9.99976V9.99981Z" fill="#EB001B"/>
<path d="M31.3828 16.1891V15.8674H31.5215V15.8008H31.1914V15.8674H31.3218V16.1891L31.3828 16.1891ZM32.0235 16.1891V15.8008H31.9236L31.8072 16.0782L31.6906 15.8008H31.5908V16.1891H31.6629V15.8951L31.7711 16.1475H31.846L31.9542 15.8951V16.1891H32.0235Z" fill="#F79E1B"/>
<path d="M32.3369 9.99986C32.3369 11.8736 31.8096 13.7095 30.8154 15.2978C29.8213 16.886 28.4003 18.1625 26.7149 18.9813C25.0296 19.8001 23.1478 20.1282 21.2848 19.9281C19.4218 19.7279 17.6527 19.0077 16.1797 17.8496C17.3686 16.9152 18.3298 15.723 18.9907 14.363C19.6516 13.003 19.9951 11.5106 19.9951 9.99845C19.9951 8.48632 19.6516 6.99393 18.9907 5.6339C18.3298 4.27386 17.3686 3.08168 16.1797 2.14732C17.6527 0.989239 19.4218 0.268968 21.2848 0.0688423C23.1479 -0.131284 25.0296 0.196811 26.715 1.01562C28.4003 1.83443 29.8213 3.11092 30.8155 4.69917C31.8096 6.28742 32.3369 8.12335 32.3369 9.99709V9.99986Z" fill="#F79E1B"/>
</g>
<defs>
<clipPath id="clip0_737_27782">
<rect width="32.3596" height="20" fill="white"/>
</clipPath>
</defs>
</svg>
