<svg width="22" height="23" viewBox="0 0 22 23" fill="none" xmlns="http://www.w3.org/2000/svg">
<path d="M21.2485 17.1119C21.6411 16.2624 21.9006 15.3401 22 14.3732L15.5284 15.7167V13.134L21.2483 11.9476C21.6409 11.0981 21.9004 10.1758 21.9998 9.20886L15.5282 10.5512V1.26324C14.5366 1.8067 13.6559 2.53011 12.94 3.38341V11.0883L10.3518 11.6253V0C9.36019 0.543271 8.47951 1.26687 7.76362 2.12017V12.1621L1.97251 13.3632C1.57993 14.2127 1.32023 15.135 1.22061 16.1019L7.76362 14.7447V17.9971L0.751508 19.4515C0.358923 20.301 0.0994182 21.2233 0 22.1902L7.33973 20.6678C7.93721 20.5465 8.45074 20.2017 8.78462 19.7272L10.1307 17.7793V17.7789C10.2704 17.5774 10.3518 17.3344 10.3518 17.0727V14.2078L12.94 13.6708V18.8361L21.2483 17.1115L21.2485 17.1119Z" fill="#0C0C0C" fill-opacity="0.7"/>
</svg>
