<svg width="15" height="22" viewBox="0 0 15 22" fill="none" xmlns="http://www.w3.org/2000/svg">
<g clip-path="url(#clip0_701_36573)">
<path d="M1.87321 18.2131C1.77496 18.1674 1.67765 18.1009 1.58824 18.0378C0.994932 17.619 0.557122 17.0219 0.295688 16.3317C0.0538728 15.6932 0.043128 15.1137 0.0429688 14.4439L0.0430656 13.2935L0.0445091 9.69418L0.0433631 6.15839L0.0434029 5.0472C0.043279 4.82802 0.041952 4.61005 0.049592 4.39272C0.106095 2.78535 1.02466 1.47696 2.48375 0.92419C3.05592 0.707425 3.62451 0.544137 4.23081 0.40592C6.49987 -0.11677 8.85472 -0.086432 11.1106 0.494553C11.6842 0.640195 12.2558 0.804927 12.7988 1.04908C14.0072 1.59237 14.8335 2.77695 14.9247 4.14433C14.9443 4.43887 14.9397 4.73972 14.9399 5.03581L14.9394 6.29129L14.9388 10.0696L14.9377 13.4937L14.9383 14.552C14.9383 14.8132 14.9428 15.0856 14.9207 15.3449C14.8839 15.7586 14.7788 16.1626 14.6101 16.5393C14.3088 17.2146 13.8359 17.7842 13.215 18.1604C13.1368 18.2077 12.9012 18.3529 12.8227 18.3648C12.7486 18.4048 12.6027 18.4494 12.5542 18.4845L12.5532 18.5L12.5766 18.5374C12.3104 18.6238 12.2313 18.5232 11.9352 18.5756L11.899 18.5695C11.8107 18.5431 11.5256 18.5783 11.4349 18.6012C11.3484 18.657 11.2629 18.6086 11.2063 18.6916C11.1985 18.7447 11.2023 18.7582 11.2216 18.8083C11.3197 18.8749 11.1153 19.0687 11.1092 19.0877C11.1339 19.1663 11.2085 19.2053 11.2008 19.2684C11.0938 19.1507 10.8877 18.8335 10.8041 18.691C10.6351 18.6993 10.4165 18.6919 10.2416 18.6916L9.18098 18.691L5.7438 18.6901L4.67022 18.6904C4.59458 18.6904 4.2568 18.6851 4.19631 18.6974L4.16785 18.7429C4.09117 18.6986 4.07146 18.7192 3.99144 18.6994C3.89046 18.6629 3.82332 18.6274 3.71689 18.6042C3.61792 18.5888 3.53355 18.5744 3.43337 18.5703C3.37502 18.5345 2.68467 18.5694 2.53627 18.5243C2.62322 18.4747 2.6989 18.5067 2.77754 18.4886C2.7211 18.4865 2.49623 18.4773 2.46017 18.4956C2.43239 18.4785 2.31672 18.4353 2.28106 18.4197C2.13908 18.3577 2.00306 18.3007 1.87321 18.2131Z" fill="#5195F4"/>
<path d="M4.12891 18.673C4.18271 18.6804 4.62272 18.6707 4.71365 18.6707L6.2105 18.6709L9.30277 18.671L10.2723 18.6681C10.4557 18.6685 10.6475 18.6737 10.8305 18.6695C10.8589 18.6688 11.0488 18.5916 11.104 18.5765C11.2782 18.5284 11.4549 18.5034 11.6335 18.4784C11.7318 18.4646 11.7557 18.5331 11.8308 18.5463C11.9069 18.5597 11.9827 18.5338 12.0634 18.5273C12.1961 18.5149 12.436 18.5998 12.5512 18.5018L12.5746 18.5392C12.3084 18.6255 12.2292 18.525 11.9332 18.5773L11.897 18.5713C11.8086 18.5449 11.5235 18.5801 11.4329 18.603C11.3463 18.6587 11.2609 18.6104 11.2043 18.6933C11.1964 18.7465 11.2002 18.7599 11.2196 18.8101C11.3177 18.8767 11.1132 19.0705 11.1071 19.0895C11.1319 19.168 11.2065 19.207 11.1988 19.2702C11.0917 19.1525 10.8857 18.8352 10.8021 18.6928C10.633 18.7011 10.4145 18.6937 10.2396 18.6933L9.17894 18.6928L5.74176 18.6918L4.66817 18.6921C4.59254 18.6921 4.25476 18.6869 4.19426 18.6991C4.16768 18.6991 4.16121 18.6989 4.13513 18.6946L4.12891 18.673Z" fill="#1F7FFA"/>
<path d="M11.1406 18.6617C11.246 18.629 11.3253 18.6093 11.4349 18.6016C11.3483 18.6573 11.2629 18.609 11.2063 18.6919C11.1985 18.7451 11.2023 18.7585 11.2216 18.8087C11.1827 18.7825 11.1599 18.7082 11.1406 18.6617Z" fill="#1F7FFA"/>
<path d="M1.87109 18.2148C2.01661 18.2264 2.29459 18.4558 2.46712 18.4583C2.7264 18.4621 2.97083 18.4562 3.23003 18.4892C3.44551 18.5167 3.94678 18.5332 4.12883 18.673L4.13506 18.6946C4.16114 18.6989 4.1676 18.6991 4.19419 18.6991L4.16573 18.7446C4.08906 18.7003 4.06934 18.7209 3.98932 18.7011C3.88835 18.6646 3.8212 18.6292 3.71477 18.606C3.6158 18.5905 3.53143 18.5761 3.43125 18.572C3.3729 18.5362 2.68255 18.5712 2.53416 18.526C2.6211 18.4764 2.69679 18.5084 2.77542 18.4904C2.71899 18.4882 2.49411 18.479 2.45805 18.4974C2.43027 18.4803 2.3146 18.437 2.27894 18.4214C2.13697 18.3594 2.00094 18.3024 1.87109 18.2148Z" fill="#1F7FFA"/>
<path d="M12.0622 18.5258C12.0529 18.5106 12.0417 18.5007 12.0276 18.4908L12.0156 18.4825L12.0233 18.4697C12.1753 18.443 12.3694 18.4669 12.5238 18.4545C12.5975 18.4484 12.7535 18.3488 12.8194 18.3651C12.7453 18.405 12.5994 18.4497 12.5509 18.4848L12.5499 18.5003C12.4348 18.5983 12.1949 18.5134 12.0622 18.5258Z" fill="#1F7FFA"/>
<path d="M13.2747 10.2031C13.2906 10.3542 13.3116 10.3816 13.4039 10.5084C13.4213 10.5322 13.4459 10.554 13.4555 10.5807C13.4739 10.5381 13.4491 10.4562 13.4625 10.4198C13.4675 10.5475 13.494 11.6317 13.4586 11.6968C13.4576 11.6232 13.4762 11.3398 13.467 11.2945L13.4538 11.2973C13.4384 11.3253 13.2951 11.6345 13.2952 11.6418C13.3024 12.5088 13.2976 13.3761 13.3105 14.2432C13.3116 14.3222 13.2993 14.4042 13.2992 14.4834C13.3298 15.0137 13.3106 15.5416 13.0244 16.0021C12.9916 16.055 12.9374 16.1666 12.8876 16.1926L12.8763 16.1931C12.7897 16.2868 12.7027 16.4098 12.6086 16.4961C12.2666 16.8093 11.8436 16.9768 11.3872 16.9733C11.2831 16.9726 11.0612 16.9836 10.9698 16.9724C10.8914 16.9829 10.6757 16.9785 10.5888 16.9786L9.86302 16.9782L7.61263 16.9776L4.81775 16.9797L3.94314 16.9796C3.76897 16.9789 3.56132 16.9865 3.38962 16.9621C2.50615 16.8357 1.90408 16.1714 1.7606 15.2683L1.74831 15.1468C1.72012 14.7072 1.73476 14.0979 1.73402 13.6429C1.73304 13.0394 1.71734 12.3546 1.7458 11.7592C1.71543 11.7443 1.72555 11.7411 1.72157 11.6917C1.71418 11.5996 1.6579 11.4878 1.62109 11.4024C1.67544 11.4621 1.69496 11.5128 1.75884 11.5759L1.92615 11.5742C2.24212 11.5632 2.53882 11.5732 2.85519 11.5732L4.6496 11.5733L10.1779 11.5748L11.9988 11.5737C12.3492 11.573 12.7032 11.5724 13.0536 11.5579C13.1066 11.5557 13.253 11.5526 13.2626 11.4857C13.2017 11.4565 13.1058 11.4927 13.0515 11.4566C13.096 11.4419 13.1437 11.4555 13.202 11.4343C13.2134 11.4009 13.2265 11.3908 13.2596 11.3901C13.251 11.44 13.2434 11.4342 13.265 11.4699L13.2591 11.469C13.3083 11.4602 13.3277 11.3586 13.3518 11.3102C13.4747 11.0632 13.4804 10.7538 13.3414 10.5128C13.3043 10.4483 13.2408 10.4113 13.1821 10.3701C13.2233 10.3692 13.2282 10.3838 13.2768 10.3774L13.2705 10.3558C13.2734 10.3079 13.2734 10.2518 13.2747 10.2031Z" fill="#F3F8FF"/>
<path d="M13.2725 10.2031C13.2884 10.3542 13.3094 10.3816 13.4017 10.5084C13.419 10.5322 13.4437 10.554 13.4533 10.5807C13.4717 10.5381 13.4469 10.4562 13.4603 10.4198C13.4653 10.5475 13.4918 11.6317 13.4564 11.6968C13.4554 11.6232 13.474 11.3398 13.4648 11.2945L13.4516 11.2973C13.4362 11.3253 13.2928 11.6345 13.2929 11.6418C13.3002 12.5088 13.2954 13.3761 13.3082 14.2432C13.3094 14.3222 13.2971 14.4042 13.297 14.4834C13.3276 15.0137 13.3084 15.5416 13.0222 16.0021C12.9894 16.055 12.9352 16.1666 12.8854 16.1926L12.8741 16.1931C12.7875 16.2868 12.7005 16.4098 12.6064 16.4961C12.2644 16.8093 11.8414 16.9768 11.3849 16.9733C11.2809 16.9726 11.059 16.9836 10.9676 16.9724C10.8892 16.9829 10.6735 16.9785 10.5866 16.9786L9.8608 16.9782L7.61041 16.9776L4.81553 16.9797L3.94091 16.9796C3.76675 16.9789 3.5591 16.9865 3.3874 16.9621C2.50392 16.8357 1.90186 16.1714 1.75838 15.2683L1.74609 15.1468L1.76751 15.1554C1.79 15.2457 1.82641 15.2579 1.84144 15.3176L1.85021 15.326C1.87468 15.3935 1.92034 15.4966 1.93685 15.5613C1.98752 15.767 2.06949 15.9231 2.18975 16.0939C2.23088 16.1522 2.28315 16.2807 2.34595 16.3243C2.53231 16.4537 2.71169 16.5984 2.89969 16.7228C2.94648 16.7539 3.10073 16.7705 3.15935 16.791C3.4551 16.8943 3.67447 16.8791 3.97738 16.8842C4.4113 16.8897 4.84527 16.89 5.2792 16.8849L8.05007 16.8818L10.5365 16.8811C11.1339 16.876 11.7861 16.9484 12.3177 16.5997C12.3385 16.5861 12.395 16.5463 12.4057 16.5274C12.4356 16.4698 12.6944 16.2626 12.7389 16.1951C12.832 16.0536 12.9234 15.902 13.0179 15.7616C13.0616 15.6831 13.1273 15.3426 13.1435 15.2376C13.1638 15.1048 13.1607 14.8793 13.1625 14.738L13.1661 13.8099C13.17 13.3766 13.1708 12.9435 13.1684 12.5103C13.1681 12.3428 13.1963 11.8227 13.1216 11.7416C12.985 11.5934 12.0387 11.6251 11.858 11.625L10.4626 11.6248L6.09078 11.6243L6.08848 11.6138L3.33701 11.6119L2.45197 11.6126C2.30938 11.6127 2.10502 11.619 1.96891 11.6099C1.95544 11.5797 1.9628 11.5899 1.92393 11.5742C2.2399 11.5632 2.5366 11.5732 2.85297 11.5732L4.64738 11.5733L10.1757 11.5748L11.9966 11.5737C12.347 11.573 12.701 11.5724 13.0514 11.5579C13.1044 11.5557 13.2507 11.5526 13.2604 11.4857C13.1995 11.4565 13.1036 11.4927 13.0493 11.4566C13.0938 11.4419 13.1415 11.4555 13.1997 11.4343C13.2112 11.4009 13.2242 11.3908 13.2574 11.3901C13.2488 11.44 13.2412 11.4342 13.2627 11.4699L13.2568 11.469C13.3061 11.4602 13.3255 11.3586 13.3496 11.3102C13.4725 11.0632 13.4782 10.7538 13.3392 10.5128C13.302 10.4483 13.2386 10.4113 13.1799 10.3701C13.221 10.3692 13.226 10.3838 13.2746 10.3774L13.2683 10.3558C13.2712 10.3079 13.2712 10.2518 13.2725 10.2031Z" fill="#CFE3FE"/>
<path d="M13.2743 10.2031C13.2902 10.3542 13.3112 10.3816 13.4035 10.5084C13.4209 10.5322 13.4455 10.554 13.4551 10.5807C13.4735 10.5381 13.4487 10.4562 13.4622 10.4198C13.4671 10.5475 13.4936 11.6317 13.4582 11.6968C13.4572 11.6232 13.4758 11.3398 13.4666 11.2945L13.4535 11.2973C13.4381 11.3253 13.2947 11.6345 13.2948 11.6418C13.302 12.5088 13.2973 13.3761 13.3101 14.2432C13.3112 14.3222 13.2989 14.4042 13.2988 14.4834C13.3294 15.0137 13.3102 15.5416 13.0241 16.0021C12.9913 16.055 12.9371 16.1666 12.8872 16.1926L12.8759 16.1931C13.315 15.5029 13.2608 15.0697 13.2614 14.2682L13.2602 12.477C13.2611 12.297 13.2482 12.0115 13.2569 11.8467L13.2574 11.8392C13.2297 11.6335 13.1427 11.6206 12.9656 11.6117L6.09033 11.6138L3.33886 11.6119L2.45382 11.6126C2.31123 11.6127 2.10687 11.619 1.97076 11.6099C1.95729 11.5797 1.96465 11.5899 1.92578 11.5742C2.24175 11.5632 2.53845 11.5732 2.85482 11.5732L4.64923 11.5733L10.1776 11.5748L11.9985 11.5737C12.3489 11.573 12.7029 11.5724 13.0532 11.5579C13.1062 11.5557 13.2526 11.5526 13.2622 11.4857C13.2014 11.4565 13.1055 11.4927 13.0512 11.4566C13.0957 11.4419 13.1433 11.4555 13.2016 11.4343C13.2131 11.4009 13.2261 11.3908 13.2592 11.3901C13.2506 11.44 13.2431 11.4342 13.2646 11.4699L13.2587 11.469C13.3079 11.4602 13.3274 11.3586 13.3515 11.3102C13.4744 11.0632 13.4801 10.7538 13.341 10.5128C13.3039 10.4483 13.2405 10.4113 13.1817 10.3701C13.2229 10.3692 13.2279 10.3838 13.2765 10.3774L13.2702 10.3558C13.2731 10.3079 13.2731 10.2518 13.2743 10.2031Z" fill="#1F7FFA"/>
<path d="M12.9652 11.6142L12.9336 11.5979L12.9399 11.5886C13.0146 11.5851 13.087 11.587 13.1612 11.5749C13.2001 11.5684 13.2434 11.5514 13.2751 11.5735C13.2787 11.5979 13.2772 11.8602 13.274 11.8826L13.271 11.8857C13.2672 11.8669 13.2677 11.855 13.2571 11.8417C13.2294 11.636 13.1424 11.6231 12.9652 11.6142Z" fill="#1F7FFA"/>
<path d="M1.75781 15.2695C1.8419 15.3687 1.9191 15.7212 1.97917 15.8358C2.13823 16.1391 2.25961 16.3729 2.56385 16.54C2.67576 16.6015 2.78617 16.7305 2.91122 16.7784C3.0229 16.8153 3.14187 16.832 3.25624 16.8616C3.32308 16.8789 3.48471 16.9494 3.53721 16.9512C4.13861 16.9718 4.74154 16.9578 5.34252 16.9565L7.4974 16.9573C8.14477 16.9535 8.79617 16.9389 9.44295 16.9462C9.83447 16.9506 10.229 16.9833 10.6234 16.9663C10.71 16.9625 10.8867 16.9596 10.9671 16.9736C10.8886 16.9841 10.673 16.9797 10.5861 16.9798L9.86023 16.9794L7.60984 16.9788L4.81496 16.9809L3.94034 16.9808C3.76618 16.9801 3.55853 16.9877 3.38683 16.9633C2.50335 16.8369 1.90128 16.1726 1.75781 15.2695Z" fill="#F3F8FF"/>
<path d="M6.09268 11.627L10.4645 11.6276L11.8599 11.6278C12.0406 11.6279 12.9869 11.5962 13.1235 11.7443C13.1982 11.8254 13.17 12.3456 13.1703 12.513C13.1727 12.9463 13.1719 13.3794 13.168 13.8126L13.1644 14.7408C13.1626 14.882 13.1657 15.1076 13.1454 15.2404C13.1292 15.3453 13.0635 15.6859 13.0198 15.7644C13.0199 15.6646 13.0659 15.507 13.0809 15.4043C13.1177 15.1506 13.1368 14.9521 13.0994 14.6984C13.0902 14.6366 13.1342 14.4475 13.1318 14.3578C13.1183 13.859 13.1339 13.3688 13.1593 12.8711C13.1702 12.6586 13.1331 12.4361 13.122 12.2232C13.1163 12.1133 13.131 11.8713 13.0947 11.7818C12.9933 11.6887 12.1407 11.7113 11.958 11.7097L8.99333 11.71L3.97044 11.7116C3.39057 11.7131 2.80945 11.7049 2.22962 11.7092C2.14771 11.7125 2.0551 11.7092 1.98361 11.7578C1.94241 11.7857 1.90043 11.8239 1.89313 11.8758L1.87109 11.8855C1.90622 11.6178 2.11003 11.6732 2.31358 11.6444C2.48495 11.6201 2.6664 11.6385 2.83861 11.6397L3.62815 11.6406L6.09268 11.627Z" fill="#F3F8FF"/>
<path d="M1.85156 15.3281C1.90051 15.36 1.89848 15.3509 1.90479 15.4135C2.04012 15.5629 2.00894 15.6323 2.06324 15.8213C2.06795 15.8376 2.19854 16.0214 2.21624 16.0412C2.26895 16.1002 2.26365 16.1814 2.30847 16.2272C2.34701 16.2668 2.43483 16.3177 2.48251 16.3541C2.62453 16.4627 2.79856 16.5758 2.92413 16.7002C2.93767 16.7137 2.93389 16.7099 2.95122 16.7184C3.00441 16.7012 3.02751 16.6903 3.08276 16.698L3.09204 16.7071C3.05252 16.7256 3.01105 16.7047 2.98673 16.7215L3.00054 16.7282L3.01507 16.7216C3.06291 16.7572 3.17777 16.7134 3.22393 16.7461L3.21829 16.7577L3.19116 16.7636C3.3282 16.7775 3.46286 16.8103 3.59158 16.8611C3.7673 16.8145 3.87339 16.8272 4.05215 16.8515C4.21932 16.863 4.38916 16.8472 4.55683 16.838C4.57688 16.837 4.6121 16.8215 4.63238 16.8242C4.75567 16.8408 4.87949 16.8404 5.0035 16.8414C5.07421 16.8419 5.13079 16.8492 5.19785 16.8273C5.30741 16.7915 5.43293 16.8398 5.54448 16.8372C5.75403 16.8401 5.95331 16.8351 6.16191 16.8257C6.29438 16.8197 6.43256 16.8396 6.56488 16.8387C6.64968 16.8382 6.73031 16.8283 6.81535 16.826C6.89745 16.8237 7.0228 16.8535 7.0969 16.8494C7.28124 16.8393 7.464 16.838 7.64798 16.829C7.7036 16.8263 7.79599 16.858 7.85261 16.8568C7.97814 16.8542 8.10902 16.8329 8.23411 16.8267C8.2823 16.8243 8.36003 16.8331 8.4148 16.8331L9.0305 16.8354C9.11386 16.8359 9.20439 16.8268 9.28995 16.826C9.48672 16.8247 9.6835 16.8281 9.88013 16.836C10.0056 16.8401 10.1373 16.8169 10.2521 16.8397C10.3146 16.8052 10.348 16.8278 10.4157 16.8255C10.6323 16.816 10.8491 16.8121 11.0658 16.8136C11.2231 16.8159 11.3791 16.818 11.5367 16.8173C11.6176 16.8169 11.6368 16.792 11.7077 16.782C11.879 16.7578 12.0189 16.7161 12.1728 16.6338C12.224 16.6078 12.3554 16.5292 12.3996 16.5187L12.407 16.5295C12.3964 16.5484 12.3399 16.5882 12.3191 16.6018C11.7875 16.9505 11.1352 16.8781 10.5378 16.8832L8.05141 16.8839L5.28055 16.887C4.84662 16.8921 4.41265 16.8918 3.97873 16.8863C3.67582 16.8812 3.45645 16.8964 3.1607 16.7931C3.10208 16.7726 2.94782 16.756 2.90103 16.7249C2.71304 16.6005 2.53366 16.4558 2.3473 16.3264C2.28449 16.2828 2.23223 16.1543 2.1911 16.096C2.07084 15.9252 1.98887 15.7691 1.9382 15.5634C1.92169 15.4987 1.87603 15.3956 1.85156 15.3281Z" fill="#F3F8FF"/>
<path d="M1.62109 11.4023C1.67544 11.462 1.69496 11.5127 1.75884 11.5758L1.92615 11.5741C1.96502 11.5898 1.95766 11.5796 1.97113 11.6098C2.10724 11.6189 2.3116 11.6126 2.45419 11.6125L3.33924 11.6118L6.0907 11.6138L6.093 11.6242L3.62847 11.6377L2.83893 11.6368C2.66672 11.6357 2.48526 11.6173 2.3139 11.6416C2.11034 11.6704 1.90654 11.6149 1.87141 11.8826C1.84557 11.9377 1.86935 12.2884 1.87154 12.3731C1.87339 12.4448 1.85651 12.5947 1.86186 12.6583C1.8856 12.9404 1.85734 13.2165 1.8607 13.4999C1.86347 13.7336 1.87404 13.9925 1.85221 14.2247C1.82709 14.1133 1.84437 13.7423 1.84152 13.608C1.8381 13.4467 1.83357 13.2609 1.83104 13.0989C1.82238 13.2234 1.81182 14.5372 1.82402 14.5585L1.83602 14.5528C1.86006 14.473 1.81904 14.3412 1.83431 14.2685L1.84774 14.265C1.88404 14.3147 1.86161 14.9771 1.85729 15.0708L1.84819 15.085C1.83179 15.0477 1.83779 14.6442 1.83997 14.583L1.83057 14.5802C1.79124 14.6799 1.82618 14.7503 1.82639 14.8522C1.82646 14.8859 1.78434 14.9438 1.77629 14.9855C1.76644 15.0366 1.7903 15.121 1.76973 15.1553L1.74831 15.1467C1.72012 14.7071 1.73476 14.0978 1.73402 13.6428C1.73304 13.0393 1.71734 12.3545 1.7458 11.7591C1.71543 11.7442 1.72555 11.741 1.72157 11.6916C1.71418 11.5995 1.6579 11.4877 1.62109 11.4023Z" fill="#CFE3FE"/>
<path d="M1.62109 11.4023C1.67544 11.462 1.69496 11.5127 1.75884 11.5758L1.92615 11.5741C1.96502 11.5898 1.95766 11.5796 1.97113 11.6098C1.8611 11.6238 1.77989 11.6293 1.7458 11.7591C1.71543 11.7442 1.72555 11.741 1.72157 11.6916C1.71418 11.5995 1.6579 11.4877 1.62109 11.4023Z" fill="#1F7FFA"/>
<path d="M11.3329 14.9524C11.3235 14.9681 11.3133 14.9831 11.2989 14.9944C11.2576 15.0265 11.2107 15.0438 11.1603 15.0528C11.0058 15.0804 10.5337 15.0794 10.3785 15.0581C10.2165 15.0358 10.0327 14.9641 9.93199 14.8235C9.75684 14.5789 9.76003 14.1433 9.79938 13.8508C9.80785 13.7878 9.81305 13.7038 9.83467 13.6446C9.84929 13.6046 9.87819 13.5699 9.89558 13.5307C9.92614 13.4618 9.93951 13.3836 9.97489 13.3171C9.98607 13.2961 10.0025 13.2806 10.0208 13.2664C10.0526 13.2417 10.0835 13.2194 10.119 13.2006C10.2109 13.152 10.3189 13.111 10.4207 13.0941C10.6037 13.0637 10.7985 13.0911 10.9834 13.0871C11.0759 13.0851 11.1676 13.0641 11.26 13.0666C11.307 13.0679 11.3506 13.0766 11.3954 13.0919C11.5462 13.1431 11.782 13.2937 11.8547 13.4463C11.9492 13.6445 11.9597 14.3914 11.8936 14.5999C11.8924 14.6038 11.8914 14.6077 11.89 14.6116C11.8691 14.6712 11.7645 14.7713 11.7065 14.7964L11.6935 14.7882L11.7057 14.7437C11.6864 14.7488 11.6372 14.8022 11.586 14.8209C11.4906 14.8917 11.445 14.9175 11.3329 14.9524Z" fill="#1F7FFA"/>
<path d="M11.3329 14.9524C11.3235 14.9681 11.3133 14.9831 11.2989 14.9944C11.2576 15.0265 11.2107 15.0438 11.1603 15.0528C11.0058 15.0804 10.5337 15.0794 10.3785 15.0581C10.2165 15.0358 10.0327 14.9641 9.93199 14.8235C9.75684 14.5789 9.76003 14.1433 9.79938 13.8508C9.80785 13.7878 9.81305 13.7038 9.83467 13.6446C9.84929 13.6046 9.87819 13.5699 9.89558 13.5307C9.92614 13.4618 9.93951 13.3836 9.97489 13.3171C9.98607 13.2961 10.0025 13.2806 10.0208 13.2664C10.0526 13.2417 10.0835 13.2194 10.119 13.2006C10.2109 13.152 10.3189 13.111 10.4207 13.0941C10.6037 13.0637 10.7985 13.0911 10.9834 13.0871C11.0759 13.0851 11.1676 13.0641 11.26 13.0666C11.307 13.0679 11.3506 13.0766 11.3954 13.0919C11.5462 13.1431 11.782 13.2937 11.8547 13.4463C11.9492 13.6445 11.9597 14.3914 11.8936 14.5999C11.8924 14.6038 11.8914 14.6077 11.89 14.6116C11.8691 14.6712 11.7645 14.7713 11.7065 14.7964L11.6935 14.7882L11.7057 14.7437C11.6864 14.7488 11.6372 14.8022 11.586 14.8209C11.7112 14.6884 11.7575 14.6168 11.7824 14.4278C11.8097 14.269 11.7935 13.9049 11.7781 13.7421C11.7368 13.3883 11.4286 13.2159 11.1112 13.2396C10.6979 13.2704 10.2459 13.1126 9.96892 13.5184C9.93839 13.579 9.92964 13.5977 9.91194 13.6629C9.86948 13.8474 9.89542 13.964 9.88456 14.1369C9.86425 14.4602 9.9213 14.886 10.3063 14.9388C10.5406 14.9708 11.1005 14.9964 11.3329 14.9524Z" fill="#CFE3FE"/>
<path d="M9.96946 13.5196C9.90436 13.3155 10.2294 13.1982 10.3673 13.1603C10.4256 13.1447 10.4853 13.1357 10.5454 13.1332C10.6862 13.1268 10.8284 13.144 10.9694 13.1441C11.0502 13.1441 11.1301 13.1325 11.2104 13.1244C11.246 13.1208 11.2828 13.1188 11.3183 13.1255C11.3845 13.1381 11.474 13.1837 11.5316 13.2195C11.6979 13.3228 11.802 13.4105 11.8491 13.6142C11.8967 13.8201 11.9195 14.4764 11.8159 14.6481C11.7932 14.6856 11.7484 14.7322 11.7062 14.7449C11.687 14.75 11.6377 14.8034 11.5865 14.8221C11.7118 14.6896 11.758 14.618 11.783 14.429C11.8103 14.2702 11.794 13.9061 11.7786 13.7433C11.7373 13.3895 11.4292 13.2171 11.1118 13.2408C10.6984 13.2716 10.2464 13.1138 9.96946 13.5196Z" fill="#F3F8FF"/>
<path d="M9.91376 13.6641L9.92129 13.7669C9.90312 14.4626 9.8215 14.9672 10.6925 14.9294C11.0949 14.912 11.6803 15.044 11.7612 14.4288L11.7842 14.4289C11.7593 14.618 11.7131 14.6895 11.5878 14.8221C11.4924 14.8929 11.4468 14.9186 11.3348 14.9536C11.1023 14.9976 10.5424 14.9719 10.3081 14.9399C9.92312 14.8872 9.86607 14.4613 9.88637 14.138C9.89723 13.9652 9.8713 13.8485 9.91376 13.6641Z" fill="#1F7FFA"/>
<path d="M9.97104 13.5186C10.248 13.1128 10.7 13.2706 11.1134 13.2398C11.4307 13.2161 11.7389 13.3886 11.7802 13.7423C11.7956 13.9051 11.8119 14.2692 11.7845 14.428L11.7615 14.4279C11.7772 13.8877 11.8461 13.2554 11.1193 13.2732C10.6498 13.2847 10.0271 13.1229 9.92159 13.7659L9.91406 13.6631C9.93176 13.5979 9.94051 13.5792 9.97104 13.5186Z" fill="#1F7FFA"/>
<path d="M3.19797 14.6119C3.07777 14.3453 3.16264 13.8055 3.21482 13.5157C3.21763 13.5001 3.23293 13.4869 3.24425 13.4774C3.33175 13.4117 3.3502 13.2888 3.41666 13.2036C3.42579 13.192 3.48379 13.1906 3.4961 13.1834C3.75405 13.0329 3.97997 13.0864 4.25144 13.0802C4.56796 13.0729 4.86025 13.0112 5.09172 13.3177C5.10467 13.335 5.16237 13.3639 5.17788 13.386C5.34153 13.5971 5.30348 14.0448 5.29685 14.3044C5.29402 14.4152 5.25943 14.5609 5.20514 14.6482L5.19388 14.6505C5.15722 14.5823 5.22008 14.4293 5.18575 14.4169C5.16558 14.4466 5.15827 14.465 5.16373 14.507C5.1783 14.619 5.02774 14.7699 5.01473 14.8228L5.05513 14.8153L5.06561 14.832L5.06556 14.8157C5.06267 14.8791 4.88719 14.9037 4.83921 14.9045C4.77725 14.9266 4.71957 14.95 4.65434 14.9579L4.6423 14.9651C4.61987 14.9753 4.52886 15.0173 4.50633 15.0206C4.35356 15.0428 4.16802 15.0215 4.01091 15.0268C3.95452 15.0287 3.88302 15.0111 3.8258 15.0175L3.76551 15.025C3.87606 15.0789 4.34029 15.0271 4.4432 15.0535C4.40075 15.0576 4.35882 15.06 4.31606 15.0594C3.84168 15.0539 3.43183 15.1567 3.19797 14.6119Z" fill="#1F7FFA"/>
<path d="M3.19797 14.6119C3.07777 14.3453 3.16264 13.8055 3.21482 13.5157C3.21763 13.5001 3.23293 13.4869 3.24425 13.4774C3.33175 13.4117 3.3502 13.2888 3.41666 13.2036C3.42579 13.192 3.48379 13.1906 3.4961 13.1834C3.75405 13.0329 3.97997 13.0864 4.25144 13.0802C4.56796 13.0729 4.86025 13.0112 5.09172 13.3177C5.10467 13.335 5.16237 13.3639 5.17788 13.386C5.34153 13.5971 5.30348 14.0448 5.29685 14.3044C5.29402 14.4152 5.25943 14.5609 5.20514 14.6482L5.19388 14.6505C5.15722 14.5823 5.22008 14.4293 5.18575 14.4169C5.16558 14.4466 5.15827 14.465 5.16373 14.507C5.1783 14.619 5.02774 14.7699 5.01473 14.8228L5.05513 14.8153L5.06561 14.832L5.06556 14.8157C5.06267 14.8791 4.88719 14.9037 4.83921 14.9045C4.99946 14.8075 5.0728 14.732 5.12297 14.5462C5.16226 14.4475 5.1531 14.2097 5.15256 14.0973C5.14878 13.8631 5.17394 13.6408 5.01903 13.4473C4.80915 13.1831 4.46976 13.245 4.18182 13.2358C3.72515 13.2215 3.30019 13.2482 3.25358 13.8284C3.19373 14.0584 3.17119 14.3745 3.19797 14.6119Z" fill="#F3F8FF"/>
<path d="M3.19866 14.6117C3.17188 14.3743 3.19442 14.0581 3.25426 13.8281C3.24774 14.0904 3.19813 14.6616 3.43498 14.8151L3.46321 14.8009C3.70766 14.9895 4.25012 14.9185 4.55656 14.9289C4.59401 14.932 4.63142 14.9252 4.65503 14.9577L4.64298 14.9649C4.62056 14.9751 4.52954 15.0171 4.50701 15.0203C4.35425 15.0425 4.16871 15.0213 4.0116 15.0265C3.95521 15.0285 3.88371 15.0108 3.82649 15.0173L3.7662 15.0247C3.87674 15.0786 4.34098 15.0268 4.44389 15.0533C4.40143 15.0574 4.35951 15.0597 4.31675 15.0592C3.84237 15.0536 3.43252 15.1564 3.19866 14.6117Z" fill="#CFE3FE"/>
<path d="M3.4375 14.815L3.46573 14.8008C3.71018 14.9893 4.25264 14.9183 4.55909 14.9287C4.59653 14.9318 4.63394 14.9251 4.65755 14.9575L4.64551 14.9647C4.35217 14.9634 4.04572 14.9815 3.75203 14.9535C3.6327 14.9423 3.53001 14.8938 3.4375 14.815Z" fill="#1F7FFA"/>
<path d="M3.2548 13.8295C3.30141 13.2493 3.72637 13.2226 4.18304 13.237C4.47098 13.2461 4.81037 13.1842 5.02025 13.4484C5.17516 13.6419 5.15 13.8642 5.15378 14.0984C5.15432 14.2108 5.16348 14.4486 5.12419 14.5473L5.10218 14.5367C5.1349 14.3622 5.12914 13.8818 5.10289 13.7088C5.0396 13.2915 4.59513 13.2472 4.26931 13.27C3.33062 13.2139 3.23359 13.4891 3.30025 14.3934C3.31417 14.582 3.32665 14.6631 3.46374 14.8023L3.43551 14.8165C3.19867 14.663 3.24827 14.0918 3.2548 13.8295Z" fill="#1F7FFA"/>
<path d="M5.10367 14.5352L5.12569 14.5458C5.07551 14.7316 5.00218 14.8071 4.84193 14.9042C4.77996 14.9262 4.72229 14.9496 4.65706 14.9575C4.63345 14.9251 4.59604 14.9319 4.55859 14.9288C4.82693 14.8967 5.01461 14.8259 5.10367 14.5352Z" fill="#1F7FFA"/>
<path d="M1.75744 6.50096L1.74766 6.51374C1.74962 6.5167 1.70283 6.268 1.69141 6.23075L1.69746 6.21875C1.74165 6.25989 1.75298 6.27132 1.81564 6.27191C1.93727 6.27305 2.05895 6.2738 2.18061 6.27499C2.47658 6.27757 2.77255 6.27848 3.06853 6.27768L5.45661 6.27673L12.7728 6.27465C12.8923 6.28261 13.1977 6.28923 13.2959 6.23663L13.3018 6.24896L13.2971 6.26156C13.291 6.27839 13.291 6.28051 13.2908 6.29907C13.2721 6.34669 13.2748 6.38505 13.2757 6.43588C13.2795 6.6388 13.2715 6.86564 13.2693 7.07126C13.2662 7.4127 13.2653 7.75416 13.2666 8.09562L13.269 9.6764C13.2691 9.84787 13.278 10.0377 13.2747 10.2058C13.2734 10.2545 13.2734 10.3105 13.2705 10.3585L13.2768 10.3801C13.2282 10.3864 13.2233 10.3718 13.1821 10.3727C13.1579 10.3695 13.1189 10.3689 13.1034 10.3526L13.1271 10.3348C12.796 10.3667 12.2589 10.3493 11.9106 10.3489L9.73427 10.3478L6.71453 10.3477L5.76817 10.3481C5.60226 10.3483 5.39243 10.3544 5.22899 10.3456C5.13814 10.3561 4.86538 10.3494 4.76177 10.3494L3.82329 10.3482L2.6505 10.351C2.41389 10.3516 2.13849 10.3602 1.90664 10.3386C1.86276 10.3086 1.80918 10.2619 1.76689 10.2268C1.7632 10.1709 1.76051 10.1149 1.7588 10.0588C1.74671 9.96773 1.75408 9.78798 1.75477 9.68669L1.75594 9.06891C1.75514 8.2183 1.76662 7.34919 1.75744 6.50096Z" fill="#CFE3FE"/>
<path d="M1.75744 6.50096L1.74766 6.51374C1.74962 6.5167 1.70283 6.268 1.69141 6.23075L1.69746 6.21875C1.74165 6.25989 1.75298 6.27132 1.81564 6.27191C1.93727 6.27305 2.05895 6.2738 2.18061 6.27499C2.47658 6.27757 2.77255 6.27848 3.06853 6.27768L5.45661 6.27673L12.7728 6.27465C12.8923 6.28261 13.1977 6.28923 13.2959 6.23663L13.3018 6.24896L13.2971 6.26156C13.291 6.27839 13.291 6.28051 13.2908 6.29907C13.2721 6.34669 13.2748 6.38505 13.2757 6.43588C13.2795 6.6388 13.2715 6.86564 13.2693 7.07126C13.2662 7.4127 13.2653 7.75416 13.2666 8.09562L13.269 9.6764C13.2691 9.84787 13.278 10.0377 13.2747 10.2058C13.2734 10.2545 13.2734 10.3105 13.2705 10.3585L13.2768 10.3801C13.2282 10.3864 13.2233 10.3718 13.1821 10.3727C13.1579 10.3695 13.1189 10.3689 13.1034 10.3526L13.1271 10.3348C12.796 10.3667 12.2589 10.3493 11.9106 10.3489L9.73427 10.3478L6.71453 10.3477L5.76817 10.3481C5.60226 10.3483 5.39243 10.3544 5.22899 10.3456C5.31934 10.3127 6.43535 10.3297 6.60115 10.3298L11.032 10.3205C11.4597 10.3152 11.8898 10.3229 12.3175 10.3185C12.4066 10.3199 12.5187 10.2899 12.6059 10.2906C12.8176 10.3017 13.1554 10.2991 13.1677 9.99434C13.1837 9.59735 13.1618 9.16912 13.1626 8.76961L13.1601 7.27787C13.1597 7.06497 13.2548 6.46611 12.9958 6.41499C12.7339 6.36329 12.4286 6.37691 12.162 6.38116L11.4625 6.38514L9.02675 6.39202L5.64812 6.39634L3.11942 6.39719C2.76204 6.39891 2.23958 6.33284 1.89832 6.46252C1.85294 6.47977 1.78468 6.72786 1.78428 6.7724C1.77748 7.53862 1.77108 8.30534 1.77514 9.0719C1.77824 9.41515 1.7877 9.71348 1.7588 10.0588C1.74671 9.96773 1.75408 9.78798 1.75477 9.68669L1.75594 9.06891C1.75514 8.2183 1.76662 7.34919 1.75744 6.50096Z" fill="#F3F8FF"/>
<path d="M1.75744 6.50096L1.74766 6.51374C1.74962 6.5167 1.70283 6.268 1.69141 6.23075L1.69746 6.21875C1.74165 6.25989 1.75298 6.27132 1.81564 6.27191C1.93727 6.27305 2.05895 6.2738 2.18061 6.27499C2.47658 6.27757 2.77255 6.27848 3.06853 6.27768L5.45661 6.27673L12.7728 6.27465C12.8923 6.28261 13.1977 6.28923 13.2959 6.23663L13.3018 6.24896L13.2971 6.26156C13.291 6.27839 13.291 6.28051 13.2908 6.29907C13.2721 6.34669 13.2748 6.38505 13.2757 6.43588L13.2629 6.45389L13.2461 6.45161C13.2129 6.38777 13.1865 6.32952 13.1117 6.3266C12.7594 6.29844 12.2135 6.3188 11.8484 6.31836L9.26122 6.31979L4.63833 6.32062L2.93373 6.32145C2.64139 6.31871 2.34905 6.31841 2.05671 6.32054C1.89434 6.32342 1.77461 6.29931 1.75744 6.50096Z" fill="#1F7FFA"/>
<path d="M13.1099 6.32422C13.1847 6.32714 13.2111 6.38539 13.2443 6.44923L13.2611 6.4515L13.2739 6.4335C13.2777 6.63642 13.2697 6.86326 13.2675 7.06888C13.2644 7.41032 13.2635 7.75178 13.2648 8.09324L13.2672 9.67402C13.2673 9.84549 13.2762 10.0353 13.2729 10.2034C13.2716 10.2521 13.2716 10.3081 13.2687 10.3561L13.275 10.3777C13.2264 10.384 13.2215 10.3695 13.1803 10.3703C13.1561 10.3671 13.1171 10.3665 13.1016 10.3502L13.1254 10.3324C13.1964 10.3249 13.2154 10.2739 13.2342 10.2122C13.2237 9.98301 13.2348 9.63075 13.2341 9.38772L13.2329 7.44383C13.2323 7.26845 13.2334 7.09305 13.2361 6.91767C13.2379 6.77988 13.2433 6.63192 13.227 6.4954C13.2161 6.4025 13.1782 6.37578 13.1099 6.32422Z" fill="#1F7FFA"/>
<path d="M13.2342 10.2118L13.2467 10.1562L13.2553 10.1597C13.2588 10.2109 13.2597 10.3138 13.2687 10.3557L13.275 10.3773C13.2264 10.3836 13.2215 10.3691 13.1803 10.3699C13.1561 10.3668 13.1171 10.3661 13.1016 10.3498L13.1254 10.332C13.1964 10.3245 13.2154 10.2735 13.2342 10.2118Z" fill="#1F7FFA"/>
<path d="M1.97413 6.46253C2.17918 6.40545 2.42242 6.42097 2.63701 6.42201L3.27387 6.42381L5.82741 6.42396L11.137 6.421C11.6453 6.42156 12.1541 6.4203 12.6619 6.4141C12.7355 6.41321 13.0198 6.42739 13.0587 6.46576C13.1947 6.59965 13.1263 7.03853 13.1325 7.22031C13.1516 7.7811 13.1324 8.32628 13.135 8.88552C13.1456 9.23133 13.1462 9.57687 13.1459 9.9228C13.1458 9.95501 13.1353 9.97113 13.1335 9.9916C13.1199 10.1394 13.0686 10.2049 12.9233 10.2399C12.8081 10.2677 12.6407 10.2552 12.5135 10.257L11.6707 10.266C9.83991 10.2842 8.00897 10.2861 6.17814 10.2716L3.09972 10.2639C2.79394 10.2618 2.4878 10.2671 2.1821 10.2718C2.05609 10.2738 1.94007 10.2186 1.87024 10.1084L1.86675 10.098C1.82172 10.0508 1.81645 9.99055 1.81641 9.92754L1.83464 7.80447L1.83746 7.19338C1.83702 6.97484 1.80308 6.61542 1.97413 6.46253Z" fill="#F3F8FF"/>
<path d="M1.97413 6.46253C2.17918 6.40545 2.42242 6.42097 2.63701 6.42201L3.27387 6.42381L5.82741 6.42396L11.137 6.421C11.6453 6.42156 12.1541 6.4203 12.6619 6.4141C12.7355 6.41321 13.0198 6.42739 13.0587 6.46576C13.1947 6.59965 13.1263 7.03853 13.1325 7.22031C13.1516 7.7811 13.1324 8.32628 13.135 8.88552C13.1456 9.23133 13.1462 9.57687 13.1459 9.9228C13.1458 9.95501 13.1353 9.97113 13.1335 9.9916C13.1199 10.1394 13.0686 10.2049 12.9233 10.2399C12.8081 10.2677 12.6407 10.2552 12.5135 10.257L11.6707 10.266C9.83991 10.2842 8.00897 10.2861 6.17814 10.2716L3.09972 10.2639C2.79394 10.2618 2.4878 10.2671 2.1821 10.2718C2.05609 10.2738 1.94007 10.2186 1.87024 10.1084L1.88748 10.0979C1.92104 10.1414 1.99148 10.1812 2.04125 10.2024C2.15301 10.25 2.13969 10.2453 2.25865 10.2166L2.25168 10.2172C2.34892 10.183 2.96629 10.1989 3.09631 10.2002L3.93692 10.2018L9.91674 10.1919C10.1879 10.1914 12.8795 10.207 12.9017 10.1895C12.9255 10.1708 12.9092 10.1584 12.947 10.1452C13.0438 10.1806 13.0016 10.1396 13.0274 10.1062L13.0362 10.1231L13.0474 10.1128C13.0472 10.0232 13.0508 9.93977 13.0562 9.85046C13.0878 9.32387 13.067 8.79629 13.069 8.26882L13.066 7.13007C13.0653 6.99316 13.0697 6.8568 13.0682 6.7197C13.0677 6.68041 13.0656 6.56948 13.0492 6.53476C13.0345 6.50766 13.0027 6.49393 12.9749 6.49134C12.5735 6.45415 12.1695 6.46439 11.7674 6.46619L9.57908 6.4758L5.62363 6.47761C4.86081 6.4714 4.09794 6.47179 3.33512 6.47876C3.16281 6.47898 2.20717 6.44231 1.98725 6.52876C1.95453 6.54162 1.9122 6.70184 1.90802 6.75366C1.87329 7.18417 1.93177 7.67739 1.89678 8.10581L1.89595 8.11498C1.89921 8.21003 1.9203 8.57822 1.875 8.63373C1.89382 8.86712 1.9011 9.09493 1.88753 9.32811C1.88144 9.43251 1.92922 9.54611 1.9208 9.65896C1.85452 9.73846 1.86394 9.72836 1.85764 9.83781C1.85261 9.92501 1.86964 10.0134 1.86675 10.098C1.82172 10.0508 1.81645 9.99055 1.81641 9.92754L1.83464 7.80447L1.83746 7.19338C1.83702 6.97484 1.80308 6.61542 1.97413 6.46253Z" fill="#F3F8FF"/>
<path d="M1.8732 8.63203C1.83554 8.67372 1.88997 8.83999 1.8514 8.87195C1.8396 8.81976 1.85942 8.33392 1.86016 8.25715C1.86043 8.2299 1.8834 8.14413 1.89414 8.11328C1.8974 8.20834 1.9185 8.57653 1.8732 8.63203Z" fill="#CFE3FE"/>
<path d="M2.93701 2.82743C3.32908 2.66392 3.86182 2.53248 4.27603 2.42937C6.42076 1.87369 8.66459 1.8778 10.8074 2.44135C11.1906 2.53912 11.6653 2.65884 12.0225 2.81123C12.4901 3.01069 12.9401 3.40304 13.1253 3.90047C13.1961 4.09087 13.2343 4.29286 13.2521 4.49718C13.261 4.59958 13.2558 4.71711 13.2743 4.81807C13.2408 4.80891 13.2242 4.80431 13.1899 4.80004L13.1756 4.78218C13.1925 4.76083 13.201 4.75459 13.2212 4.73765C13.2438 4.52926 13.1955 4.078 13.082 3.90825C13.1443 4.14663 13.23 4.43423 13.1689 4.68595C13.1621 4.71414 13.13 4.74953 13.1106 4.77164C12.9803 4.79858 12.7184 4.78898 12.5727 4.78845L11.7881 4.7876L8.57284 4.78468L4.04934 4.78895L2.7253 4.78893C2.46513 4.78905 2.13064 4.79914 1.87716 4.77312C1.83822 4.7345 1.81736 4.70509 1.78458 4.66097C1.7648 4.3418 1.83431 4.08485 1.96129 3.79917C1.99082 3.73274 2.05196 3.65845 2.07394 3.59606L2.06598 3.57857C2.105 3.35564 2.73256 2.89007 2.93701 2.82743Z" fill="#F3F8FF"/>
<path d="M2.9375 2.82743C3.32958 2.66392 3.86232 2.53248 4.27652 2.42937C6.42126 1.87369 8.66509 1.8778 10.8079 2.44135C11.1911 2.53912 11.6658 2.65884 12.023 2.81123C12.4906 3.01069 12.9406 3.40304 13.1258 3.90047C13.1966 4.09087 13.2348 4.29286 13.2526 4.49718C13.2615 4.59958 13.2563 4.71711 13.2748 4.81807C13.2413 4.80891 13.2247 4.80431 13.1904 4.80004L13.176 4.78218C13.193 4.76083 13.2015 4.75459 13.2217 4.73765C13.2443 4.52926 13.196 4.078 13.0825 3.90825C13.0799 3.89636 13.0777 3.88717 13.0729 3.87587C12.6807 2.94392 11.7805 2.74979 10.9368 2.51986C8.77687 1.93125 6.65029 1.93714 4.47652 2.42453C4.16106 2.49533 3.8479 2.57674 3.53753 2.66865C3.34073 2.72614 3.16888 2.77257 2.97919 2.854L2.9375 2.82743Z" fill="#1F7FFA"/>
<path d="M2.07436 3.59675L2.06641 3.57926C2.10543 3.35633 2.73299 2.89076 2.93743 2.82812L2.97912 2.85469C2.60299 3.03161 2.30782 3.23646 2.07436 3.59675Z" fill="#1F7FFA"/>
<path d="M13.336 2.18602C12.7762 1.66687 11.9974 1.55714 11.3077 1.30965C11.2543 1.29051 11.1213 1.27474 11.0837 1.24818L11.0905 1.2385C11.2139 1.23853 12.1933 1.54188 12.3525 1.59978L12.3568 1.59326C12.3212 1.57293 12.2982 1.5674 12.2612 1.54136C12.1606 1.47067 12.0485 1.46883 11.9558 1.37791C11.9254 1.34812 11.8935 1.35146 11.8573 1.30329C11.8594 1.26632 11.8537 1.28278 11.8759 1.25262C11.9506 1.21516 12.3013 1.23115 12.3772 1.27158C12.4312 1.30039 12.6444 1.36315 12.6757 1.38508L12.6993 1.38315C12.6634 1.21438 10.9416 0.740955 10.7212 0.711445C10.697 0.708197 10.6585 0.703831 10.6367 0.694497L10.6455 0.6875C11.3895 0.832393 12.1184 1.05155 12.8219 1.34192C12.9669 1.40289 13.1036 1.45574 13.2397 1.53291C13.3356 1.58735 13.4312 1.72964 13.5034 1.77017C13.7471 1.90705 13.8444 1.97796 13.9634 2.24161C13.9836 2.28634 14.1366 2.41202 14.1636 2.46405C14.2705 2.64037 14.3713 3.01898 14.3911 3.21891L14.3838 3.23064C14.3627 3.18938 14.3533 3.12961 14.3452 3.08406C14.3345 3.02284 14.2629 2.86861 14.2242 2.82322C14.2411 2.93702 14.2815 3.28481 14.1809 3.35736C14.0136 3.38672 13.7553 2.70201 13.6396 2.56699C13.5456 2.4572 13.4003 2.30515 13.336 2.18602Z" fill="#5195F4"/>
<path d="M13.336 2.18602C12.7762 1.66687 11.9974 1.55714 11.3077 1.30965C11.2543 1.29051 11.1213 1.27474 11.0837 1.24818L11.0905 1.2385C11.2139 1.23853 12.1933 1.54188 12.3525 1.59978L12.3568 1.59326C12.3212 1.57293 12.2982 1.5674 12.2612 1.54136C12.1606 1.47067 12.0485 1.46883 11.9558 1.37791C11.9254 1.34812 11.8935 1.35146 11.8573 1.30329C11.8594 1.26632 11.8537 1.28278 11.8759 1.25262C11.9506 1.21516 12.3013 1.23115 12.3772 1.27158C12.4312 1.30039 12.6444 1.36315 12.6757 1.38508L12.6993 1.38315C12.6634 1.21438 10.9416 0.740955 10.7212 0.711445C10.697 0.708197 10.6585 0.703831 10.6367 0.694497L10.6455 0.6875C11.3895 0.832393 12.1184 1.05155 12.8219 1.34192C12.9669 1.40289 13.1036 1.45574 13.2397 1.53291C13.3356 1.58735 13.4312 1.72964 13.5034 1.77017C13.7471 1.90705 13.8444 1.97796 13.9634 2.24161C13.9836 2.28634 14.1366 2.41202 14.1636 2.46405C14.2705 2.64037 14.3713 3.01898 14.3911 3.21891L14.3838 3.23064C14.3627 3.18938 14.3533 3.12961 14.3452 3.08406C14.3345 3.02284 14.2629 2.86861 14.2242 2.82322L14.2185 2.81003C14.1994 2.81941 14.2087 2.81966 14.1904 2.81382C14.1905 2.78629 14.19 2.75346 14.1721 2.7326L14.1599 2.77213L14.1515 2.77361C14.1155 2.67323 14.0699 2.55267 14.0059 2.46878C13.9885 2.42609 13.9357 2.37891 13.9162 2.33863C13.73 1.953 13.3263 1.78585 12.9996 1.552C12.9216 1.49613 12.5334 1.41681 12.4951 1.50835C12.5016 1.5414 12.5987 1.66887 12.6243 1.68109C12.9997 1.86089 13.3025 2.08512 13.5862 2.3961C13.6265 2.45927 13.6638 2.49698 13.6991 2.56849L13.6923 2.57679C13.6727 2.56024 13.6396 2.51038 13.6204 2.4863C13.5187 2.35886 13.4702 2.28511 13.336 2.18602Z" fill="#5195F4"/>
<path d="M13.5862 2.39587C13.6664 2.4543 13.8512 2.73534 13.8815 2.74416C13.9024 2.64425 13.7424 2.51334 13.7358 2.48072C13.7759 2.5064 13.8228 2.54181 13.8676 2.54895L13.8795 2.53497C13.8482 2.29149 13.43 1.97707 13.4208 1.92188C13.5044 1.94646 13.6432 2.06336 13.7022 2.1282C13.7835 2.21721 13.8899 2.42927 14.0059 2.46856C14.0698 2.55244 14.1154 2.673 14.1514 2.77339L14.1598 2.7719L14.172 2.73237C14.1899 2.75323 14.1904 2.78606 14.1903 2.81359C14.2086 2.81943 14.1993 2.81918 14.2185 2.8098L14.2241 2.82299C14.241 2.9368 14.2815 3.28459 14.1808 3.35713C14.0135 3.3865 13.7552 2.70178 13.6396 2.56676C13.5455 2.45698 13.4003 2.30492 13.3359 2.18579C13.4701 2.28489 13.5186 2.35863 13.6203 2.48608C13.6396 2.51015 13.6727 2.56001 13.6922 2.57656L13.699 2.56826C13.6638 2.49675 13.6264 2.45904 13.5862 2.39587Z" fill="#5195F4"/>
<path d="M1.47656 15.4688C1.48159 15.4703 1.51215 15.4817 1.51236 15.4821C1.53917 15.5284 1.57105 15.6391 1.58741 15.6879C1.69548 16.0105 1.91006 16.2667 2.12972 16.5135C2.19977 16.5958 2.30066 16.6734 2.37905 16.7428C2.64368 16.9771 2.95006 17.1186 3.29209 17.179C3.30594 17.1815 3.33045 17.2053 3.34136 17.2173C3.29355 17.238 2.97863 17.119 2.9151 17.0946C2.85085 17.0691 2.79007 17.0399 2.72427 17.0151L2.71295 17.0327C2.72104 17.0798 2.75696 17.0967 2.73162 17.1469C2.53748 17.3003 2.28901 17.0281 2.12397 16.9365C1.97441 16.8535 1.40014 16.2389 1.56402 16.0837C1.65042 16.0742 1.72183 16.1703 1.81051 16.1975C1.81368 16.1401 1.66916 15.944 1.63627 15.8727C1.57319 15.7359 1.52983 15.6076 1.47656 15.4688Z" fill="#5195F4"/>
<path d="M12.7734 6.27403C12.9153 6.25175 13.0845 6.26441 13.2234 6.22698C13.2733 6.21354 13.3746 6.01395 13.4043 5.95954L13.4046 5.96564C13.4595 5.86315 13.4724 5.82974 13.4702 5.71105C13.47 5.69795 13.4693 5.70183 13.4748 5.69141C13.5022 5.87261 13.3636 6.13792 13.2914 6.29845C13.2916 6.27988 13.2916 6.27777 13.2977 6.26094L13.3024 6.24834L13.2965 6.236C13.1983 6.28861 12.8929 6.28199 12.7734 6.27403Z" fill="#1F7FFA"/>
<path d="M4.56106 21.1569C4.42032 20.9756 4.37531 20.7212 4.44929 20.5034C4.60752 20.0375 4.96917 20.0371 5.35521 20.0368L5.91543 20.0365L7.75846 20.0369H9.26458C9.3905 20.0369 9.51655 20.0366 9.64243 20.0364C9.87589 20.036 10.1196 20.0143 10.3185 20.1685C10.5245 20.3281 10.6081 20.5692 10.5751 20.8307C10.5528 21.0001 10.4667 21.1535 10.3357 21.257C10.2843 21.2971 10.1667 21.3616 10.1031 21.3658C9.96617 21.4122 9.15279 21.3964 8.9464 21.3963L7.21173 21.396L5.82639 21.3963C5.5767 21.3964 5.32352 21.3997 5.07415 21.3931C4.87396 21.3876 4.69731 21.3129 4.56106 21.1569Z" fill="#1F7FFA"/>
<path d="M4.55859 21.1562L4.57019 21.157C4.65077 21.1623 4.73934 21.2184 4.79911 21.2169C5.14403 21.2086 5.48842 21.2353 5.83274 21.2341C6.27452 21.2326 6.71719 21.2048 7.15973 21.1999C7.62533 21.1955 8.09097 21.2003 8.5564 21.2143C8.94577 21.2244 9.32628 21.245 9.7168 21.2207C9.87935 21.2105 9.99138 21.3583 10.1006 21.3651C9.96369 21.4115 9.15032 21.3957 8.94393 21.3956L7.20926 21.3953L5.82392 21.3956C5.57423 21.3957 5.32105 21.399 5.07168 21.3924C4.87149 21.3869 4.69484 21.3122 4.55859 21.1562Z" fill="#1F7FFA"/>
<path d="M2.4572 18.4956C2.49326 18.4772 2.71814 18.4865 2.77457 18.4886C2.69594 18.5066 2.62025 18.4746 2.5333 18.5243C2.6817 18.5694 3.37205 18.5345 3.4304 18.5702C3.53058 18.5743 3.61495 18.5887 3.71392 18.6042C3.82035 18.6274 3.88749 18.6628 3.98847 18.6994C4.06849 18.7191 4.0882 18.6985 4.16488 18.7429C4.13846 18.7824 4.02969 18.9507 4.00049 18.973C3.71556 19.4219 3.34367 19.9095 3.03582 20.3536L2.43856 21.2123C2.32301 21.3782 2.10992 21.7336 1.94261 21.8215C1.62301 22.0806 1.00146 21.9438 0.839439 21.5355C0.807827 21.4904 0.77883 21.3773 0.770273 21.3242C0.720994 21.0175 0.82306 20.8285 0.985157 20.5957C1.42372 19.9655 1.86897 19.3269 2.30666 18.6982C2.35167 18.6307 2.40027 18.5508 2.4572 18.4956Z" fill="#1F7FFA"/>
<path d="M2.45913 18.4956C2.49519 18.4772 2.72007 18.4865 2.7765 18.4886C2.69787 18.5066 2.62219 18.4746 2.53524 18.5243C2.68364 18.5694 3.37399 18.5345 3.43233 18.5702C3.34128 18.5735 3.19208 18.5619 3.11318 18.5763C3.01901 18.5934 2.87149 18.6852 2.76808 18.6713C2.7652 18.6228 2.80874 18.6669 2.75588 18.6171C2.79225 18.6172 2.89505 18.6212 2.92358 18.6101C2.848 18.5641 2.66947 18.6377 2.50759 18.5678C2.50302 18.6158 2.58568 18.7075 2.57315 18.7631C2.47589 18.7657 2.49143 18.5664 2.30859 18.6982C2.3536 18.6307 2.4022 18.5508 2.45913 18.4956Z" fill="#1F7FFA"/>
<path d="M3.71494 18.6055C3.82137 18.6287 3.88852 18.6641 3.98949 18.7006C4.06951 18.7204 4.08923 18.6998 4.1659 18.7442C4.13948 18.7837 4.03072 18.952 4.00151 18.9742L3.99209 18.958C4.03166 18.8873 4.08867 18.8588 4.09218 18.8034C4.07256 18.7771 4.04911 18.7799 4.00972 18.7686C3.97628 18.8217 3.88725 18.9856 3.85167 19.0117L3.84007 19.013L3.83039 19.0039C3.86006 18.9415 3.90848 18.897 3.91614 18.848L3.90482 18.8331C3.84471 18.8105 3.84471 18.7391 3.82788 18.6751C3.79664 18.6445 3.75977 18.6478 3.71094 18.6301L3.71494 18.6055Z" fill="#1F7FFA"/>
<path d="M0.839844 21.5352C0.899503 21.5771 0.925257 21.6505 0.982522 21.7118C1.03553 21.7685 1.19113 21.875 1.27555 21.8859C1.35585 21.8674 1.3306 21.8459 1.40181 21.9221C1.44031 21.9169 1.49754 21.8894 1.50895 21.8898C1.56554 21.8913 1.63272 21.9311 1.69729 21.9129C1.76492 21.8938 1.87748 21.8206 1.94302 21.8211C1.62342 22.0802 1.00187 21.9435 0.839844 21.5352Z" fill="#1F7FFA"/>
<path d="M11.9354 18.5772C12.2315 18.5249 12.3106 18.6254 12.5768 18.5391C13.0933 19.2529 13.5826 19.9977 14.095 20.7158C14.1232 20.7554 14.1513 20.8072 14.1713 20.8524C14.3248 21.2635 14.2008 21.6555 13.8354 21.8695C13.5519 22.0122 13.1872 21.9756 12.9556 21.7458C12.9225 21.7257 12.8613 21.65 12.8378 21.6167C12.4681 21.0927 12.1065 20.5621 11.7367 20.0381C11.558 19.7848 11.3703 19.5287 11.201 19.2701C11.2087 19.2069 11.1341 19.1679 11.1094 19.0894C11.1155 19.0704 11.3199 18.8766 11.2218 18.81C11.2025 18.7598 11.1987 18.7464 11.2065 18.6932C11.2631 18.6103 11.3485 18.6586 11.4351 18.6029C11.5258 18.58 11.8109 18.5448 11.8992 18.5712L11.9354 18.5772Z" fill="#5195F4"/>
<path d="M11.6914 18.5748C11.7544 18.5697 11.8344 18.5713 11.8993 18.5703L11.9355 18.5763C12.1227 18.6073 12.2963 18.6962 12.4417 18.82C12.5636 18.9236 12.6351 19.09 12.7291 19.223L13.5643 20.4129C13.652 20.5384 13.758 20.648 13.8426 20.7731C13.9145 20.8792 13.8446 21.0807 13.7726 21.1714C13.6935 21.1986 13.5679 21.2212 13.4996 21.1677C13.324 21.0301 13.1704 20.7117 13.038 20.5317C12.827 20.2524 12.6358 19.9536 12.4302 19.6714C12.2098 19.3689 11.9846 19.0675 11.767 18.7623C11.7296 18.7097 11.7094 18.6363 11.6914 18.5748Z" fill="#5195F4"/>
<path d="M13.4258 20.8125C13.4827 20.8569 13.5259 20.8836 13.5194 20.9631C13.4832 20.9293 13.4311 20.8644 13.4258 20.8125Z" fill="#5195F4"/>
<path d="M12.9531 21.7461C13.0354 21.7443 13.086 21.8396 13.1238 21.8373C13.351 21.8239 13.3565 21.7534 13.576 21.8899C13.5777 21.9019 13.5795 21.914 13.5814 21.9261C13.6839 21.9254 13.7527 21.8477 13.833 21.8698C13.5494 22.0125 13.1847 21.9759 12.9531 21.7461Z" fill="#1F7FFA"/>
<path d="M11.4789 19.375C11.6028 19.4331 11.5657 19.5759 11.6585 19.6764C11.6792 19.699 11.7046 19.7461 11.6996 19.7776C11.665 19.6992 11.4722 19.4783 11.457 19.4017L11.4789 19.375Z" fill="#1F7FFA"/>
<path d="M11.4023 19.4844C11.4714 19.4904 11.4799 19.5017 11.5221 19.5541C11.4488 19.5473 11.4443 19.543 11.4023 19.4844Z" fill="#1F7FFA"/>
</g>
<defs>
<clipPath id="clip0_701_36573">
<rect width="15" height="22" fill="white"/>
</clipPath>
</defs>
</svg>
